<svg xmlns="http://www.w3.org/2000/svg" width="1200" height="600" viewBox="0 0 1200 600" data-simulation-experiment-id="test_experiment_id_tstep_1" data-simulation-experiment-name="Timestep 0.001"><style>
:root { color-scheme: light; }
svg { font-family: 'Inter', 'Helvetica Neue', Arial, sans-serif; }
.background { fill: rgb(245, 241, 237); }
.plot-background { fill: #ffffff; }
.grid-line { stroke: rgba(0, 0, 0, 0.08); stroke-width: 1; }
.axis { stroke: rgba(0, 0, 0, 0.6); stroke-width: 1.5; }
.axis-tick { stroke: rgba(0, 0, 0, 0.6); stroke-width: 1; }
.axis-label { fill: rgba(0, 0, 0, 0.75); font-size: 12px; }
.axis-title { fill: rgba(0, 0, 0, 0.9); font-size: 14px; font-weight: 600; }
.legend-label { fill: rgba(0, 0, 0, 0.75); font-size: 13px; }
.legend-line { stroke-width: 3; }
.simulation-line { fill: none; stroke-width: 2.5; }
.simulation-point { stroke-width: 1.5; fill: #ffffff; }
.chart-title { fill: rgba(0, 0, 0, 0.85); font-size: 18px; font-weight: 600; }
</style><rect class="background" x="0" y="0" width="1200" height="600"/><defs><clipPath id="simulation-graph-test_experiment_id_tstep_1"><rect x="100" y="64" width="1052" height="456"/></clipPath></defs><rect class="plot-background" x="100" y="64" width="1052" height="456"/><g class="grid"><line class="grid-line grid-line-x" x1="100" y1="64" x2="100" y2="520"/><line class="grid-line grid-line-x" x1="310.4" y1="64" x2="310.4" y2="520"/><line class="grid-line grid-line-x" x1="520.8" y1="64" x2="520.8" y2="520"/><line class="grid-line grid-line-x" x1="731.2" y1="64" x2="731.2" y2="520"/><line class="grid-line grid-line-x" x1="941.6" y1="64" x2="941.6" y2="520"/><line class="grid-line grid-line-x" x1="1152" y1="64" x2="1152" y2="520"/><line class="grid-line grid-line-y" x1="100" y1="520" x2="1152" y2="520"/><line class="grid-line grid-line-y" x1="100" y1="428.8" x2="1152" y2="428.8"/><line class="grid-line grid-line-y" x1="100" y1="337.6" x2="1152" y2="337.6"/><line class="grid-line grid-line-y" x1="100" y1="246.4" x2="1152" y2="246.4"/><line class="grid-line grid-line-y" x1="100" y1="155.2" x2="1152" y2="155.2"/><line class="grid-line grid-line-y" x1="100" y1="64" x2="1152" y2="64"/></g><g class="data-series"><path class="simulation-line" d="M 100 337.6 L 110.52 337.6 L 121.04 337.6 L 131.56 337.6 L 142.08 337.6 L 152.6 337.6 L 163.12 337.6 L 173.64 337.6 L 184.16 337.6 L 194.68 337.6 L 205.2 337.6 L 215.72 337.6 L 226.24 337.6 L 236.76 337.6 L 247.28 337.6 L 257.8 337.6 L 268.32 337.6 L 278.84 337.6 L 289.36 337.6 L 299.88 337.6 L 310.4 337.6 L 320.92 337.6 L 331.44 337.6 L 341.96 337.6 L 352.48 337.6 L 363 337.6 L 373.52 337.6 L 384.04 337.6 L 394.56 337.6 L 405.08 337.6 L 415.6 337.6 L 426.12 337.6 L 436.64 337.6 L 447.16 337.6 L 457.68 337.6 L 468.2 337.6 L 478.72 337.6 L 489.24 337.6 L 499.76 337.6 L 510.28 337.6 L 520.8 337.6 L 531.32 337.6 L 541.84 337.6 L 552.36 337.6 L 562.88 337.6 L 573.4 337.6 L 583.92 337.6 L 594.44 337.6 L 604.96 337.6 L 615.48 337.6 L 626 337.6 L 636.52 337.6 L 647.04 337.6 L 657.56 337.6 L 668.08 337.6 L 678.6 337.6 L 689.12 337.6 L 699.64 337.6 L 710.16 337.6 L 720.68 337.6 L 731.2 337.6 L 741.72 337.6 L 752.24 337.6 L 762.76 337.6 L 773.28 337.6 L 783.8 337.6 L 794.32 337.6 L 804.84 337.6 L 815.36 337.6 L 825.88 337.6 L 836.4 337.6 L 846.92 337.6 L 857.44 337.6 L 867.96 337.6 L 878.48 337.6 L 889 337.6 L 899.52 337.6 L 910.04 337.6 L 920.56 337.6 L 931.08 337.6 L 941.6 337.6 L 952.12 337.6 L 962.64 337.6 L 973.16 337.6 L 983.68 337.6 L 994.2 337.6 L 1004.72 337.6 L 1015.24 337.6 L 1025.76 337.6 L 1036.28 337.6 L 1046.8 337.6 L 1057.32 337.6 L 1067.84 337.6 L 1078.36 337.6 L 1088.88 337.6 L 1099.4 337.6 L 1109.92 337.6 L 1120.44 337.6 L 1130.96 337.6 L 1141.48 337.6 L 1152 337.6" stroke="rgb(132, 0, 0)" clip-path="url(#simulation-graph-test_experiment_id_tstep_1)" data-simulation-transient-voltage-graph-id="simulation_graph_V1.pin1"/><circle class="simulation-point" cx="100" cy="337.6" r="3.5" stroke="rgb(132, 0, 0)" fill="#ffffff" clip-path="url(#simulation-graph-test_experiment_id_tstep_1)"/><circle class="simulation-point" cx="110.52" cy="337.6" r="3.5" stroke="rgb(132, 0, 0)" fill="#ffffff" clip-path="url(#simulation-graph-test_experiment_id_tstep_1)"/><circle class="simulation-point" cx="121.04" cy="337.6" r="3.5" stroke="rgb(132, 0, 0)" fill="#ffffff" clip-path="url(#simulation-graph-test_experiment_id_tstep_1)"/><circle class="simulation-point" cx="131.56" cy="337.6" r="3.5" stroke="rgb(132, 0, 0)" fill="#ffffff" clip-path="url(#simulation-graph-test_experiment_id_tstep_1)"/><circle class="simulation-point" cx="142.08" cy="337.6" r="3.5" stroke="rgb(132, 0, 0)" fill="#ffffff" clip-path="url(#simulation-graph-test_experiment_id_tstep_1)"/><circle class="simulation-point" cx="152.6" cy="337.6" r="3.5" stroke="rgb(132, 0, 0)" fill="#ffffff" clip-path="url(#simulation-graph-test_experiment_id_tstep_1)"/><circle class="simulation-point" cx="163.12" cy="337.6" r="3.5" stroke="rgb(132, 0, 0)" fill="#ffffff" clip-path="url(#simulation-graph-test_experiment_id_tstep_1)"/><circle class="simulation-point" cx="173.64" cy="337.6" r="3.5" stroke="rgb(132, 0, 0)" fill="#ffffff" clip-path="url(#simulation-graph-test_experiment_id_tstep_1)"/><circle class="simulation-point" cx="184.16" cy="337.6" r="3.5" stroke="rgb(132, 0, 0)" fill="#ffffff" clip-path="url(#simulation-graph-test_experiment_id_tstep_1)"/><circle class="simulation-point" cx="194.68" cy="337.6" r="3.5" stroke="rgb(132, 0, 0)" fill="#ffffff" clip-path="url(#simulation-graph-test_experiment_id_tstep_1)"/><circle class="simulation-point" cx="205.2" cy="337.6" r="3.5" stroke="rgb(132, 0, 0)" fill="#ffffff" clip-path="url(#simulation-graph-test_experiment_id_tstep_1)"/><circle class="simulation-point" cx="215.72" cy="337.6" r="3.5" stroke="rgb(132, 0, 0)" fill="#ffffff" clip-path="url(#simulation-graph-test_experiment_id_tstep_1)"/><circle class="simulation-point" cx="226.24" cy="337.6" r="3.5" stroke="rgb(132, 0, 0)" fill="#ffffff" clip-path="url(#simulation-graph-test_experiment_id_tstep_1)"/><circle class="simulation-point" cx="236.76" cy="337.6" r="3.5" stroke="rgb(132, 0, 0)" fill="#ffffff" clip-path="url(#simulation-graph-test_experiment_id_tstep_1)"/><circle class="simulation-point" cx="247.28" cy="337.6" r="3.5" stroke="rgb(132, 0, 0)" fill="#ffffff" clip-path="url(#simulation-graph-test_experiment_id_tstep_1)"/><circle class="simulation-point" cx="257.8" cy="337.6" r="3.5" stroke="rgb(132, 0, 0)" fill="#ffffff" clip-path="url(#simulation-graph-test_experiment_id_tstep_1)"/><circle class="simulation-point" cx="268.32" cy="337.6" r="3.5" stroke="rgb(132, 0, 0)" fill="#ffffff" clip-path="url(#simulation-graph-test_experiment_id_tstep_1)"/><circle class="simulation-point" cx="278.84" cy="337.6" r="3.5" stroke="rgb(132, 0, 0)" fill="#ffffff" clip-path="url(#simulation-graph-test_experiment_id_tstep_1)"/><circle class="simulation-point" cx="289.36" cy="337.6" r="3.5" stroke="rgb(132, 0, 0)" fill="#ffffff" clip-path="url(#simulation-graph-test_experiment_id_tstep_1)"/><circle class="simulation-point" cx="299.88" cy="337.6" r="3.5" stroke="rgb(132, 0, 0)" fill="#ffffff" clip-path="url(#simulation-graph-test_experiment_id_tstep_1)"/><circle class="simulation-point" cx="310.4" cy="337.6" r="3.5" stroke="rgb(132, 0, 0)" fill="#ffffff" clip-path="url(#simulation-graph-test_experiment_id_tstep_1)"/><circle class="simulation-point" cx="320.92" cy="337.6" r="3.5" stroke="rgb(132, 0, 0)" fill="#ffffff" clip-path="url(#simulation-graph-test_experiment_id_tstep_1)"/><circle class="simulation-point" cx="331.44" cy="337.6" r="3.5" stroke="rgb(132, 0, 0)" fill="#ffffff" clip-path="url(#simulation-graph-test_experiment_id_tstep_1)"/><circle class="simulation-point" cx="341.96" cy="337.6" r="3.5" stroke="rgb(132, 0, 0)" fill="#ffffff" clip-path="url(#simulation-graph-test_experiment_id_tstep_1)"/><circle class="simulation-point" cx="352.48" cy="337.6" r="3.5" stroke="rgb(132, 0, 0)" fill="#ffffff" clip-path="url(#simulation-graph-test_experiment_id_tstep_1)"/><circle class="simulation-point" cx="363" cy="337.6" r="3.5" stroke="rgb(132, 0, 0)" fill="#ffffff" clip-path="url(#simulation-graph-test_experiment_id_tstep_1)"/><circle class="simulation-point" cx="373.52" cy="337.6" r="3.5" stroke="rgb(132, 0, 0)" fill="#ffffff" clip-path="url(#simulation-graph-test_experiment_id_tstep_1)"/><circle class="simulation-point" cx="384.04" cy="337.6" r="3.5" stroke="rgb(132, 0, 0)" fill="#ffffff" clip-path="url(#simulation-graph-test_experiment_id_tstep_1)"/><circle class="simulation-point" cx="394.56" cy="337.6" r="3.5" stroke="rgb(132, 0, 0)" fill="#ffffff" clip-path="url(#simulation-graph-test_experiment_id_tstep_1)"/><circle class="simulation-point" cx="405.08" cy="337.6" r="3.5" stroke="rgb(132, 0, 0)" fill="#ffffff" clip-path="url(#simulation-graph-test_experiment_id_tstep_1)"/><circle class="simulation-point" cx="415.6" cy="337.6" r="3.5" stroke="rgb(132, 0, 0)" fill="#ffffff" clip-path="url(#simulation-graph-test_experiment_id_tstep_1)"/><circle class="simulation-point" cx="426.12" cy="337.6" r="3.5" stroke="rgb(132, 0, 0)" fill="#ffffff" clip-path="url(#simulation-graph-test_experiment_id_tstep_1)"/><circle class="simulation-point" cx="436.64" cy="337.6" r="3.5" stroke="rgb(132, 0, 0)" fill="#ffffff" clip-path="url(#simulation-graph-test_experiment_id_tstep_1)"/><circle class="simulation-point" cx="447.16" cy="337.6" r="3.5" stroke="rgb(132, 0, 0)" fill="#ffffff" clip-path="url(#simulation-graph-test_experiment_id_tstep_1)"/><circle class="simulation-point" cx="457.68" cy="337.6" r="3.5" stroke="rgb(132, 0, 0)" fill="#ffffff" clip-path="url(#simulation-graph-test_experiment_id_tstep_1)"/><circle class="simulation-point" cx="468.2" cy="337.6" r="3.5" stroke="rgb(132, 0, 0)" fill="#ffffff" clip-path="url(#simulation-graph-test_experiment_id_tstep_1)"/><circle class="simulation-point" cx="478.72" cy="337.6" r="3.5" stroke="rgb(132, 0, 0)" fill="#ffffff" clip-path="url(#simulation-graph-test_experiment_id_tstep_1)"/><circle class="simulation-point" cx="489.24" cy="337.6" r="3.5" stroke="rgb(132, 0, 0)" fill="#ffffff" clip-path="url(#simulation-graph-test_experiment_id_tstep_1)"/><circle class="simulation-point" cx="499.76" cy="337.6" r="3.5" stroke="rgb(132, 0, 0)" fill="#ffffff" clip-path="url(#simulation-graph-test_experiment_id_tstep_1)"/><circle class="simulation-point" cx="510.28" cy="337.6" r="3.5" stroke="rgb(132, 0, 0)" fill="#ffffff" clip-path="url(#simulation-graph-test_experiment_id_tstep_1)"/><circle class="simulation-point" cx="520.8" cy="337.6" r="3.5" stroke="rgb(132, 0, 0)" fill="#ffffff" clip-path="url(#simulation-graph-test_experiment_id_tstep_1)"/><circle class="simulation-point" cx="531.32" cy="337.6" r="3.5" stroke="rgb(132, 0, 0)" fill="#ffffff" clip-path="url(#simulation-graph-test_experiment_id_tstep_1)"/><circle class="simulation-point" cx="541.84" cy="337.6" r="3.5" stroke="rgb(132, 0, 0)" fill="#ffffff" clip-path="url(#simulation-graph-test_experiment_id_tstep_1)"/><circle class="simulation-point" cx="552.36" cy="337.6" r="3.5" stroke="rgb(132, 0, 0)" fill="#ffffff" clip-path="url(#simulation-graph-test_experiment_id_tstep_1)"/><circle class="simulation-point" cx="562.88" cy="337.6" r="3.5" stroke="rgb(132, 0, 0)" fill="#ffffff" clip-path="url(#simulation-graph-test_experiment_id_tstep_1)"/><circle class="simulation-point" cx="573.4" cy="337.6" r="3.5" stroke="rgb(132, 0, 0)" fill="#ffffff" clip-path="url(#simulation-graph-test_experiment_id_tstep_1)"/><circle class="simulation-point" cx="583.92" cy="337.6" r="3.5" stroke="rgb(132, 0, 0)" fill="#ffffff" clip-path="url(#simulation-graph-test_experiment_id_tstep_1)"/><circle class="simulation-point" cx="594.44" cy="337.6" r="3.5" stroke="rgb(132, 0, 0)" fill="#ffffff" clip-path="url(#simulation-graph-test_experiment_id_tstep_1)"/><circle class="simulation-point" cx="604.96" cy="337.6" r="3.5" stroke="rgb(132, 0, 0)" fill="#ffffff" clip-path="url(#simulation-graph-test_experiment_id_tstep_1)"/><circle class="simulation-point" cx="615.48" cy="337.6" r="3.5" stroke="rgb(132, 0, 0)" fill="#ffffff" clip-path="url(#simulation-graph-test_experiment_id_tstep_1)"/><circle class="simulation-point" cx="626" cy="337.6" r="3.5" stroke="rgb(132, 0, 0)" fill="#ffffff" clip-path="url(#simulation-graph-test_experiment_id_tstep_1)"/><circle class="simulation-point" cx="636.52" cy="337.6" r="3.5" stroke="rgb(132, 0, 0)" fill="#ffffff" clip-path="url(#simulation-graph-test_experiment_id_tstep_1)"/><circle class="simulation-point" cx="647.04" cy="337.6" r="3.5" stroke="rgb(132, 0, 0)" fill="#ffffff" clip-path="url(#simulation-graph-test_experiment_id_tstep_1)"/><circle class="simulation-point" cx="657.56" cy="337.6" r="3.5" stroke="rgb(132, 0, 0)" fill="#ffffff" clip-path="url(#simulation-graph-test_experiment_id_tstep_1)"/><circle class="simulation-point" cx="668.08" cy="337.6" r="3.5" stroke="rgb(132, 0, 0)" fill="#ffffff" clip-path="url(#simulation-graph-test_experiment_id_tstep_1)"/><circle class="simulation-point" cx="678.6" cy="337.6" r="3.5" stroke="rgb(132, 0, 0)" fill="#ffffff" clip-path="url(#simulation-graph-test_experiment_id_tstep_1)"/><circle class="simulation-point" cx="689.12" cy="337.6" r="3.5" stroke="rgb(132, 0, 0)" fill="#ffffff" clip-path="url(#simulation-graph-test_experiment_id_tstep_1)"/><circle class="simulation-point" cx="699.64" cy="337.6" r="3.5" stroke="rgb(132, 0, 0)" fill="#ffffff" clip-path="url(#simulation-graph-test_experiment_id_tstep_1)"/><circle class="simulation-point" cx="710.16" cy="337.6" r="3.5" stroke="rgb(132, 0, 0)" fill="#ffffff" clip-path="url(#simulation-graph-test_experiment_id_tstep_1)"/><circle class="simulation-point" cx="720.68" cy="337.6" r="3.5" stroke="rgb(132, 0, 0)" fill="#ffffff" clip-path="url(#simulation-graph-test_experiment_id_tstep_1)"/><circle class="simulation-point" cx="731.2" cy="337.6" r="3.5" stroke="rgb(132, 0, 0)" fill="#ffffff" clip-path="url(#simulation-graph-test_experiment_id_tstep_1)"/><circle class="simulation-point" cx="741.72" cy="337.6" r="3.5" stroke="rgb(132, 0, 0)" fill="#ffffff" clip-path="url(#simulation-graph-test_experiment_id_tstep_1)"/><circle class="simulation-point" cx="752.24" cy="337.6" r="3.5" stroke="rgb(132, 0, 0)" fill="#ffffff" clip-path="url(#simulation-graph-test_experiment_id_tstep_1)"/><circle class="simulation-point" cx="762.76" cy="337.6" r="3.5" stroke="rgb(132, 0, 0)" fill="#ffffff" clip-path="url(#simulation-graph-test_experiment_id_tstep_1)"/><circle class="simulation-point" cx="773.28" cy="337.6" r="3.5" stroke="rgb(132, 0, 0)" fill="#ffffff" clip-path="url(#simulation-graph-test_experiment_id_tstep_1)"/><circle class="simulation-point" cx="783.8" cy="337.6" r="3.5" stroke="rgb(132, 0, 0)" fill="#ffffff" clip-path="url(#simulation-graph-test_experiment_id_tstep_1)"/><circle class="simulation-point" cx="794.32" cy="337.6" r="3.5" stroke="rgb(132, 0, 0)" fill="#ffffff" clip-path="url(#simulation-graph-test_experiment_id_tstep_1)"/><circle class="simulation-point" cx="804.84" cy="337.6" r="3.5" stroke="rgb(132, 0, 0)" fill="#ffffff" clip-path="url(#simulation-graph-test_experiment_id_tstep_1)"/><circle class="simulation-point" cx="815.36" cy="337.6" r="3.5" stroke="rgb(132, 0, 0)" fill="#ffffff" clip-path="url(#simulation-graph-test_experiment_id_tstep_1)"/><circle class="simulation-point" cx="825.88" cy="337.6" r="3.5" stroke="rgb(132, 0, 0)" fill="#ffffff" clip-path="url(#simulation-graph-test_experiment_id_tstep_1)"/><circle class="simulation-point" cx="836.4" cy="337.6" r="3.5" stroke="rgb(132, 0, 0)" fill="#ffffff" clip-path="url(#simulation-graph-test_experiment_id_tstep_1)"/><circle class="simulation-point" cx="846.92" cy="337.6" r="3.5" stroke="rgb(132, 0, 0)" fill="#ffffff" clip-path="url(#simulation-graph-test_experiment_id_tstep_1)"/><circle class="simulation-point" cx="857.44" cy="337.6" r="3.5" stroke="rgb(132, 0, 0)" fill="#ffffff" clip-path="url(#simulation-graph-test_experiment_id_tstep_1)"/><circle class="simulation-point" cx="867.96" cy="337.6" r="3.5" stroke="rgb(132, 0, 0)" fill="#ffffff" clip-path="url(#simulation-graph-test_experiment_id_tstep_1)"/><circle class="simulation-point" cx="878.48" cy="337.6" r="3.5" stroke="rgb(132, 0, 0)" fill="#ffffff" clip-path="url(#simulation-graph-test_experiment_id_tstep_1)"/><circle class="simulation-point" cx="889" cy="337.6" r="3.5" stroke="rgb(132, 0, 0)" fill="#ffffff" clip-path="url(#simulation-graph-test_experiment_id_tstep_1)"/><circle class="simulation-point" cx="899.52" cy="337.6" r="3.5" stroke="rgb(132, 0, 0)" fill="#ffffff" clip-path="url(#simulation-graph-test_experiment_id_tstep_1)"/><circle class="simulation-point" cx="910.04" cy="337.6" r="3.5" stroke="rgb(132, 0, 0)" fill="#ffffff" clip-path="url(#simulation-graph-test_experiment_id_tstep_1)"/><circle class="simulation-point" cx="920.56" cy="337.6" r="3.5" stroke="rgb(132, 0, 0)" fill="#ffffff" clip-path="url(#simulation-graph-test_experiment_id_tstep_1)"/><circle class="simulation-point" cx="931.08" cy="337.6" r="3.5" stroke="rgb(132, 0, 0)" fill="#ffffff" clip-path="url(#simulation-graph-test_experiment_id_tstep_1)"/><circle class="simulation-point" cx="941.6" cy="337.6" r="3.5" stroke="rgb(132, 0, 0)" fill="#ffffff" clip-path="url(#simulation-graph-test_experiment_id_tstep_1)"/><circle class="simulation-point" cx="952.12" cy="337.6" r="3.5" stroke="rgb(132, 0, 0)" fill="#ffffff" clip-path="url(#simulation-graph-test_experiment_id_tstep_1)"/><circle class="simulation-point" cx="962.64" cy="337.6" r="3.5" stroke="rgb(132, 0, 0)" fill="#ffffff" clip-path="url(#simulation-graph-test_experiment_id_tstep_1)"/><circle class="simulation-point" cx="973.16" cy="337.6" r="3.5" stroke="rgb(132, 0, 0)" fill="#ffffff" clip-path="url(#simulation-graph-test_experiment_id_tstep_1)"/><circle class="simulation-point" cx="983.68" cy="337.6" r="3.5" stroke="rgb(132, 0, 0)" fill="#ffffff" clip-path="url(#simulation-graph-test_experiment_id_tstep_1)"/><circle class="simulation-point" cx="994.2" cy="337.6" r="3.5" stroke="rgb(132, 0, 0)" fill="#ffffff" clip-path="url(#simulation-graph-test_experiment_id_tstep_1)"/><circle class="simulation-point" cx="1004.72" cy="337.6" r="3.5" stroke="rgb(132, 0, 0)" fill="#ffffff" clip-path="url(#simulation-graph-test_experiment_id_tstep_1)"/><circle class="simulation-point" cx="1015.24" cy="337.6" r="3.5" stroke="rgb(132, 0, 0)" fill="#ffffff" clip-path="url(#simulation-graph-test_experiment_id_tstep_1)"/><circle class="simulation-point" cx="1025.76" cy="337.6" r="3.5" stroke="rgb(132, 0, 0)" fill="#ffffff" clip-path="url(#simulation-graph-test_experiment_id_tstep_1)"/><circle class="simulation-point" cx="1036.28" cy="337.6" r="3.5" stroke="rgb(132, 0, 0)" fill="#ffffff" clip-path="url(#simulation-graph-test_experiment_id_tstep_1)"/><circle class="simulation-point" cx="1046.8" cy="337.6" r="3.5" stroke="rgb(132, 0, 0)" fill="#ffffff" clip-path="url(#simulation-graph-test_experiment_id_tstep_1)"/><circle class="simulation-point" cx="1057.32" cy="337.6" r="3.5" stroke="rgb(132, 0, 0)" fill="#ffffff" clip-path="url(#simulation-graph-test_experiment_id_tstep_1)"/><circle class="simulation-point" cx="1067.84" cy="337.6" r="3.5" stroke="rgb(132, 0, 0)" fill="#ffffff" clip-path="url(#simulation-graph-test_experiment_id_tstep_1)"/><circle class="simulation-point" cx="1078.36" cy="337.6" r="3.5" stroke="rgb(132, 0, 0)" fill="#ffffff" clip-path="url(#simulation-graph-test_experiment_id_tstep_1)"/><circle class="simulation-point" cx="1088.88" cy="337.6" r="3.5" stroke="rgb(132, 0, 0)" fill="#ffffff" clip-path="url(#simulation-graph-test_experiment_id_tstep_1)"/><circle class="simulation-point" cx="1099.4" cy="337.6" r="3.5" stroke="rgb(132, 0, 0)" fill="#ffffff" clip-path="url(#simulation-graph-test_experiment_id_tstep_1)"/><circle class="simulation-point" cx="1109.92" cy="337.6" r="3.5" stroke="rgb(132, 0, 0)" fill="#ffffff" clip-path="url(#simulation-graph-test_experiment_id_tstep_1)"/><circle class="simulation-point" cx="1120.44" cy="337.6" r="3.5" stroke="rgb(132, 0, 0)" fill="#ffffff" clip-path="url(#simulation-graph-test_experiment_id_tstep_1)"/><circle class="simulation-point" cx="1130.96" cy="337.6" r="3.5" stroke="rgb(132, 0, 0)" fill="#ffffff" clip-path="url(#simulation-graph-test_experiment_id_tstep_1)"/><circle class="simulation-point" cx="1141.48" cy="337.6" r="3.5" stroke="rgb(132, 0, 0)" fill="#ffffff" clip-path="url(#simulation-graph-test_experiment_id_tstep_1)"/><circle class="simulation-point" cx="1152" cy="337.6" r="3.5" stroke="rgb(132, 0, 0)" fill="#ffffff" clip-path="url(#simulation-graph-test_experiment_id_tstep_1)"/><path class="simulation-line" d="M 100 428.8 L 110.52 426.453356 L 121.04 421.616431 L 131.56 414.577901 L 142.08 405.61929 L 152.6 395.01348 L 163.12 383.023083 L 173.64 369.898945 L 184.16 355.878868 L 194.68 341.186588 L 205.2 330.288193 L 215.72 314.227789 L 226.24 298.099876 L 236.76 282.069235 L 247.28 271.625955 L 257.8 255.36647 L 268.32 239.636236 L 278.84 224.538895 L 289.36 210.161899 L 299.88 202.519789 L 310.4 188.761177 L 320.92 175.945588 L 331.44 170.288605 L 341.96 158.347702 L 352.48 147.473925 L 363 137.671633 L 373.52 128.934258 L 384.04 127.444825 L 394.56 119.5979 L 405.08 112.80572 L 415.6 113.152909 L 426.12 107.161564 L 436.64 102.16905 L 447.16 98.128571 L 457.68 94.988475 L 468.2 92.69323 L 478.72 91.184337 L 489.24 95.987071 L 499.76 94.693234 L 510.28 94.070087 L 520.8 94.05942 L 531.32 94.602597 L 541.84 95.641167 L 552.36 97.117425 L 562.88 104.001652 L 573.4 105.081828 L 583.92 106.503051 L 594.44 108.218659 L 604.96 110.183574 L 615.48 112.354599 L 626 114.690651 L 636.52 117.152972 L 647.04 119.705279 L 657.56 126.84861 L 668.08 128.468836 L 678.6 130.148761 L 689.12 131.866168 L 699.64 133.600603 L 710.16 135.333407 L 720.68 137.047727 L 731.2 143.150157 L 741.72 143.810544 L 752.24 144.47212 L 762.76 145.128276 L 773.28 145.77309 L 783.8 146.401323 L 794.32 147.008397 L 804.84 147.590383 L 815.36 148.143976 L 825.88 148.666465 L 836.4 149.155705 L 846.92 149.610084 L 857.44 150.028486 L 867.96 154.853638 L 878.48 154.243314 L 889 153.653676 L 899.52 153.088528 L 910.04 152.551067 L 920.56 152.043913 L 931.08 151.569137 L 941.6 151.128293 L 952.12 150.722453 L 962.64 150.352242 L 973.16 150.017876 L 983.68 149.7192 L 994.2 149.455719 L 1004.72 149.226646 L 1015.24 149.030926 L 1025.76 153.422518 L 1036.28 152.320387 L 1046.8 151.304998 L 1057.32 150.377995 L 1067.84 149.539999 L 1078.36 148.790697 L 1088.88 148.128934 L 1099.4 147.552809 L 1109.92 147.059762 L 1120.44 146.646661 L 1130.96 146.309894 L 1141.48 146.045441 L 1152 145.848963" stroke="rgb(194, 194, 0)" clip-path="url(#simulation-graph-test_experiment_id_tstep_1)" data-simulation-transient-voltage-graph-id="simulation_graph_R1.pin1"/><circle class="simulation-point" cx="100" cy="428.8" r="3.5" stroke="rgb(194, 194, 0)" fill="#ffffff" clip-path="url(#simulation-graph-test_experiment_id_tstep_1)"/><circle class="simulation-point" cx="110.52" cy="426.453356" r="3.5" stroke="rgb(194, 194, 0)" fill="#ffffff" clip-path="url(#simulation-graph-test_experiment_id_tstep_1)"/><circle class="simulation-point" cx="121.04" cy="421.616431" r="3.5" stroke="rgb(194, 194, 0)" fill="#ffffff" clip-path="url(#simulation-graph-test_experiment_id_tstep_1)"/><circle class="simulation-point" cx="131.56" cy="414.577901" r="3.5" stroke="rgb(194, 194, 0)" fill="#ffffff" clip-path="url(#simulation-graph-test_experiment_id_tstep_1)"/><circle class="simulation-point" cx="142.08" cy="405.61929" r="3.5" stroke="rgb(194, 194, 0)" fill="#ffffff" clip-path="url(#simulation-graph-test_experiment_id_tstep_1)"/><circle class="simulation-point" cx="152.6" cy="395.01348" r="3.5" stroke="rgb(194, 194, 0)" fill="#ffffff" clip-path="url(#simulation-graph-test_experiment_id_tstep_1)"/><circle class="simulation-point" cx="163.12" cy="383.023083" r="3.5" stroke="rgb(194, 194, 0)" fill="#ffffff" clip-path="url(#simulation-graph-test_experiment_id_tstep_1)"/><circle class="simulation-point" cx="173.64" cy="369.898945" r="3.5" stroke="rgb(194, 194, 0)" fill="#ffffff" clip-path="url(#simulation-graph-test_experiment_id_tstep_1)"/><circle class="simulation-point" cx="184.16" cy="355.878868" r="3.5" stroke="rgb(194, 194, 0)" fill="#ffffff" clip-path="url(#simulation-graph-test_experiment_id_tstep_1)"/><circle class="simulation-point" cx="194.68" cy="341.186588" r="3.5" stroke="rgb(194, 194, 0)" fill="#ffffff" clip-path="url(#simulation-graph-test_experiment_id_tstep_1)"/><circle class="simulation-point" cx="205.2" cy="330.288193" r="3.5" stroke="rgb(194, 194, 0)" fill="#ffffff" clip-path="url(#simulation-graph-test_experiment_id_tstep_1)"/><circle class="simulation-point" cx="215.72" cy="314.227789" r="3.5" stroke="rgb(194, 194, 0)" fill="#ffffff" clip-path="url(#simulation-graph-test_experiment_id_tstep_1)"/><circle class="simulation-point" cx="226.24" cy="298.099876" r="3.5" stroke="rgb(194, 194, 0)" fill="#ffffff" clip-path="url(#simulation-graph-test_experiment_id_tstep_1)"/><circle class="simulation-point" cx="236.76" cy="282.069235" r="3.5" stroke="rgb(194, 194, 0)" fill="#ffffff" clip-path="url(#simulation-graph-test_experiment_id_tstep_1)"/><circle class="simulation-point" cx="247.28" cy="271.625955" r="3.5" stroke="rgb(194, 194, 0)" fill="#ffffff" clip-path="url(#simulation-graph-test_experiment_id_tstep_1)"/><circle class="simulation-point" cx="257.8" cy="255.36647" r="3.5" stroke="rgb(194, 194, 0)" fill="#ffffff" clip-path="url(#simulation-graph-test_experiment_id_tstep_1)"/><circle class="simulation-point" cx="268.32" cy="239.636236" r="3.5" stroke="rgb(194, 194, 0)" fill="#ffffff" clip-path="url(#simulation-graph-test_experiment_id_tstep_1)"/><circle class="simulation-point" cx="278.84" cy="224.538895" r="3.5" stroke="rgb(194, 194, 0)" fill="#ffffff" clip-path="url(#simulation-graph-test_experiment_id_tstep_1)"/><circle class="simulation-point" cx="289.36" cy="210.161899" r="3.5" stroke="rgb(194, 194, 0)" fill="#ffffff" clip-path="url(#simulation-graph-test_experiment_id_tstep_1)"/><circle class="simulation-point" cx="299.88" cy="202.519789" r="3.5" stroke="rgb(194, 194, 0)" fill="#ffffff" clip-path="url(#simulation-graph-test_experiment_id_tstep_1)"/><circle class="simulation-point" cx="310.4" cy="188.761177" r="3.5" stroke="rgb(194, 194, 0)" fill="#ffffff" clip-path="url(#simulation-graph-test_experiment_id_tstep_1)"/><circle class="simulation-point" cx="320.92" cy="175.945588" r="3.5" stroke="rgb(194, 194, 0)" fill="#ffffff" clip-path="url(#simulation-graph-test_experiment_id_tstep_1)"/><circle class="simulation-point" cx="331.44" cy="170.288605" r="3.5" stroke="rgb(194, 194, 0)" fill="#ffffff" clip-path="url(#simulation-graph-test_experiment_id_tstep_1)"/><circle class="simulation-point" cx="341.96" cy="158.347702" r="3.5" stroke="rgb(194, 194, 0)" fill="#ffffff" clip-path="url(#simulation-graph-test_experiment_id_tstep_1)"/><circle class="simulation-point" cx="352.48" cy="147.473925" r="3.5" stroke="rgb(194, 194, 0)" fill="#ffffff" clip-path="url(#simulation-graph-test_experiment_id_tstep_1)"/><circle class="simulation-point" cx="363" cy="137.671633" r="3.5" stroke="rgb(194, 194, 0)" fill="#ffffff" clip-path="url(#simulation-graph-test_experiment_id_tstep_1)"/><circle class="simulation-point" cx="373.52" cy="128.934258" r="3.5" stroke="rgb(194, 194, 0)" fill="#ffffff" clip-path="url(#simulation-graph-test_experiment_id_tstep_1)"/><circle class="simulation-point" cx="384.04" cy="127.444825" r="3.5" stroke="rgb(194, 194, 0)" fill="#ffffff" clip-path="url(#simulation-graph-test_experiment_id_tstep_1)"/><circle class="simulation-point" cx="394.56" cy="119.5979" r="3.5" stroke="rgb(194, 194, 0)" fill="#ffffff" clip-path="url(#simulation-graph-test_experiment_id_tstep_1)"/><circle class="simulation-point" cx="405.08" cy="112.80572" r="3.5" stroke="rgb(194, 194, 0)" fill="#ffffff" clip-path="url(#simulation-graph-test_experiment_id_tstep_1)"/><circle class="simulation-point" cx="415.6" cy="113.152909" r="3.5" stroke="rgb(194, 194, 0)" fill="#ffffff" clip-path="url(#simulation-graph-test_experiment_id_tstep_1)"/><circle class="simulation-point" cx="426.12" cy="107.161564" r="3.5" stroke="rgb(194, 194, 0)" fill="#ffffff" clip-path="url(#simulation-graph-test_experiment_id_tstep_1)"/><circle class="simulation-point" cx="436.64" cy="102.16905" r="3.5" stroke="rgb(194, 194, 0)" fill="#ffffff" clip-path="url(#simulation-graph-test_experiment_id_tstep_1)"/><circle class="simulation-point" cx="447.16" cy="98.128571" r="3.5" stroke="rgb(194, 194, 0)" fill="#ffffff" clip-path="url(#simulation-graph-test_experiment_id_tstep_1)"/><circle class="simulation-point" cx="457.68" cy="94.988475" r="3.5" stroke="rgb(194, 194, 0)" fill="#ffffff" clip-path="url(#simulation-graph-test_experiment_id_tstep_1)"/><circle class="simulation-point" cx="468.2" cy="92.69323" r="3.5" stroke="rgb(194, 194, 0)" fill="#ffffff" clip-path="url(#simulation-graph-test_experiment_id_tstep_1)"/><circle class="simulation-point" cx="478.72" cy="91.184337" r="3.5" stroke="rgb(194, 194, 0)" fill="#ffffff" clip-path="url(#simulation-graph-test_experiment_id_tstep_1)"/><circle class="simulation-point" cx="489.24" cy="95.987071" r="3.5" stroke="rgb(194, 194, 0)" fill="#ffffff" clip-path="url(#simulation-graph-test_experiment_id_tstep_1)"/><circle class="simulation-point" cx="499.76" cy="94.693234" r="3.5" stroke="rgb(194, 194, 0)" fill="#ffffff" clip-path="url(#simulation-graph-test_experiment_id_tstep_1)"/><circle class="simulation-point" cx="510.28" cy="94.070087" r="3.5" stroke="rgb(194, 194, 0)" fill="#ffffff" clip-path="url(#simulation-graph-test_experiment_id_tstep_1)"/><circle class="simulation-point" cx="520.8" cy="94.05942" r="3.5" stroke="rgb(194, 194, 0)" fill="#ffffff" clip-path="url(#simulation-graph-test_experiment_id_tstep_1)"/><circle class="simulation-point" cx="531.32" cy="94.602597" r="3.5" stroke="rgb(194, 194, 0)" fill="#ffffff" clip-path="url(#simulation-graph-test_experiment_id_tstep_1)"/><circle class="simulation-point" cx="541.84" cy="95.641167" r="3.5" stroke="rgb(194, 194, 0)" fill="#ffffff" clip-path="url(#simulation-graph-test_experiment_id_tstep_1)"/><circle class="simulation-point" cx="552.36" cy="97.117425" r="3.5" stroke="rgb(194, 194, 0)" fill="#ffffff" clip-path="url(#simulation-graph-test_experiment_id_tstep_1)"/><circle class="simulation-point" cx="562.88" cy="104.001652" r="3.5" stroke="rgb(194, 194, 0)" fill="#ffffff" clip-path="url(#simulation-graph-test_experiment_id_tstep_1)"/><circle class="simulation-point" cx="573.4" cy="105.081828" r="3.5" stroke="rgb(194, 194, 0)" fill="#ffffff" clip-path="url(#simulation-graph-test_experiment_id_tstep_1)"/><circle class="simulation-point" cx="583.92" cy="106.503051" r="3.5" stroke="rgb(194, 194, 0)" fill="#ffffff" clip-path="url(#simulation-graph-test_experiment_id_tstep_1)"/><circle class="simulation-point" cx="594.44" cy="108.218659" r="3.5" stroke="rgb(194, 194, 0)" fill="#ffffff" clip-path="url(#simulation-graph-test_experiment_id_tstep_1)"/><circle class="simulation-point" cx="604.96" cy="110.183574" r="3.5" stroke="rgb(194, 194, 0)" fill="#ffffff" clip-path="url(#simulation-graph-test_experiment_id_tstep_1)"/><circle class="simulation-point" cx="615.48" cy="112.354599" r="3.5" stroke="rgb(194, 194, 0)" fill="#ffffff" clip-path="url(#simulation-graph-test_experiment_id_tstep_1)"/><circle class="simulation-point" cx="626" cy="114.690651" r="3.5" stroke="rgb(194, 194, 0)" fill="#ffffff" clip-path="url(#simulation-graph-test_experiment_id_tstep_1)"/><circle class="simulation-point" cx="636.52" cy="117.152972" r="3.5" stroke="rgb(194, 194, 0)" fill="#ffffff" clip-path="url(#simulation-graph-test_experiment_id_tstep_1)"/><circle class="simulation-point" cx="647.04" cy="119.705279" r="3.5" stroke="rgb(194, 194, 0)" fill="#ffffff" clip-path="url(#simulation-graph-test_experiment_id_tstep_1)"/><circle class="simulation-point" cx="657.56" cy="126.84861" r="3.5" stroke="rgb(194, 194, 0)" fill="#ffffff" clip-path="url(#simulation-graph-test_experiment_id_tstep_1)"/><circle class="simulation-point" cx="668.08" cy="128.468836" r="3.5" stroke="rgb(194, 194, 0)" fill="#ffffff" clip-path="url(#simulation-graph-test_experiment_id_tstep_1)"/><circle class="simulation-point" cx="678.6" cy="130.148761" r="3.5" stroke="rgb(194, 194, 0)" fill="#ffffff" clip-path="url(#simulation-graph-test_experiment_id_tstep_1)"/><circle class="simulation-point" cx="689.12" cy="131.866168" r="3.5" stroke="rgb(194, 194, 0)" fill="#ffffff" clip-path="url(#simulation-graph-test_experiment_id_tstep_1)"/><circle class="simulation-point" cx="699.64" cy="133.600603" r="3.5" stroke="rgb(194, 194, 0)" fill="#ffffff" clip-path="url(#simulation-graph-test_experiment_id_tstep_1)"/><circle class="simulation-point" cx="710.16" cy="135.333407" r="3.5" stroke="rgb(194, 194, 0)" fill="#ffffff" clip-path="url(#simulation-graph-test_experiment_id_tstep_1)"/><circle class="simulation-point" cx="720.68" cy="137.047727" r="3.5" stroke="rgb(194, 194, 0)" fill="#ffffff" clip-path="url(#simulation-graph-test_experiment_id_tstep_1)"/><circle class="simulation-point" cx="731.2" cy="143.150157" r="3.5" stroke="rgb(194, 194, 0)" fill="#ffffff" clip-path="url(#simulation-graph-test_experiment_id_tstep_1)"/><circle class="simulation-point" cx="741.72" cy="143.810544" r="3.5" stroke="rgb(194, 194, 0)" fill="#ffffff" clip-path="url(#simulation-graph-test_experiment_id_tstep_1)"/><circle class="simulation-point" cx="752.24" cy="144.47212" r="3.5" stroke="rgb(194, 194, 0)" fill="#ffffff" clip-path="url(#simulation-graph-test_experiment_id_tstep_1)"/><circle class="simulation-point" cx="762.76" cy="145.128276" r="3.5" stroke="rgb(194, 194, 0)" fill="#ffffff" clip-path="url(#simulation-graph-test_experiment_id_tstep_1)"/><circle class="simulation-point" cx="773.28" cy="145.77309" r="3.5" stroke="rgb(194, 194, 0)" fill="#ffffff" clip-path="url(#simulation-graph-test_experiment_id_tstep_1)"/><circle class="simulation-point" cx="783.8" cy="146.401323" r="3.5" stroke="rgb(194, 194, 0)" fill="#ffffff" clip-path="url(#simulation-graph-test_experiment_id_tstep_1)"/><circle class="simulation-point" cx="794.32" cy="147.008397" r="3.5" stroke="rgb(194, 194, 0)" fill="#ffffff" clip-path="url(#simulation-graph-test_experiment_id_tstep_1)"/><circle class="simulation-point" cx="804.84" cy="147.590383" r="3.5" stroke="rgb(194, 194, 0)" fill="#ffffff" clip-path="url(#simulation-graph-test_experiment_id_tstep_1)"/><circle class="simulation-point" cx="815.36" cy="148.143976" r="3.5" stroke="rgb(194, 194, 0)" fill="#ffffff" clip-path="url(#simulation-graph-test_experiment_id_tstep_1)"/><circle class="simulation-point" cx="825.88" cy="148.666465" r="3.5" stroke="rgb(194, 194, 0)" fill="#ffffff" clip-path="url(#simulation-graph-test_experiment_id_tstep_1)"/><circle class="simulation-point" cx="836.4" cy="149.155705" r="3.5" stroke="rgb(194, 194, 0)" fill="#ffffff" clip-path="url(#simulation-graph-test_experiment_id_tstep_1)"/><circle class="simulation-point" cx="846.92" cy="149.610084" r="3.5" stroke="rgb(194, 194, 0)" fill="#ffffff" clip-path="url(#simulation-graph-test_experiment_id_tstep_1)"/><circle class="simulation-point" cx="857.44" cy="150.028486" r="3.5" stroke="rgb(194, 194, 0)" fill="#ffffff" clip-path="url(#simulation-graph-test_experiment_id_tstep_1)"/><circle class="simulation-point" cx="867.96" cy="154.853638" r="3.5" stroke="rgb(194, 194, 0)" fill="#ffffff" clip-path="url(#simulation-graph-test_experiment_id_tstep_1)"/><circle class="simulation-point" cx="878.48" cy="154.243314" r="3.5" stroke="rgb(194, 194, 0)" fill="#ffffff" clip-path="url(#simulation-graph-test_experiment_id_tstep_1)"/><circle class="simulation-point" cx="889" cy="153.653676" r="3.5" stroke="rgb(194, 194, 0)" fill="#ffffff" clip-path="url(#simulation-graph-test_experiment_id_tstep_1)"/><circle class="simulation-point" cx="899.52" cy="153.088528" r="3.5" stroke="rgb(194, 194, 0)" fill="#ffffff" clip-path="url(#simulation-graph-test_experiment_id_tstep_1)"/><circle class="simulation-point" cx="910.04" cy="152.551067" r="3.5" stroke="rgb(194, 194, 0)" fill="#ffffff" clip-path="url(#simulation-graph-test_experiment_id_tstep_1)"/><circle class="simulation-point" cx="920.56" cy="152.043913" r="3.5" stroke="rgb(194, 194, 0)" fill="#ffffff" clip-path="url(#simulation-graph-test_experiment_id_tstep_1)"/><circle class="simulation-point" cx="931.08" cy="151.569137" r="3.5" stroke="rgb(194, 194, 0)" fill="#ffffff" clip-path="url(#simulation-graph-test_experiment_id_tstep_1)"/><circle class="simulation-point" cx="941.6" cy="151.128293" r="3.5" stroke="rgb(194, 194, 0)" fill="#ffffff" clip-path="url(#simulation-graph-test_experiment_id_tstep_1)"/><circle class="simulation-point" cx="952.12" cy="150.722453" r="3.5" stroke="rgb(194, 194, 0)" fill="#ffffff" clip-path="url(#simulation-graph-test_experiment_id_tstep_1)"/><circle class="simulation-point" cx="962.64" cy="150.352242" r="3.5" stroke="rgb(194, 194, 0)" fill="#ffffff" clip-path="url(#simulation-graph-test_experiment_id_tstep_1)"/><circle class="simulation-point" cx="973.16" cy="150.017876" r="3.5" stroke="rgb(194, 194, 0)" fill="#ffffff" clip-path="url(#simulation-graph-test_experiment_id_tstep_1)"/><circle class="simulation-point" cx="983.68" cy="149.7192" r="3.5" stroke="rgb(194, 194, 0)" fill="#ffffff" clip-path="url(#simulation-graph-test_experiment_id_tstep_1)"/><circle class="simulation-point" cx="994.2" cy="149.455719" r="3.5" stroke="rgb(194, 194, 0)" fill="#ffffff" clip-path="url(#simulation-graph-test_experiment_id_tstep_1)"/><circle class="simulation-point" cx="1004.72" cy="149.226646" r="3.5" stroke="rgb(194, 194, 0)" fill="#ffffff" clip-path="url(#simulation-graph-test_experiment_id_tstep_1)"/><circle class="simulation-point" cx="1015.24" cy="149.030926" r="3.5" stroke="rgb(194, 194, 0)" fill="#ffffff" clip-path="url(#simulation-graph-test_experiment_id_tstep_1)"/><circle class="simulation-point" cx="1025.76" cy="153.422518" r="3.5" stroke="rgb(194, 194, 0)" fill="#ffffff" clip-path="url(#simulation-graph-test_experiment_id_tstep_1)"/><circle class="simulation-point" cx="1036.28" cy="152.320387" r="3.5" stroke="rgb(194, 194, 0)" fill="#ffffff" clip-path="url(#simulation-graph-test_experiment_id_tstep_1)"/><circle class="simulation-point" cx="1046.8" cy="151.304998" r="3.5" stroke="rgb(194, 194, 0)" fill="#ffffff" clip-path="url(#simulation-graph-test_experiment_id_tstep_1)"/><circle class="simulation-point" cx="1057.32" cy="150.377995" r="3.5" stroke="rgb(194, 194, 0)" fill="#ffffff" clip-path="url(#simulation-graph-test_experiment_id_tstep_1)"/><circle class="simulation-point" cx="1067.84" cy="149.539999" r="3.5" stroke="rgb(194, 194, 0)" fill="#ffffff" clip-path="url(#simulation-graph-test_experiment_id_tstep_1)"/><circle class="simulation-point" cx="1078.36" cy="148.790697" r="3.5" stroke="rgb(194, 194, 0)" fill="#ffffff" clip-path="url(#simulation-graph-test_experiment_id_tstep_1)"/><circle class="simulation-point" cx="1088.88" cy="148.128934" r="3.5" stroke="rgb(194, 194, 0)" fill="#ffffff" clip-path="url(#simulation-graph-test_experiment_id_tstep_1)"/><circle class="simulation-point" cx="1099.4" cy="147.552809" r="3.5" stroke="rgb(194, 194, 0)" fill="#ffffff" clip-path="url(#simulation-graph-test_experiment_id_tstep_1)"/><circle class="simulation-point" cx="1109.92" cy="147.059762" r="3.5" stroke="rgb(194, 194, 0)" fill="#ffffff" clip-path="url(#simulation-graph-test_experiment_id_tstep_1)"/><circle class="simulation-point" cx="1120.44" cy="146.646661" r="3.5" stroke="rgb(194, 194, 0)" fill="#ffffff" clip-path="url(#simulation-graph-test_experiment_id_tstep_1)"/><circle class="simulation-point" cx="1130.96" cy="146.309894" r="3.5" stroke="rgb(194, 194, 0)" fill="#ffffff" clip-path="url(#simulation-graph-test_experiment_id_tstep_1)"/><circle class="simulation-point" cx="1141.48" cy="146.045441" r="3.5" stroke="rgb(194, 194, 0)" fill="#ffffff" clip-path="url(#simulation-graph-test_experiment_id_tstep_1)"/><circle class="simulation-point" cx="1152" cy="145.848963" r="3.5" stroke="rgb(194, 194, 0)" fill="#ffffff" clip-path="url(#simulation-graph-test_experiment_id_tstep_1)"/></g><g class="axes"><line class="axis axis-x" x1="100" y1="520" x2="1152" y2="520"/><line class="axis axis-y" x1="100" y1="64" x2="100" y2="520"/><line class="axis-tick axis-tick-x" x1="100" y1="520" x2="100" y2="526"/><text class="axis-label axis-label-x" x="100" y="542" text-anchor="middle">0</text><line class="axis-tick axis-tick-x" x1="310.4" y1="520" x2="310.4" y2="526"/><text class="axis-label axis-label-x" x="310.4" y="542" text-anchor="middle">20</text><line class="axis-tick axis-tick-x" x1="520.8" y1="520" x2="520.8" y2="526"/><text class="axis-label axis-label-x" x="520.8" y="542" text-anchor="middle">40</text><line class="axis-tick axis-tick-x" x1="731.2" y1="520" x2="731.2" y2="526"/><text class="axis-label axis-label-x" x="731.2" y="542" text-anchor="middle">60</text><line class="axis-tick axis-tick-x" x1="941.6" y1="520" x2="941.6" y2="526"/><text class="axis-label axis-label-x" x="941.6" y="542" text-anchor="middle">80</text><line class="axis-tick axis-tick-x" x1="1152" y1="520" x2="1152" y2="526"/><text class="axis-label axis-label-x" x="1152" y="542" text-anchor="middle">100</text><line class="axis-tick axis-tick-y" x1="94" y1="520" x2="100" y2="520"/><text class="axis-label axis-label-y" x="90" y="520" text-anchor="end" dominant-baseline="middle">-5</text><line class="axis-tick axis-tick-y" x1="94" y1="428.8" x2="100" y2="428.8"/><text class="axis-label axis-label-y" x="90" y="428.8" text-anchor="end" dominant-baseline="middle">0</text><line class="axis-tick axis-tick-y" x1="94" y1="337.6" x2="100" y2="337.6"/><text class="axis-label axis-label-y" x="90" y="337.6" text-anchor="end" dominant-baseline="middle">5</text><line class="axis-tick axis-tick-y" x1="94" y1="246.4" x2="100" y2="246.4"/><text class="axis-label axis-label-y" x="90" y="246.4" text-anchor="end" dominant-baseline="middle">10</text><line class="axis-tick axis-tick-y" x1="94" y1="155.2" x2="100" y2="155.2"/><text class="axis-label axis-label-y" x="90" y="155.2" text-anchor="end" dominant-baseline="middle">15</text><line class="axis-tick axis-tick-y" x1="94" y1="64" x2="100" y2="64"/><text class="axis-label axis-label-y" x="90" y="64" text-anchor="end" dominant-baseline="middle">20</text><text class="axis-title axis-title-x" x="626" y="568" text-anchor="middle">Time (ms)</text><text class="axis-title axis-title-y" x="36" y="292" transform="rotate(-90 36 292)" text-anchor="middle">Voltage (V)</text></g><g class="legend"><g class="legend-item" transform="translate(100 36)"><line class="legend-line" x1="0" y1="0" x2="24" y2="0" stroke="rgb(132, 0, 0)"/><text class="legend-label" x="32" y="0" dominant-baseline="middle">V1.pin1</text></g><g class="legend-item" transform="translate(100 56)"><line class="legend-line" x1="0" y1="0" x2="24" y2="0" stroke="rgb(194, 194, 0)"/><text class="legend-label" x="32" y="0" dominant-baseline="middle">R1.pin1</text></g></g><text class="chart-title" x="600" y="24" text-anchor="middle">Timestep 0.001</text></svg>