<svg xmlns="http://www.w3.org/2000/svg" width="1200" height="600" viewBox="0 0 1200 600" data-simulation-experiment-id="test_experiment_id_tstep_1_no_tmax" data-simulation-experiment-name="Timestep 0.001, no tmax"><style>
:root { color-scheme: light; }
svg { font-family: 'Inter', 'Helvetica Neue', Arial, sans-serif; }
.background { fill: rgb(245, 241, 237); }
.plot-background { fill: #ffffff; }
.grid-line { stroke: rgba(0, 0, 0, 0.08); stroke-width: 1; }
.axis { stroke: rgba(0, 0, 0, 0.6); stroke-width: 1.5; }
.axis-tick { stroke: rgba(0, 0, 0, 0.6); stroke-width: 1; }
.axis-label { fill: rgba(0, 0, 0, 0.75); font-size: 12px; }
.axis-title { fill: rgba(0, 0, 0, 0.9); font-size: 14px; font-weight: 600; }
.legend-label { fill: rgba(0, 0, 0, 0.75); font-size: 13px; }
.legend-line { stroke-width: 3; }
.simulation-line { fill: none; stroke-width: 2.5; }
.simulation-point { stroke-width: 1.5; fill: #ffffff; }
.chart-title { fill: rgba(0, 0, 0, 0.85); font-size: 18px; font-weight: 600; }
</style><rect class="background" x="0" y="0" width="1200" height="600"/><defs><clipPath id="simulation-graph-test_experiment_id_tstep_1_no_tmax"><rect x="100" y="64" width="1052" height="456"/></clipPath></defs><rect class="plot-background" x="100" y="64" width="1052" height="456"/><g class="grid"><line class="grid-line grid-line-x" x1="100" y1="64" x2="100" y2="520"/><line class="grid-line grid-line-x" x1="310.4" y1="64" x2="310.4" y2="520"/><line class="grid-line grid-line-x" x1="520.8" y1="64" x2="520.8" y2="520"/><line class="grid-line grid-line-x" x1="731.2" y1="64" x2="731.2" y2="520"/><line class="grid-line grid-line-x" x1="941.6" y1="64" x2="941.6" y2="520"/><line class="grid-line grid-line-x" x1="1152" y1="64" x2="1152" y2="520"/><line class="grid-line grid-line-y" x1="100" y1="520" x2="1152" y2="520"/><line class="grid-line grid-line-y" x1="100" y1="428.8" x2="1152" y2="428.8"/><line class="grid-line grid-line-y" x1="100" y1="337.6" x2="1152" y2="337.6"/><line class="grid-line grid-line-y" x1="100" y1="246.4" x2="1152" y2="246.4"/><line class="grid-line grid-line-y" x1="100" y1="155.2" x2="1152" y2="155.2"/><line class="grid-line grid-line-y" x1="100" y1="64" x2="1152" y2="64"/></g><g class="data-series"><path class="simulation-line" d="M 100 517.72 L 110.52 517.72 L 121.04 517.72 L 131.56 517.72 L 142.08 517.72 L 152.6 517.72 L 163.12 517.72 L 173.64 517.72 L 184.16 517.72 L 194.68 517.72 L 205.2 517.72 L 215.72 517.72 L 226.24 517.72 L 236.76 517.72 L 247.28 517.72 L 257.8 517.72 L 268.32 517.72 L 278.84 517.72 L 289.36 517.72 L 299.88 517.72 L 310.4 517.72 L 320.92 517.72 L 331.44 517.72 L 341.96 517.72 L 352.48 517.72 L 363 517.72 L 373.52 517.72 L 384.04 517.72 L 394.56 517.72 L 405.08 517.72 L 415.6 517.72 L 426.12 517.72 L 436.64 517.72 L 447.16 517.72 L 457.68 517.72 L 468.2 517.72 L 478.72 517.72 L 489.24 517.72 L 499.76 517.72 L 510.28 517.72 L 520.8 517.72 L 531.32 517.72 L 541.84 517.72 L 552.36 517.72 L 562.88 517.72 L 573.4 517.72 L 583.92 517.72 L 594.44 517.72 L 604.96 517.72 L 615.48 517.72 L 626 517.72 L 636.52 517.72 L 647.04 517.72 L 657.56 517.72 L 668.08 517.72 L 678.6 517.72 L 689.12 517.72 L 699.64 517.72 L 710.16 517.72 L 720.68 517.72 L 731.2 517.72 L 741.72 517.72 L 752.24 517.72 L 762.76 517.72 L 773.28 517.72 L 783.8 517.72 L 794.32 517.72 L 804.84 517.72 L 815.36 517.72 L 825.88 517.72 L 836.4 517.72 L 846.92 517.72 L 857.44 517.72 L 867.96 517.72 L 878.48 517.72 L 889 517.72 L 899.52 517.72 L 910.04 517.72 L 920.56 517.72 L 931.08 517.72 L 941.6 517.72 L 952.12 517.72 L 962.64 517.72 L 973.16 517.72 L 983.68 517.72 L 994.2 517.72 L 1004.72 517.72 L 1015.24 517.72 L 1025.76 517.72 L 1036.28 517.72 L 1046.8 517.72 L 1057.32 517.72 L 1067.84 517.72 L 1078.36 517.72 L 1088.88 517.72 L 1099.4 517.72 L 1109.92 517.72 L 1120.44 517.72 L 1130.96 517.72 L 1141.48 517.72 L 1152 517.72" stroke="rgb(132, 0, 0)" clip-path="url(#simulation-graph-test_experiment_id_tstep_1_no_tmax)" data-simulation-transient-voltage-graph-id="simulation_graph_V1.pin1"/><circle class="simulation-point" cx="100" cy="517.72" r="3.5" stroke="rgb(132, 0, 0)" fill="#ffffff" clip-path="url(#simulation-graph-test_experiment_id_tstep_1_no_tmax)"/><circle class="simulation-point" cx="110.52" cy="517.72" r="3.5" stroke="rgb(132, 0, 0)" fill="#ffffff" clip-path="url(#simulation-graph-test_experiment_id_tstep_1_no_tmax)"/><circle class="simulation-point" cx="121.04" cy="517.72" r="3.5" stroke="rgb(132, 0, 0)" fill="#ffffff" clip-path="url(#simulation-graph-test_experiment_id_tstep_1_no_tmax)"/><circle class="simulation-point" cx="131.56" cy="517.72" r="3.5" stroke="rgb(132, 0, 0)" fill="#ffffff" clip-path="url(#simulation-graph-test_experiment_id_tstep_1_no_tmax)"/><circle class="simulation-point" cx="142.08" cy="517.72" r="3.5" stroke="rgb(132, 0, 0)" fill="#ffffff" clip-path="url(#simulation-graph-test_experiment_id_tstep_1_no_tmax)"/><circle class="simulation-point" cx="152.6" cy="517.72" r="3.5" stroke="rgb(132, 0, 0)" fill="#ffffff" clip-path="url(#simulation-graph-test_experiment_id_tstep_1_no_tmax)"/><circle class="simulation-point" cx="163.12" cy="517.72" r="3.5" stroke="rgb(132, 0, 0)" fill="#ffffff" clip-path="url(#simulation-graph-test_experiment_id_tstep_1_no_tmax)"/><circle class="simulation-point" cx="173.64" cy="517.72" r="3.5" stroke="rgb(132, 0, 0)" fill="#ffffff" clip-path="url(#simulation-graph-test_experiment_id_tstep_1_no_tmax)"/><circle class="simulation-point" cx="184.16" cy="517.72" r="3.5" stroke="rgb(132, 0, 0)" fill="#ffffff" clip-path="url(#simulation-graph-test_experiment_id_tstep_1_no_tmax)"/><circle class="simulation-point" cx="194.68" cy="517.72" r="3.5" stroke="rgb(132, 0, 0)" fill="#ffffff" clip-path="url(#simulation-graph-test_experiment_id_tstep_1_no_tmax)"/><circle class="simulation-point" cx="205.2" cy="517.72" r="3.5" stroke="rgb(132, 0, 0)" fill="#ffffff" clip-path="url(#simulation-graph-test_experiment_id_tstep_1_no_tmax)"/><circle class="simulation-point" cx="215.72" cy="517.72" r="3.5" stroke="rgb(132, 0, 0)" fill="#ffffff" clip-path="url(#simulation-graph-test_experiment_id_tstep_1_no_tmax)"/><circle class="simulation-point" cx="226.24" cy="517.72" r="3.5" stroke="rgb(132, 0, 0)" fill="#ffffff" clip-path="url(#simulation-graph-test_experiment_id_tstep_1_no_tmax)"/><circle class="simulation-point" cx="236.76" cy="517.72" r="3.5" stroke="rgb(132, 0, 0)" fill="#ffffff" clip-path="url(#simulation-graph-test_experiment_id_tstep_1_no_tmax)"/><circle class="simulation-point" cx="247.28" cy="517.72" r="3.5" stroke="rgb(132, 0, 0)" fill="#ffffff" clip-path="url(#simulation-graph-test_experiment_id_tstep_1_no_tmax)"/><circle class="simulation-point" cx="257.8" cy="517.72" r="3.5" stroke="rgb(132, 0, 0)" fill="#ffffff" clip-path="url(#simulation-graph-test_experiment_id_tstep_1_no_tmax)"/><circle class="simulation-point" cx="268.32" cy="517.72" r="3.5" stroke="rgb(132, 0, 0)" fill="#ffffff" clip-path="url(#simulation-graph-test_experiment_id_tstep_1_no_tmax)"/><circle class="simulation-point" cx="278.84" cy="517.72" r="3.5" stroke="rgb(132, 0, 0)" fill="#ffffff" clip-path="url(#simulation-graph-test_experiment_id_tstep_1_no_tmax)"/><circle class="simulation-point" cx="289.36" cy="517.72" r="3.5" stroke="rgb(132, 0, 0)" fill="#ffffff" clip-path="url(#simulation-graph-test_experiment_id_tstep_1_no_tmax)"/><circle class="simulation-point" cx="299.88" cy="517.72" r="3.5" stroke="rgb(132, 0, 0)" fill="#ffffff" clip-path="url(#simulation-graph-test_experiment_id_tstep_1_no_tmax)"/><circle class="simulation-point" cx="310.4" cy="517.72" r="3.5" stroke="rgb(132, 0, 0)" fill="#ffffff" clip-path="url(#simulation-graph-test_experiment_id_tstep_1_no_tmax)"/><circle class="simulation-point" cx="320.92" cy="517.72" r="3.5" stroke="rgb(132, 0, 0)" fill="#ffffff" clip-path="url(#simulation-graph-test_experiment_id_tstep_1_no_tmax)"/><circle class="simulation-point" cx="331.44" cy="517.72" r="3.5" stroke="rgb(132, 0, 0)" fill="#ffffff" clip-path="url(#simulation-graph-test_experiment_id_tstep_1_no_tmax)"/><circle class="simulation-point" cx="341.96" cy="517.72" r="3.5" stroke="rgb(132, 0, 0)" fill="#ffffff" clip-path="url(#simulation-graph-test_experiment_id_tstep_1_no_tmax)"/><circle class="simulation-point" cx="352.48" cy="517.72" r="3.5" stroke="rgb(132, 0, 0)" fill="#ffffff" clip-path="url(#simulation-graph-test_experiment_id_tstep_1_no_tmax)"/><circle class="simulation-point" cx="363" cy="517.72" r="3.5" stroke="rgb(132, 0, 0)" fill="#ffffff" clip-path="url(#simulation-graph-test_experiment_id_tstep_1_no_tmax)"/><circle class="simulation-point" cx="373.52" cy="517.72" r="3.5" stroke="rgb(132, 0, 0)" fill="#ffffff" clip-path="url(#simulation-graph-test_experiment_id_tstep_1_no_tmax)"/><circle class="simulation-point" cx="384.04" cy="517.72" r="3.5" stroke="rgb(132, 0, 0)" fill="#ffffff" clip-path="url(#simulation-graph-test_experiment_id_tstep_1_no_tmax)"/><circle class="simulation-point" cx="394.56" cy="517.72" r="3.5" stroke="rgb(132, 0, 0)" fill="#ffffff" clip-path="url(#simulation-graph-test_experiment_id_tstep_1_no_tmax)"/><circle class="simulation-point" cx="405.08" cy="517.72" r="3.5" stroke="rgb(132, 0, 0)" fill="#ffffff" clip-path="url(#simulation-graph-test_experiment_id_tstep_1_no_tmax)"/><circle class="simulation-point" cx="415.6" cy="517.72" r="3.5" stroke="rgb(132, 0, 0)" fill="#ffffff" clip-path="url(#simulation-graph-test_experiment_id_tstep_1_no_tmax)"/><circle class="simulation-point" cx="426.12" cy="517.72" r="3.5" stroke="rgb(132, 0, 0)" fill="#ffffff" clip-path="url(#simulation-graph-test_experiment_id_tstep_1_no_tmax)"/><circle class="simulation-point" cx="436.64" cy="517.72" r="3.5" stroke="rgb(132, 0, 0)" fill="#ffffff" clip-path="url(#simulation-graph-test_experiment_id_tstep_1_no_tmax)"/><circle class="simulation-point" cx="447.16" cy="517.72" r="3.5" stroke="rgb(132, 0, 0)" fill="#ffffff" clip-path="url(#simulation-graph-test_experiment_id_tstep_1_no_tmax)"/><circle class="simulation-point" cx="457.68" cy="517.72" r="3.5" stroke="rgb(132, 0, 0)" fill="#ffffff" clip-path="url(#simulation-graph-test_experiment_id_tstep_1_no_tmax)"/><circle class="simulation-point" cx="468.2" cy="517.72" r="3.5" stroke="rgb(132, 0, 0)" fill="#ffffff" clip-path="url(#simulation-graph-test_experiment_id_tstep_1_no_tmax)"/><circle class="simulation-point" cx="478.72" cy="517.72" r="3.5" stroke="rgb(132, 0, 0)" fill="#ffffff" clip-path="url(#simulation-graph-test_experiment_id_tstep_1_no_tmax)"/><circle class="simulation-point" cx="489.24" cy="517.72" r="3.5" stroke="rgb(132, 0, 0)" fill="#ffffff" clip-path="url(#simulation-graph-test_experiment_id_tstep_1_no_tmax)"/><circle class="simulation-point" cx="499.76" cy="517.72" r="3.5" stroke="rgb(132, 0, 0)" fill="#ffffff" clip-path="url(#simulation-graph-test_experiment_id_tstep_1_no_tmax)"/><circle class="simulation-point" cx="510.28" cy="517.72" r="3.5" stroke="rgb(132, 0, 0)" fill="#ffffff" clip-path="url(#simulation-graph-test_experiment_id_tstep_1_no_tmax)"/><circle class="simulation-point" cx="520.8" cy="517.72" r="3.5" stroke="rgb(132, 0, 0)" fill="#ffffff" clip-path="url(#simulation-graph-test_experiment_id_tstep_1_no_tmax)"/><circle class="simulation-point" cx="531.32" cy="517.72" r="3.5" stroke="rgb(132, 0, 0)" fill="#ffffff" clip-path="url(#simulation-graph-test_experiment_id_tstep_1_no_tmax)"/><circle class="simulation-point" cx="541.84" cy="517.72" r="3.5" stroke="rgb(132, 0, 0)" fill="#ffffff" clip-path="url(#simulation-graph-test_experiment_id_tstep_1_no_tmax)"/><circle class="simulation-point" cx="552.36" cy="517.72" r="3.5" stroke="rgb(132, 0, 0)" fill="#ffffff" clip-path="url(#simulation-graph-test_experiment_id_tstep_1_no_tmax)"/><circle class="simulation-point" cx="562.88" cy="517.72" r="3.5" stroke="rgb(132, 0, 0)" fill="#ffffff" clip-path="url(#simulation-graph-test_experiment_id_tstep_1_no_tmax)"/><circle class="simulation-point" cx="573.4" cy="517.72" r="3.5" stroke="rgb(132, 0, 0)" fill="#ffffff" clip-path="url(#simulation-graph-test_experiment_id_tstep_1_no_tmax)"/><circle class="simulation-point" cx="583.92" cy="517.72" r="3.5" stroke="rgb(132, 0, 0)" fill="#ffffff" clip-path="url(#simulation-graph-test_experiment_id_tstep_1_no_tmax)"/><circle class="simulation-point" cx="594.44" cy="517.72" r="3.5" stroke="rgb(132, 0, 0)" fill="#ffffff" clip-path="url(#simulation-graph-test_experiment_id_tstep_1_no_tmax)"/><circle class="simulation-point" cx="604.96" cy="517.72" r="3.5" stroke="rgb(132, 0, 0)" fill="#ffffff" clip-path="url(#simulation-graph-test_experiment_id_tstep_1_no_tmax)"/><circle class="simulation-point" cx="615.48" cy="517.72" r="3.5" stroke="rgb(132, 0, 0)" fill="#ffffff" clip-path="url(#simulation-graph-test_experiment_id_tstep_1_no_tmax)"/><circle class="simulation-point" cx="626" cy="517.72" r="3.5" stroke="rgb(132, 0, 0)" fill="#ffffff" clip-path="url(#simulation-graph-test_experiment_id_tstep_1_no_tmax)"/><circle class="simulation-point" cx="636.52" cy="517.72" r="3.5" stroke="rgb(132, 0, 0)" fill="#ffffff" clip-path="url(#simulation-graph-test_experiment_id_tstep_1_no_tmax)"/><circle class="simulation-point" cx="647.04" cy="517.72" r="3.5" stroke="rgb(132, 0, 0)" fill="#ffffff" clip-path="url(#simulation-graph-test_experiment_id_tstep_1_no_tmax)"/><circle class="simulation-point" cx="657.56" cy="517.72" r="3.5" stroke="rgb(132, 0, 0)" fill="#ffffff" clip-path="url(#simulation-graph-test_experiment_id_tstep_1_no_tmax)"/><circle class="simulation-point" cx="668.08" cy="517.72" r="3.5" stroke="rgb(132, 0, 0)" fill="#ffffff" clip-path="url(#simulation-graph-test_experiment_id_tstep_1_no_tmax)"/><circle class="simulation-point" cx="678.6" cy="517.72" r="3.5" stroke="rgb(132, 0, 0)" fill="#ffffff" clip-path="url(#simulation-graph-test_experiment_id_tstep_1_no_tmax)"/><circle class="simulation-point" cx="689.12" cy="517.72" r="3.5" stroke="rgb(132, 0, 0)" fill="#ffffff" clip-path="url(#simulation-graph-test_experiment_id_tstep_1_no_tmax)"/><circle class="simulation-point" cx="699.64" cy="517.72" r="3.5" stroke="rgb(132, 0, 0)" fill="#ffffff" clip-path="url(#simulation-graph-test_experiment_id_tstep_1_no_tmax)"/><circle class="simulation-point" cx="710.16" cy="517.72" r="3.5" stroke="rgb(132, 0, 0)" fill="#ffffff" clip-path="url(#simulation-graph-test_experiment_id_tstep_1_no_tmax)"/><circle class="simulation-point" cx="720.68" cy="517.72" r="3.5" stroke="rgb(132, 0, 0)" fill="#ffffff" clip-path="url(#simulation-graph-test_experiment_id_tstep_1_no_tmax)"/><circle class="simulation-point" cx="731.2" cy="517.72" r="3.5" stroke="rgb(132, 0, 0)" fill="#ffffff" clip-path="url(#simulation-graph-test_experiment_id_tstep_1_no_tmax)"/><circle class="simulation-point" cx="741.72" cy="517.72" r="3.5" stroke="rgb(132, 0, 0)" fill="#ffffff" clip-path="url(#simulation-graph-test_experiment_id_tstep_1_no_tmax)"/><circle class="simulation-point" cx="752.24" cy="517.72" r="3.5" stroke="rgb(132, 0, 0)" fill="#ffffff" clip-path="url(#simulation-graph-test_experiment_id_tstep_1_no_tmax)"/><circle class="simulation-point" cx="762.76" cy="517.72" r="3.5" stroke="rgb(132, 0, 0)" fill="#ffffff" clip-path="url(#simulation-graph-test_experiment_id_tstep_1_no_tmax)"/><circle class="simulation-point" cx="773.28" cy="517.72" r="3.5" stroke="rgb(132, 0, 0)" fill="#ffffff" clip-path="url(#simulation-graph-test_experiment_id_tstep_1_no_tmax)"/><circle class="simulation-point" cx="783.8" cy="517.72" r="3.5" stroke="rgb(132, 0, 0)" fill="#ffffff" clip-path="url(#simulation-graph-test_experiment_id_tstep_1_no_tmax)"/><circle class="simulation-point" cx="794.32" cy="517.72" r="3.5" stroke="rgb(132, 0, 0)" fill="#ffffff" clip-path="url(#simulation-graph-test_experiment_id_tstep_1_no_tmax)"/><circle class="simulation-point" cx="804.84" cy="517.72" r="3.5" stroke="rgb(132, 0, 0)" fill="#ffffff" clip-path="url(#simulation-graph-test_experiment_id_tstep_1_no_tmax)"/><circle class="simulation-point" cx="815.36" cy="517.72" r="3.5" stroke="rgb(132, 0, 0)" fill="#ffffff" clip-path="url(#simulation-graph-test_experiment_id_tstep_1_no_tmax)"/><circle class="simulation-point" cx="825.88" cy="517.72" r="3.5" stroke="rgb(132, 0, 0)" fill="#ffffff" clip-path="url(#simulation-graph-test_experiment_id_tstep_1_no_tmax)"/><circle class="simulation-point" cx="836.4" cy="517.72" r="3.5" stroke="rgb(132, 0, 0)" fill="#ffffff" clip-path="url(#simulation-graph-test_experiment_id_tstep_1_no_tmax)"/><circle class="simulation-point" cx="846.92" cy="517.72" r="3.5" stroke="rgb(132, 0, 0)" fill="#ffffff" clip-path="url(#simulation-graph-test_experiment_id_tstep_1_no_tmax)"/><circle class="simulation-point" cx="857.44" cy="517.72" r="3.5" stroke="rgb(132, 0, 0)" fill="#ffffff" clip-path="url(#simulation-graph-test_experiment_id_tstep_1_no_tmax)"/><circle class="simulation-point" cx="867.96" cy="517.72" r="3.5" stroke="rgb(132, 0, 0)" fill="#ffffff" clip-path="url(#simulation-graph-test_experiment_id_tstep_1_no_tmax)"/><circle class="simulation-point" cx="878.48" cy="517.72" r="3.5" stroke="rgb(132, 0, 0)" fill="#ffffff" clip-path="url(#simulation-graph-test_experiment_id_tstep_1_no_tmax)"/><circle class="simulation-point" cx="889" cy="517.72" r="3.5" stroke="rgb(132, 0, 0)" fill="#ffffff" clip-path="url(#simulation-graph-test_experiment_id_tstep_1_no_tmax)"/><circle class="simulation-point" cx="899.52" cy="517.72" r="3.5" stroke="rgb(132, 0, 0)" fill="#ffffff" clip-path="url(#simulation-graph-test_experiment_id_tstep_1_no_tmax)"/><circle class="simulation-point" cx="910.04" cy="517.72" r="3.5" stroke="rgb(132, 0, 0)" fill="#ffffff" clip-path="url(#simulation-graph-test_experiment_id_tstep_1_no_tmax)"/><circle class="simulation-point" cx="920.56" cy="517.72" r="3.5" stroke="rgb(132, 0, 0)" fill="#ffffff" clip-path="url(#simulation-graph-test_experiment_id_tstep_1_no_tmax)"/><circle class="simulation-point" cx="931.08" cy="517.72" r="3.5" stroke="rgb(132, 0, 0)" fill="#ffffff" clip-path="url(#simulation-graph-test_experiment_id_tstep_1_no_tmax)"/><circle class="simulation-point" cx="941.6" cy="517.72" r="3.5" stroke="rgb(132, 0, 0)" fill="#ffffff" clip-path="url(#simulation-graph-test_experiment_id_tstep_1_no_tmax)"/><circle class="simulation-point" cx="952.12" cy="517.72" r="3.5" stroke="rgb(132, 0, 0)" fill="#ffffff" clip-path="url(#simulation-graph-test_experiment_id_tstep_1_no_tmax)"/><circle class="simulation-point" cx="962.64" cy="517.72" r="3.5" stroke="rgb(132, 0, 0)" fill="#ffffff" clip-path="url(#simulation-graph-test_experiment_id_tstep_1_no_tmax)"/><circle class="simulation-point" cx="973.16" cy="517.72" r="3.5" stroke="rgb(132, 0, 0)" fill="#ffffff" clip-path="url(#simulation-graph-test_experiment_id_tstep_1_no_tmax)"/><circle class="simulation-point" cx="983.68" cy="517.72" r="3.5" stroke="rgb(132, 0, 0)" fill="#ffffff" clip-path="url(#simulation-graph-test_experiment_id_tstep_1_no_tmax)"/><circle class="simulation-point" cx="994.2" cy="517.72" r="3.5" stroke="rgb(132, 0, 0)" fill="#ffffff" clip-path="url(#simulation-graph-test_experiment_id_tstep_1_no_tmax)"/><circle class="simulation-point" cx="1004.72" cy="517.72" r="3.5" stroke="rgb(132, 0, 0)" fill="#ffffff" clip-path="url(#simulation-graph-test_experiment_id_tstep_1_no_tmax)"/><circle class="simulation-point" cx="1015.24" cy="517.72" r="3.5" stroke="rgb(132, 0, 0)" fill="#ffffff" clip-path="url(#simulation-graph-test_experiment_id_tstep_1_no_tmax)"/><circle class="simulation-point" cx="1025.76" cy="517.72" r="3.5" stroke="rgb(132, 0, 0)" fill="#ffffff" clip-path="url(#simulation-graph-test_experiment_id_tstep_1_no_tmax)"/><circle class="simulation-point" cx="1036.28" cy="517.72" r="3.5" stroke="rgb(132, 0, 0)" fill="#ffffff" clip-path="url(#simulation-graph-test_experiment_id_tstep_1_no_tmax)"/><circle class="simulation-point" cx="1046.8" cy="517.72" r="3.5" stroke="rgb(132, 0, 0)" fill="#ffffff" clip-path="url(#simulation-graph-test_experiment_id_tstep_1_no_tmax)"/><circle class="simulation-point" cx="1057.32" cy="517.72" r="3.5" stroke="rgb(132, 0, 0)" fill="#ffffff" clip-path="url(#simulation-graph-test_experiment_id_tstep_1_no_tmax)"/><circle class="simulation-point" cx="1067.84" cy="517.72" r="3.5" stroke="rgb(132, 0, 0)" fill="#ffffff" clip-path="url(#simulation-graph-test_experiment_id_tstep_1_no_tmax)"/><circle class="simulation-point" cx="1078.36" cy="517.72" r="3.5" stroke="rgb(132, 0, 0)" fill="#ffffff" clip-path="url(#simulation-graph-test_experiment_id_tstep_1_no_tmax)"/><circle class="simulation-point" cx="1088.88" cy="517.72" r="3.5" stroke="rgb(132, 0, 0)" fill="#ffffff" clip-path="url(#simulation-graph-test_experiment_id_tstep_1_no_tmax)"/><circle class="simulation-point" cx="1099.4" cy="517.72" r="3.5" stroke="rgb(132, 0, 0)" fill="#ffffff" clip-path="url(#simulation-graph-test_experiment_id_tstep_1_no_tmax)"/><circle class="simulation-point" cx="1109.92" cy="517.72" r="3.5" stroke="rgb(132, 0, 0)" fill="#ffffff" clip-path="url(#simulation-graph-test_experiment_id_tstep_1_no_tmax)"/><circle class="simulation-point" cx="1120.44" cy="517.72" r="3.5" stroke="rgb(132, 0, 0)" fill="#ffffff" clip-path="url(#simulation-graph-test_experiment_id_tstep_1_no_tmax)"/><circle class="simulation-point" cx="1130.96" cy="517.72" r="3.5" stroke="rgb(132, 0, 0)" fill="#ffffff" clip-path="url(#simulation-graph-test_experiment_id_tstep_1_no_tmax)"/><circle class="simulation-point" cx="1141.48" cy="517.72" r="3.5" stroke="rgb(132, 0, 0)" fill="#ffffff" clip-path="url(#simulation-graph-test_experiment_id_tstep_1_no_tmax)"/><circle class="simulation-point" cx="1152" cy="517.72" r="3.5" stroke="rgb(132, 0, 0)" fill="#ffffff" clip-path="url(#simulation-graph-test_experiment_id_tstep_1_no_tmax)"/><path class="simulation-line" d="M 100 518.035957 L 110.52 446.358682 L 121.04 382.325443 L 131.56 325.707251 L 142.08 276.34647 L 152.6 234.034202 L 163.12 198.509112 L 173.64 169.468034 L 184.16 146.576685 L 194.68 129.46943 L 205.2 126.296675 L 215.72 118.003661 L 226.24 114.376458 L 236.76 115.004399 L 247.28 125.315131 L 257.8 131.906343 L 268.32 141.602467 L 278.84 154.009961 L 289.36 168.748335 L 299.88 188.109396 L 310.4 205.56881 L 320.92 224.369639 L 331.44 245.422039 L 341.96 265.380111 L 352.48 285.853971 L 363 306.593532 L 373.52 326.99318 L 384.04 345.364008 L 394.56 361.99242 L 405.08 377.04416 L 415.6 390.652289 L 426.12 402.961544 L 436.64 414.098291 L 447.16 424.352848 L 457.68 433.456759 L 468.2 441.691035 L 478.72 449.141547 L 489.24 456.071095 L 499.76 462.154832 L 510.28 467.657316 L 520.8 472.63589 L 531.32 477.140377 L 541.84 481.215907 L 552.36 484.903757 L 562.88 488.239809 L 573.4 491.261495 L 583.92 493.991525 L 594.44 496.461123 L 604.96 498.695118 L 615.48 500.715822 L 626 502.543436 L 636.52 504.196408 L 647.04 505.690899 L 657.56 507.041824 L 668.08 508.262824 L 678.6 509.366197 L 689.12 510.362922 L 699.64 511.262933 L 710.16 512.074612 L 720.68 512.806302 L 731.2 513.46589 L 741.72 514.054816 L 752.24 514.57704 L 762.76 515.033872 L 773.28 515.427137 L 783.8 515.759104 L 794.32 516.032419 L 804.84 516.250048 L 815.36 516.415215 L 825.88 516.531345 L 836.4 516.602015 L 846.92 516.630903 L 857.44 516.621741 L 867.96 516.641475 L 878.48 516.55454 L 889 516.441432 L 899.52 516.305777 L 910.04 516.15107 L 920.56 515.980661 L 931.08 515.797729 L 941.6 515.605272 L 952.12 515.406094 L 962.64 515.202795 L 973.16 514.997767 L 983.68 514.793186 L 994.2 514.59102 L 1004.72 514.39302 L 1015.24 514.20073 L 1025.76 514.142203 L 1036.28 513.941428 L 1046.8 513.751061 L 1057.32 513.571972 L 1067.84 513.404838 L 1078.36 513.250151 L 1088.88 513.108236 L 1099.4 512.979261 L 1109.92 512.863249 L 1120.44 512.760098 L 1130.96 512.669584 L 1141.48 512.591385 L 1152 512.525086" stroke="rgb(194, 194, 0)" clip-path="url(#simulation-graph-test_experiment_id_tstep_1_no_tmax)" data-simulation-transient-voltage-graph-id="simulation_graph_R1.pin1"/><circle class="simulation-point" cx="100" cy="518.035957" r="3.5" stroke="rgb(194, 194, 0)" fill="#ffffff" clip-path="url(#simulation-graph-test_experiment_id_tstep_1_no_tmax)"/><circle class="simulation-point" cx="110.52" cy="446.358682" r="3.5" stroke="rgb(194, 194, 0)" fill="#ffffff" clip-path="url(#simulation-graph-test_experiment_id_tstep_1_no_tmax)"/><circle class="simulation-point" cx="121.04" cy="382.325443" r="3.5" stroke="rgb(194, 194, 0)" fill="#ffffff" clip-path="url(#simulation-graph-test_experiment_id_tstep_1_no_tmax)"/><circle class="simulation-point" cx="131.56" cy="325.707251" r="3.5" stroke="rgb(194, 194, 0)" fill="#ffffff" clip-path="url(#simulation-graph-test_experiment_id_tstep_1_no_tmax)"/><circle class="simulation-point" cx="142.08" cy="276.34647" r="3.5" stroke="rgb(194, 194, 0)" fill="#ffffff" clip-path="url(#simulation-graph-test_experiment_id_tstep_1_no_tmax)"/><circle class="simulation-point" cx="152.6" cy="234.034202" r="3.5" stroke="rgb(194, 194, 0)" fill="#ffffff" clip-path="url(#simulation-graph-test_experiment_id_tstep_1_no_tmax)"/><circle class="simulation-point" cx="163.12" cy="198.509112" r="3.5" stroke="rgb(194, 194, 0)" fill="#ffffff" clip-path="url(#simulation-graph-test_experiment_id_tstep_1_no_tmax)"/><circle class="simulation-point" cx="173.64" cy="169.468034" r="3.5" stroke="rgb(194, 194, 0)" fill="#ffffff" clip-path="url(#simulation-graph-test_experiment_id_tstep_1_no_tmax)"/><circle class="simulation-point" cx="184.16" cy="146.576685" r="3.5" stroke="rgb(194, 194, 0)" fill="#ffffff" clip-path="url(#simulation-graph-test_experiment_id_tstep_1_no_tmax)"/><circle class="simulation-point" cx="194.68" cy="129.46943" r="3.5" stroke="rgb(194, 194, 0)" fill="#ffffff" clip-path="url(#simulation-graph-test_experiment_id_tstep_1_no_tmax)"/><circle class="simulation-point" cx="205.2" cy="126.296675" r="3.5" stroke="rgb(194, 194, 0)" fill="#ffffff" clip-path="url(#simulation-graph-test_experiment_id_tstep_1_no_tmax)"/><circle class="simulation-point" cx="215.72" cy="118.003661" r="3.5" stroke="rgb(194, 194, 0)" fill="#ffffff" clip-path="url(#simulation-graph-test_experiment_id_tstep_1_no_tmax)"/><circle class="simulation-point" cx="226.24" cy="114.376458" r="3.5" stroke="rgb(194, 194, 0)" fill="#ffffff" clip-path="url(#simulation-graph-test_experiment_id_tstep_1_no_tmax)"/><circle class="simulation-point" cx="236.76" cy="115.004399" r="3.5" stroke="rgb(194, 194, 0)" fill="#ffffff" clip-path="url(#simulation-graph-test_experiment_id_tstep_1_no_tmax)"/><circle class="simulation-point" cx="247.28" cy="125.315131" r="3.5" stroke="rgb(194, 194, 0)" fill="#ffffff" clip-path="url(#simulation-graph-test_experiment_id_tstep_1_no_tmax)"/><circle class="simulation-point" cx="257.8" cy="131.906343" r="3.5" stroke="rgb(194, 194, 0)" fill="#ffffff" clip-path="url(#simulation-graph-test_experiment_id_tstep_1_no_tmax)"/><circle class="simulation-point" cx="268.32" cy="141.602467" r="3.5" stroke="rgb(194, 194, 0)" fill="#ffffff" clip-path="url(#simulation-graph-test_experiment_id_tstep_1_no_tmax)"/><circle class="simulation-point" cx="278.84" cy="154.009961" r="3.5" stroke="rgb(194, 194, 0)" fill="#ffffff" clip-path="url(#simulation-graph-test_experiment_id_tstep_1_no_tmax)"/><circle class="simulation-point" cx="289.36" cy="168.748335" r="3.5" stroke="rgb(194, 194, 0)" fill="#ffffff" clip-path="url(#simulation-graph-test_experiment_id_tstep_1_no_tmax)"/><circle class="simulation-point" cx="299.88" cy="188.109396" r="3.5" stroke="rgb(194, 194, 0)" fill="#ffffff" clip-path="url(#simulation-graph-test_experiment_id_tstep_1_no_tmax)"/><circle class="simulation-point" cx="310.4" cy="205.56881" r="3.5" stroke="rgb(194, 194, 0)" fill="#ffffff" clip-path="url(#simulation-graph-test_experiment_id_tstep_1_no_tmax)"/><circle class="simulation-point" cx="320.92" cy="224.369639" r="3.5" stroke="rgb(194, 194, 0)" fill="#ffffff" clip-path="url(#simulation-graph-test_experiment_id_tstep_1_no_tmax)"/><circle class="simulation-point" cx="331.44" cy="245.422039" r="3.5" stroke="rgb(194, 194, 0)" fill="#ffffff" clip-path="url(#simulation-graph-test_experiment_id_tstep_1_no_tmax)"/><circle class="simulation-point" cx="341.96" cy="265.380111" r="3.5" stroke="rgb(194, 194, 0)" fill="#ffffff" clip-path="url(#simulation-graph-test_experiment_id_tstep_1_no_tmax)"/><circle class="simulation-point" cx="352.48" cy="285.853971" r="3.5" stroke="rgb(194, 194, 0)" fill="#ffffff" clip-path="url(#simulation-graph-test_experiment_id_tstep_1_no_tmax)"/><circle class="simulation-point" cx="363" cy="306.593532" r="3.5" stroke="rgb(194, 194, 0)" fill="#ffffff" clip-path="url(#simulation-graph-test_experiment_id_tstep_1_no_tmax)"/><circle class="simulation-point" cx="373.52" cy="326.99318" r="3.5" stroke="rgb(194, 194, 0)" fill="#ffffff" clip-path="url(#simulation-graph-test_experiment_id_tstep_1_no_tmax)"/><circle class="simulation-point" cx="384.04" cy="345.364008" r="3.5" stroke="rgb(194, 194, 0)" fill="#ffffff" clip-path="url(#simulation-graph-test_experiment_id_tstep_1_no_tmax)"/><circle class="simulation-point" cx="394.56" cy="361.99242" r="3.5" stroke="rgb(194, 194, 0)" fill="#ffffff" clip-path="url(#simulation-graph-test_experiment_id_tstep_1_no_tmax)"/><circle class="simulation-point" cx="405.08" cy="377.04416" r="3.5" stroke="rgb(194, 194, 0)" fill="#ffffff" clip-path="url(#simulation-graph-test_experiment_id_tstep_1_no_tmax)"/><circle class="simulation-point" cx="415.6" cy="390.652289" r="3.5" stroke="rgb(194, 194, 0)" fill="#ffffff" clip-path="url(#simulation-graph-test_experiment_id_tstep_1_no_tmax)"/><circle class="simulation-point" cx="426.12" cy="402.961544" r="3.5" stroke="rgb(194, 194, 0)" fill="#ffffff" clip-path="url(#simulation-graph-test_experiment_id_tstep_1_no_tmax)"/><circle class="simulation-point" cx="436.64" cy="414.098291" r="3.5" stroke="rgb(194, 194, 0)" fill="#ffffff" clip-path="url(#simulation-graph-test_experiment_id_tstep_1_no_tmax)"/><circle class="simulation-point" cx="447.16" cy="424.352848" r="3.5" stroke="rgb(194, 194, 0)" fill="#ffffff" clip-path="url(#simulation-graph-test_experiment_id_tstep_1_no_tmax)"/><circle class="simulation-point" cx="457.68" cy="433.456759" r="3.5" stroke="rgb(194, 194, 0)" fill="#ffffff" clip-path="url(#simulation-graph-test_experiment_id_tstep_1_no_tmax)"/><circle class="simulation-point" cx="468.2" cy="441.691035" r="3.5" stroke="rgb(194, 194, 0)" fill="#ffffff" clip-path="url(#simulation-graph-test_experiment_id_tstep_1_no_tmax)"/><circle class="simulation-point" cx="478.72" cy="449.141547" r="3.5" stroke="rgb(194, 194, 0)" fill="#ffffff" clip-path="url(#simulation-graph-test_experiment_id_tstep_1_no_tmax)"/><circle class="simulation-point" cx="489.24" cy="456.071095" r="3.5" stroke="rgb(194, 194, 0)" fill="#ffffff" clip-path="url(#simulation-graph-test_experiment_id_tstep_1_no_tmax)"/><circle class="simulation-point" cx="499.76" cy="462.154832" r="3.5" stroke="rgb(194, 194, 0)" fill="#ffffff" clip-path="url(#simulation-graph-test_experiment_id_tstep_1_no_tmax)"/><circle class="simulation-point" cx="510.28" cy="467.657316" r="3.5" stroke="rgb(194, 194, 0)" fill="#ffffff" clip-path="url(#simulation-graph-test_experiment_id_tstep_1_no_tmax)"/><circle class="simulation-point" cx="520.8" cy="472.63589" r="3.5" stroke="rgb(194, 194, 0)" fill="#ffffff" clip-path="url(#simulation-graph-test_experiment_id_tstep_1_no_tmax)"/><circle class="simulation-point" cx="531.32" cy="477.140377" r="3.5" stroke="rgb(194, 194, 0)" fill="#ffffff" clip-path="url(#simulation-graph-test_experiment_id_tstep_1_no_tmax)"/><circle class="simulation-point" cx="541.84" cy="481.215907" r="3.5" stroke="rgb(194, 194, 0)" fill="#ffffff" clip-path="url(#simulation-graph-test_experiment_id_tstep_1_no_tmax)"/><circle class="simulation-point" cx="552.36" cy="484.903757" r="3.5" stroke="rgb(194, 194, 0)" fill="#ffffff" clip-path="url(#simulation-graph-test_experiment_id_tstep_1_no_tmax)"/><circle class="simulation-point" cx="562.88" cy="488.239809" r="3.5" stroke="rgb(194, 194, 0)" fill="#ffffff" clip-path="url(#simulation-graph-test_experiment_id_tstep_1_no_tmax)"/><circle class="simulation-point" cx="573.4" cy="491.261495" r="3.5" stroke="rgb(194, 194, 0)" fill="#ffffff" clip-path="url(#simulation-graph-test_experiment_id_tstep_1_no_tmax)"/><circle class="simulation-point" cx="583.92" cy="493.991525" r="3.5" stroke="rgb(194, 194, 0)" fill="#ffffff" clip-path="url(#simulation-graph-test_experiment_id_tstep_1_no_tmax)"/><circle class="simulation-point" cx="594.44" cy="496.461123" r="3.5" stroke="rgb(194, 194, 0)" fill="#ffffff" clip-path="url(#simulation-graph-test_experiment_id_tstep_1_no_tmax)"/><circle class="simulation-point" cx="604.96" cy="498.695118" r="3.5" stroke="rgb(194, 194, 0)" fill="#ffffff" clip-path="url(#simulation-graph-test_experiment_id_tstep_1_no_tmax)"/><circle class="simulation-point" cx="615.48" cy="500.715822" r="3.5" stroke="rgb(194, 194, 0)" fill="#ffffff" clip-path="url(#simulation-graph-test_experiment_id_tstep_1_no_tmax)"/><circle class="simulation-point" cx="626" cy="502.543436" r="3.5" stroke="rgb(194, 194, 0)" fill="#ffffff" clip-path="url(#simulation-graph-test_experiment_id_tstep_1_no_tmax)"/><circle class="simulation-point" cx="636.52" cy="504.196408" r="3.5" stroke="rgb(194, 194, 0)" fill="#ffffff" clip-path="url(#simulation-graph-test_experiment_id_tstep_1_no_tmax)"/><circle class="simulation-point" cx="647.04" cy="505.690899" r="3.5" stroke="rgb(194, 194, 0)" fill="#ffffff" clip-path="url(#simulation-graph-test_experiment_id_tstep_1_no_tmax)"/><circle class="simulation-point" cx="657.56" cy="507.041824" r="3.5" stroke="rgb(194, 194, 0)" fill="#ffffff" clip-path="url(#simulation-graph-test_experiment_id_tstep_1_no_tmax)"/><circle class="simulation-point" cx="668.08" cy="508.262824" r="3.5" stroke="rgb(194, 194, 0)" fill="#ffffff" clip-path="url(#simulation-graph-test_experiment_id_tstep_1_no_tmax)"/><circle class="simulation-point" cx="678.6" cy="509.366197" r="3.5" stroke="rgb(194, 194, 0)" fill="#ffffff" clip-path="url(#simulation-graph-test_experiment_id_tstep_1_no_tmax)"/><circle class="simulation-point" cx="689.12" cy="510.362922" r="3.5" stroke="rgb(194, 194, 0)" fill="#ffffff" clip-path="url(#simulation-graph-test_experiment_id_tstep_1_no_tmax)"/><circle class="simulation-point" cx="699.64" cy="511.262933" r="3.5" stroke="rgb(194, 194, 0)" fill="#ffffff" clip-path="url(#simulation-graph-test_experiment_id_tstep_1_no_tmax)"/><circle class="simulation-point" cx="710.16" cy="512.074612" r="3.5" stroke="rgb(194, 194, 0)" fill="#ffffff" clip-path="url(#simulation-graph-test_experiment_id_tstep_1_no_tmax)"/><circle class="simulation-point" cx="720.68" cy="512.806302" r="3.5" stroke="rgb(194, 194, 0)" fill="#ffffff" clip-path="url(#simulation-graph-test_experiment_id_tstep_1_no_tmax)"/><circle class="simulation-point" cx="731.2" cy="513.46589" r="3.5" stroke="rgb(194, 194, 0)" fill="#ffffff" clip-path="url(#simulation-graph-test_experiment_id_tstep_1_no_tmax)"/><circle class="simulation-point" cx="741.72" cy="514.054816" r="3.5" stroke="rgb(194, 194, 0)" fill="#ffffff" clip-path="url(#simulation-graph-test_experiment_id_tstep_1_no_tmax)"/><circle class="simulation-point" cx="752.24" cy="514.57704" r="3.5" stroke="rgb(194, 194, 0)" fill="#ffffff" clip-path="url(#simulation-graph-test_experiment_id_tstep_1_no_tmax)"/><circle class="simulation-point" cx="762.76" cy="515.033872" r="3.5" stroke="rgb(194, 194, 0)" fill="#ffffff" clip-path="url(#simulation-graph-test_experiment_id_tstep_1_no_tmax)"/><circle class="simulation-point" cx="773.28" cy="515.427137" r="3.5" stroke="rgb(194, 194, 0)" fill="#ffffff" clip-path="url(#simulation-graph-test_experiment_id_tstep_1_no_tmax)"/><circle class="simulation-point" cx="783.8" cy="515.759104" r="3.5" stroke="rgb(194, 194, 0)" fill="#ffffff" clip-path="url(#simulation-graph-test_experiment_id_tstep_1_no_tmax)"/><circle class="simulation-point" cx="794.32" cy="516.032419" r="3.5" stroke="rgb(194, 194, 0)" fill="#ffffff" clip-path="url(#simulation-graph-test_experiment_id_tstep_1_no_tmax)"/><circle class="simulation-point" cx="804.84" cy="516.250048" r="3.5" stroke="rgb(194, 194, 0)" fill="#ffffff" clip-path="url(#simulation-graph-test_experiment_id_tstep_1_no_tmax)"/><circle class="simulation-point" cx="815.36" cy="516.415215" r="3.5" stroke="rgb(194, 194, 0)" fill="#ffffff" clip-path="url(#simulation-graph-test_experiment_id_tstep_1_no_tmax)"/><circle class="simulation-point" cx="825.88" cy="516.531345" r="3.5" stroke="rgb(194, 194, 0)" fill="#ffffff" clip-path="url(#simulation-graph-test_experiment_id_tstep_1_no_tmax)"/><circle class="simulation-point" cx="836.4" cy="516.602015" r="3.5" stroke="rgb(194, 194, 0)" fill="#ffffff" clip-path="url(#simulation-graph-test_experiment_id_tstep_1_no_tmax)"/><circle class="simulation-point" cx="846.92" cy="516.630903" r="3.5" stroke="rgb(194, 194, 0)" fill="#ffffff" clip-path="url(#simulation-graph-test_experiment_id_tstep_1_no_tmax)"/><circle class="simulation-point" cx="857.44" cy="516.621741" r="3.5" stroke="rgb(194, 194, 0)" fill="#ffffff" clip-path="url(#simulation-graph-test_experiment_id_tstep_1_no_tmax)"/><circle class="simulation-point" cx="867.96" cy="516.641475" r="3.5" stroke="rgb(194, 194, 0)" fill="#ffffff" clip-path="url(#simulation-graph-test_experiment_id_tstep_1_no_tmax)"/><circle class="simulation-point" cx="878.48" cy="516.55454" r="3.5" stroke="rgb(194, 194, 0)" fill="#ffffff" clip-path="url(#simulation-graph-test_experiment_id_tstep_1_no_tmax)"/><circle class="simulation-point" cx="889" cy="516.441432" r="3.5" stroke="rgb(194, 194, 0)" fill="#ffffff" clip-path="url(#simulation-graph-test_experiment_id_tstep_1_no_tmax)"/><circle class="simulation-point" cx="899.52" cy="516.305777" r="3.5" stroke="rgb(194, 194, 0)" fill="#ffffff" clip-path="url(#simulation-graph-test_experiment_id_tstep_1_no_tmax)"/><circle class="simulation-point" cx="910.04" cy="516.15107" r="3.5" stroke="rgb(194, 194, 0)" fill="#ffffff" clip-path="url(#simulation-graph-test_experiment_id_tstep_1_no_tmax)"/><circle class="simulation-point" cx="920.56" cy="515.980661" r="3.5" stroke="rgb(194, 194, 0)" fill="#ffffff" clip-path="url(#simulation-graph-test_experiment_id_tstep_1_no_tmax)"/><circle class="simulation-point" cx="931.08" cy="515.797729" r="3.5" stroke="rgb(194, 194, 0)" fill="#ffffff" clip-path="url(#simulation-graph-test_experiment_id_tstep_1_no_tmax)"/><circle class="simulation-point" cx="941.6" cy="515.605272" r="3.5" stroke="rgb(194, 194, 0)" fill="#ffffff" clip-path="url(#simulation-graph-test_experiment_id_tstep_1_no_tmax)"/><circle class="simulation-point" cx="952.12" cy="515.406094" r="3.5" stroke="rgb(194, 194, 0)" fill="#ffffff" clip-path="url(#simulation-graph-test_experiment_id_tstep_1_no_tmax)"/><circle class="simulation-point" cx="962.64" cy="515.202795" r="3.5" stroke="rgb(194, 194, 0)" fill="#ffffff" clip-path="url(#simulation-graph-test_experiment_id_tstep_1_no_tmax)"/><circle class="simulation-point" cx="973.16" cy="514.997767" r="3.5" stroke="rgb(194, 194, 0)" fill="#ffffff" clip-path="url(#simulation-graph-test_experiment_id_tstep_1_no_tmax)"/><circle class="simulation-point" cx="983.68" cy="514.793186" r="3.5" stroke="rgb(194, 194, 0)" fill="#ffffff" clip-path="url(#simulation-graph-test_experiment_id_tstep_1_no_tmax)"/><circle class="simulation-point" cx="994.2" cy="514.59102" r="3.5" stroke="rgb(194, 194, 0)" fill="#ffffff" clip-path="url(#simulation-graph-test_experiment_id_tstep_1_no_tmax)"/><circle class="simulation-point" cx="1004.72" cy="514.39302" r="3.5" stroke="rgb(194, 194, 0)" fill="#ffffff" clip-path="url(#simulation-graph-test_experiment_id_tstep_1_no_tmax)"/><circle class="simulation-point" cx="1015.24" cy="514.20073" r="3.5" stroke="rgb(194, 194, 0)" fill="#ffffff" clip-path="url(#simulation-graph-test_experiment_id_tstep_1_no_tmax)"/><circle class="simulation-point" cx="1025.76" cy="514.142203" r="3.5" stroke="rgb(194, 194, 0)" fill="#ffffff" clip-path="url(#simulation-graph-test_experiment_id_tstep_1_no_tmax)"/><circle class="simulation-point" cx="1036.28" cy="513.941428" r="3.5" stroke="rgb(194, 194, 0)" fill="#ffffff" clip-path="url(#simulation-graph-test_experiment_id_tstep_1_no_tmax)"/><circle class="simulation-point" cx="1046.8" cy="513.751061" r="3.5" stroke="rgb(194, 194, 0)" fill="#ffffff" clip-path="url(#simulation-graph-test_experiment_id_tstep_1_no_tmax)"/><circle class="simulation-point" cx="1057.32" cy="513.571972" r="3.5" stroke="rgb(194, 194, 0)" fill="#ffffff" clip-path="url(#simulation-graph-test_experiment_id_tstep_1_no_tmax)"/><circle class="simulation-point" cx="1067.84" cy="513.404838" r="3.5" stroke="rgb(194, 194, 0)" fill="#ffffff" clip-path="url(#simulation-graph-test_experiment_id_tstep_1_no_tmax)"/><circle class="simulation-point" cx="1078.36" cy="513.250151" r="3.5" stroke="rgb(194, 194, 0)" fill="#ffffff" clip-path="url(#simulation-graph-test_experiment_id_tstep_1_no_tmax)"/><circle class="simulation-point" cx="1088.88" cy="513.108236" r="3.5" stroke="rgb(194, 194, 0)" fill="#ffffff" clip-path="url(#simulation-graph-test_experiment_id_tstep_1_no_tmax)"/><circle class="simulation-point" cx="1099.4" cy="512.979261" r="3.5" stroke="rgb(194, 194, 0)" fill="#ffffff" clip-path="url(#simulation-graph-test_experiment_id_tstep_1_no_tmax)"/><circle class="simulation-point" cx="1109.92" cy="512.863249" r="3.5" stroke="rgb(194, 194, 0)" fill="#ffffff" clip-path="url(#simulation-graph-test_experiment_id_tstep_1_no_tmax)"/><circle class="simulation-point" cx="1120.44" cy="512.760098" r="3.5" stroke="rgb(194, 194, 0)" fill="#ffffff" clip-path="url(#simulation-graph-test_experiment_id_tstep_1_no_tmax)"/><circle class="simulation-point" cx="1130.96" cy="512.669584" r="3.5" stroke="rgb(194, 194, 0)" fill="#ffffff" clip-path="url(#simulation-graph-test_experiment_id_tstep_1_no_tmax)"/><circle class="simulation-point" cx="1141.48" cy="512.591385" r="3.5" stroke="rgb(194, 194, 0)" fill="#ffffff" clip-path="url(#simulation-graph-test_experiment_id_tstep_1_no_tmax)"/><circle class="simulation-point" cx="1152" cy="512.525086" r="3.5" stroke="rgb(194, 194, 0)" fill="#ffffff" clip-path="url(#simulation-graph-test_experiment_id_tstep_1_no_tmax)"/></g><g class="axes"><line class="axis axis-x" x1="100" y1="520" x2="1152" y2="520"/><line class="axis axis-y" x1="100" y1="64" x2="100" y2="520"/><line class="axis-tick axis-tick-x" x1="100" y1="520" x2="100" y2="526"/><text class="axis-label axis-label-x" x="100" y="542" text-anchor="middle">0</text><line class="axis-tick axis-tick-x" x1="310.4" y1="520" x2="310.4" y2="526"/><text class="axis-label axis-label-x" x="310.4" y="542" text-anchor="middle">20</text><line class="axis-tick axis-tick-x" x1="520.8" y1="520" x2="520.8" y2="526"/><text class="axis-label axis-label-x" x="520.8" y="542" text-anchor="middle">40</text><line class="axis-tick axis-tick-x" x1="731.2" y1="520" x2="731.2" y2="526"/><text class="axis-label axis-label-x" x="731.2" y="542" text-anchor="middle">60</text><line class="axis-tick axis-tick-x" x1="941.6" y1="520" x2="941.6" y2="526"/><text class="axis-label axis-label-x" x="941.6" y="542" text-anchor="middle">80</text><line class="axis-tick axis-tick-x" x1="1152" y1="520" x2="1152" y2="526"/><text class="axis-label axis-label-x" x="1152" y="542" text-anchor="middle">100</text><line class="axis-tick axis-tick-y" x1="94" y1="520" x2="100" y2="520"/><text class="axis-label axis-label-y" x="90" y="520" text-anchor="end" dominant-baseline="middle">0</text><line class="axis-tick axis-tick-y" x1="94" y1="428.8" x2="100" y2="428.8"/><text class="axis-label axis-label-y" x="90" y="428.8" text-anchor="end" dominant-baseline="middle">200</text><line class="axis-tick axis-tick-y" x1="94" y1="337.6" x2="100" y2="337.6"/><text class="axis-label axis-label-y" x="90" y="337.6" text-anchor="end" dominant-baseline="middle">400</text><line class="axis-tick axis-tick-y" x1="94" y1="246.4" x2="100" y2="246.4"/><text class="axis-label axis-label-y" x="90" y="246.4" text-anchor="end" dominant-baseline="middle">600</text><line class="axis-tick axis-tick-y" x1="94" y1="155.2" x2="100" y2="155.2"/><text class="axis-label axis-label-y" x="90" y="155.2" text-anchor="end" dominant-baseline="middle">800</text><line class="axis-tick axis-tick-y" x1="94" y1="64" x2="100" y2="64"/><text class="axis-label axis-label-y" x="90" y="64" text-anchor="end" dominant-baseline="middle">1000</text><text class="axis-title axis-title-x" x="626" y="568" text-anchor="middle">Time (ms)</text><text class="axis-title axis-title-y" x="36" y="292" transform="rotate(-90 36 292)" text-anchor="middle">Voltage (V)</text></g><g class="legend"><g class="legend-item" transform="translate(100 36)"><line class="legend-line" x1="0" y1="0" x2="24" y2="0" stroke="rgb(132, 0, 0)"/><text class="legend-label" x="32" y="0" dominant-baseline="middle">V1.pin1</text></g><g class="legend-item" transform="translate(100 56)"><line class="legend-line" x1="0" y1="0" x2="24" y2="0" stroke="rgb(194, 194, 0)"/><text class="legend-label" x="32" y="0" dominant-baseline="middle">R1.pin1</text></g></g><text class="chart-title" x="600" y="24" text-anchor="middle">Timestep 0.001, no tmax</text></svg>