<svg xmlns="http://www.w3.org/2000/svg" width="1200" height="600" viewBox="0 0 1200 600" data-simulation-experiment-id="test_experiment_id_tstep_1_no_tmax" data-simulation-experiment-name="Timestep 0.001, no tmax"><style>
:root { color-scheme: light; }
svg { font-family: 'Inter', 'Helvetica Neue', Arial, sans-serif; }
.background { fill: rgb(245, 241, 237); }
.plot-background { fill: #ffffff; }
.grid-line { stroke: rgba(0, 0, 0, 0.08); stroke-width: 1; }
.axis { stroke: rgba(0, 0, 0, 0.6); stroke-width: 1.5; }
.axis-tick { stroke: rgba(0, 0, 0, 0.6); stroke-width: 1; }
.axis-label { fill: rgba(0, 0, 0, 0.75); font-size: 12px; }
.axis-title { fill: rgba(0, 0, 0, 0.9); font-size: 14px; font-weight: 600; }
.legend-label { fill: rgba(0, 0, 0, 0.75); font-size: 13px; }
.legend-line { stroke-width: 3; }
.simulation-line { fill: none; stroke-width: 2.5; }
.simulation-point { stroke-width: 1.5; fill: #ffffff; }
.chart-title { fill: rgba(0, 0, 0, 0.85); font-size: 18px; font-weight: 600; }
</style><rect class="background" x="0" y="0" width="1200" height="600"/><defs><clipPath id="simulation-graph-test_experiment_id_tstep_1_no_tmax"><rect x="100" y="64" width="1052" height="456"/></clipPath></defs><rect class="plot-background" x="100" y="64" width="1052" height="456"/><g class="grid"><line class="grid-line grid-line-x" x1="100" y1="64" x2="100" y2="520"/><line class="grid-line grid-line-x" x1="310.4" y1="64" x2="310.4" y2="520"/><line class="grid-line grid-line-x" x1="520.8" y1="64" x2="520.8" y2="520"/><line class="grid-line grid-line-x" x1="731.2" y1="64" x2="731.2" y2="520"/><line class="grid-line grid-line-x" x1="941.6" y1="64" x2="941.6" y2="520"/><line class="grid-line grid-line-x" x1="1152" y1="64" x2="1152" y2="520"/><line class="grid-line grid-line-y" x1="100" y1="520" x2="1152" y2="520"/><line class="grid-line grid-line-y" x1="100" y1="406" x2="1152" y2="406"/><line class="grid-line grid-line-y" x1="100" y1="292" x2="1152" y2="292"/><line class="grid-line grid-line-y" x1="100" y1="178" x2="1152" y2="178"/><line class="grid-line grid-line-y" x1="100" y1="64" x2="1152" y2="64"/></g><g class="data-series"><path class="simulation-line" d="M 100 514.3 L 110.52 514.3 L 121.04 514.3 L 131.56 514.3 L 142.08 514.3 L 152.6 514.3 L 163.12 514.3 L 173.64 514.3 L 184.16 514.3 L 194.68 514.3 L 205.2 514.3 L 215.72 514.3 L 226.24 514.3 L 236.76 514.3 L 247.28 514.3 L 257.8 514.3 L 268.32 514.3 L 278.84 514.3 L 289.36 514.3 L 299.88 514.3 L 310.4 514.3 L 320.92 514.3 L 331.44 514.3 L 341.96 514.3 L 352.48 514.3 L 363 514.3 L 373.52 514.3 L 384.04 514.3 L 394.56 514.3 L 405.08 514.3 L 415.6 514.3 L 426.12 514.3 L 436.64 514.3 L 447.16 514.3 L 457.68 514.3 L 468.2 514.3 L 478.72 514.3 L 489.24 514.3 L 499.76 514.3 L 510.28 514.3 L 520.8 514.3 L 531.32 514.3 L 541.84 514.3 L 552.36 514.3 L 562.88 514.3 L 573.4 514.3 L 583.92 514.3 L 594.44 514.3 L 604.96 514.3 L 615.48 514.3 L 626 514.3 L 636.52 514.3 L 647.04 514.3 L 657.56 514.3 L 668.08 514.3 L 678.6 514.3 L 689.12 514.3 L 699.64 514.3 L 710.16 514.3 L 720.68 514.3 L 731.2 514.3 L 741.72 514.3 L 752.24 514.3 L 762.76 514.3 L 773.28 514.3 L 783.8 514.3 L 794.32 514.3 L 804.84 514.3 L 815.36 514.3 L 825.88 514.3 L 836.4 514.3 L 846.92 514.3 L 857.44 514.3 L 867.96 514.3 L 878.48 514.3 L 889 514.3 L 899.52 514.3 L 910.04 514.3 L 920.56 514.3 L 931.08 514.3 L 941.6 514.3 L 952.12 514.3 L 962.64 514.3 L 973.16 514.3 L 983.68 514.3 L 994.2 514.3 L 1004.72 514.3 L 1015.24 514.3 L 1025.76 514.3 L 1036.28 514.3 L 1046.8 514.3 L 1057.32 514.3 L 1067.84 514.3 L 1078.36 514.3 L 1088.88 514.3 L 1099.4 514.3 L 1109.92 514.3 L 1120.44 514.3 L 1130.96 514.3 L 1141.48 514.3 L 1152 514.3" stroke="rgb(132, 0, 0)" clip-path="url(#simulation-graph-test_experiment_id_tstep_1_no_tmax)" data-simulation-transient-voltage-graph-id="simulation_graph_V1.pin1"/><circle class="simulation-point" cx="100" cy="514.3" r="3.5" stroke="rgb(132, 0, 0)" fill="#ffffff" clip-path="url(#simulation-graph-test_experiment_id_tstep_1_no_tmax)"/><circle class="simulation-point" cx="110.52" cy="514.3" r="3.5" stroke="rgb(132, 0, 0)" fill="#ffffff" clip-path="url(#simulation-graph-test_experiment_id_tstep_1_no_tmax)"/><circle class="simulation-point" cx="121.04" cy="514.3" r="3.5" stroke="rgb(132, 0, 0)" fill="#ffffff" clip-path="url(#simulation-graph-test_experiment_id_tstep_1_no_tmax)"/><circle class="simulation-point" cx="131.56" cy="514.3" r="3.5" stroke="rgb(132, 0, 0)" fill="#ffffff" clip-path="url(#simulation-graph-test_experiment_id_tstep_1_no_tmax)"/><circle class="simulation-point" cx="142.08" cy="514.3" r="3.5" stroke="rgb(132, 0, 0)" fill="#ffffff" clip-path="url(#simulation-graph-test_experiment_id_tstep_1_no_tmax)"/><circle class="simulation-point" cx="152.6" cy="514.3" r="3.5" stroke="rgb(132, 0, 0)" fill="#ffffff" clip-path="url(#simulation-graph-test_experiment_id_tstep_1_no_tmax)"/><circle class="simulation-point" cx="163.12" cy="514.3" r="3.5" stroke="rgb(132, 0, 0)" fill="#ffffff" clip-path="url(#simulation-graph-test_experiment_id_tstep_1_no_tmax)"/><circle class="simulation-point" cx="173.64" cy="514.3" r="3.5" stroke="rgb(132, 0, 0)" fill="#ffffff" clip-path="url(#simulation-graph-test_experiment_id_tstep_1_no_tmax)"/><circle class="simulation-point" cx="184.16" cy="514.3" r="3.5" stroke="rgb(132, 0, 0)" fill="#ffffff" clip-path="url(#simulation-graph-test_experiment_id_tstep_1_no_tmax)"/><circle class="simulation-point" cx="194.68" cy="514.3" r="3.5" stroke="rgb(132, 0, 0)" fill="#ffffff" clip-path="url(#simulation-graph-test_experiment_id_tstep_1_no_tmax)"/><circle class="simulation-point" cx="205.2" cy="514.3" r="3.5" stroke="rgb(132, 0, 0)" fill="#ffffff" clip-path="url(#simulation-graph-test_experiment_id_tstep_1_no_tmax)"/><circle class="simulation-point" cx="215.72" cy="514.3" r="3.5" stroke="rgb(132, 0, 0)" fill="#ffffff" clip-path="url(#simulation-graph-test_experiment_id_tstep_1_no_tmax)"/><circle class="simulation-point" cx="226.24" cy="514.3" r="3.5" stroke="rgb(132, 0, 0)" fill="#ffffff" clip-path="url(#simulation-graph-test_experiment_id_tstep_1_no_tmax)"/><circle class="simulation-point" cx="236.76" cy="514.3" r="3.5" stroke="rgb(132, 0, 0)" fill="#ffffff" clip-path="url(#simulation-graph-test_experiment_id_tstep_1_no_tmax)"/><circle class="simulation-point" cx="247.28" cy="514.3" r="3.5" stroke="rgb(132, 0, 0)" fill="#ffffff" clip-path="url(#simulation-graph-test_experiment_id_tstep_1_no_tmax)"/><circle class="simulation-point" cx="257.8" cy="514.3" r="3.5" stroke="rgb(132, 0, 0)" fill="#ffffff" clip-path="url(#simulation-graph-test_experiment_id_tstep_1_no_tmax)"/><circle class="simulation-point" cx="268.32" cy="514.3" r="3.5" stroke="rgb(132, 0, 0)" fill="#ffffff" clip-path="url(#simulation-graph-test_experiment_id_tstep_1_no_tmax)"/><circle class="simulation-point" cx="278.84" cy="514.3" r="3.5" stroke="rgb(132, 0, 0)" fill="#ffffff" clip-path="url(#simulation-graph-test_experiment_id_tstep_1_no_tmax)"/><circle class="simulation-point" cx="289.36" cy="514.3" r="3.5" stroke="rgb(132, 0, 0)" fill="#ffffff" clip-path="url(#simulation-graph-test_experiment_id_tstep_1_no_tmax)"/><circle class="simulation-point" cx="299.88" cy="514.3" r="3.5" stroke="rgb(132, 0, 0)" fill="#ffffff" clip-path="url(#simulation-graph-test_experiment_id_tstep_1_no_tmax)"/><circle class="simulation-point" cx="310.4" cy="514.3" r="3.5" stroke="rgb(132, 0, 0)" fill="#ffffff" clip-path="url(#simulation-graph-test_experiment_id_tstep_1_no_tmax)"/><circle class="simulation-point" cx="320.92" cy="514.3" r="3.5" stroke="rgb(132, 0, 0)" fill="#ffffff" clip-path="url(#simulation-graph-test_experiment_id_tstep_1_no_tmax)"/><circle class="simulation-point" cx="331.44" cy="514.3" r="3.5" stroke="rgb(132, 0, 0)" fill="#ffffff" clip-path="url(#simulation-graph-test_experiment_id_tstep_1_no_tmax)"/><circle class="simulation-point" cx="341.96" cy="514.3" r="3.5" stroke="rgb(132, 0, 0)" fill="#ffffff" clip-path="url(#simulation-graph-test_experiment_id_tstep_1_no_tmax)"/><circle class="simulation-point" cx="352.48" cy="514.3" r="3.5" stroke="rgb(132, 0, 0)" fill="#ffffff" clip-path="url(#simulation-graph-test_experiment_id_tstep_1_no_tmax)"/><circle class="simulation-point" cx="363" cy="514.3" r="3.5" stroke="rgb(132, 0, 0)" fill="#ffffff" clip-path="url(#simulation-graph-test_experiment_id_tstep_1_no_tmax)"/><circle class="simulation-point" cx="373.52" cy="514.3" r="3.5" stroke="rgb(132, 0, 0)" fill="#ffffff" clip-path="url(#simulation-graph-test_experiment_id_tstep_1_no_tmax)"/><circle class="simulation-point" cx="384.04" cy="514.3" r="3.5" stroke="rgb(132, 0, 0)" fill="#ffffff" clip-path="url(#simulation-graph-test_experiment_id_tstep_1_no_tmax)"/><circle class="simulation-point" cx="394.56" cy="514.3" r="3.5" stroke="rgb(132, 0, 0)" fill="#ffffff" clip-path="url(#simulation-graph-test_experiment_id_tstep_1_no_tmax)"/><circle class="simulation-point" cx="405.08" cy="514.3" r="3.5" stroke="rgb(132, 0, 0)" fill="#ffffff" clip-path="url(#simulation-graph-test_experiment_id_tstep_1_no_tmax)"/><circle class="simulation-point" cx="415.6" cy="514.3" r="3.5" stroke="rgb(132, 0, 0)" fill="#ffffff" clip-path="url(#simulation-graph-test_experiment_id_tstep_1_no_tmax)"/><circle class="simulation-point" cx="426.12" cy="514.3" r="3.5" stroke="rgb(132, 0, 0)" fill="#ffffff" clip-path="url(#simulation-graph-test_experiment_id_tstep_1_no_tmax)"/><circle class="simulation-point" cx="436.64" cy="514.3" r="3.5" stroke="rgb(132, 0, 0)" fill="#ffffff" clip-path="url(#simulation-graph-test_experiment_id_tstep_1_no_tmax)"/><circle class="simulation-point" cx="447.16" cy="514.3" r="3.5" stroke="rgb(132, 0, 0)" fill="#ffffff" clip-path="url(#simulation-graph-test_experiment_id_tstep_1_no_tmax)"/><circle class="simulation-point" cx="457.68" cy="514.3" r="3.5" stroke="rgb(132, 0, 0)" fill="#ffffff" clip-path="url(#simulation-graph-test_experiment_id_tstep_1_no_tmax)"/><circle class="simulation-point" cx="468.2" cy="514.3" r="3.5" stroke="rgb(132, 0, 0)" fill="#ffffff" clip-path="url(#simulation-graph-test_experiment_id_tstep_1_no_tmax)"/><circle class="simulation-point" cx="478.72" cy="514.3" r="3.5" stroke="rgb(132, 0, 0)" fill="#ffffff" clip-path="url(#simulation-graph-test_experiment_id_tstep_1_no_tmax)"/><circle class="simulation-point" cx="489.24" cy="514.3" r="3.5" stroke="rgb(132, 0, 0)" fill="#ffffff" clip-path="url(#simulation-graph-test_experiment_id_tstep_1_no_tmax)"/><circle class="simulation-point" cx="499.76" cy="514.3" r="3.5" stroke="rgb(132, 0, 0)" fill="#ffffff" clip-path="url(#simulation-graph-test_experiment_id_tstep_1_no_tmax)"/><circle class="simulation-point" cx="510.28" cy="514.3" r="3.5" stroke="rgb(132, 0, 0)" fill="#ffffff" clip-path="url(#simulation-graph-test_experiment_id_tstep_1_no_tmax)"/><circle class="simulation-point" cx="520.8" cy="514.3" r="3.5" stroke="rgb(132, 0, 0)" fill="#ffffff" clip-path="url(#simulation-graph-test_experiment_id_tstep_1_no_tmax)"/><circle class="simulation-point" cx="531.32" cy="514.3" r="3.5" stroke="rgb(132, 0, 0)" fill="#ffffff" clip-path="url(#simulation-graph-test_experiment_id_tstep_1_no_tmax)"/><circle class="simulation-point" cx="541.84" cy="514.3" r="3.5" stroke="rgb(132, 0, 0)" fill="#ffffff" clip-path="url(#simulation-graph-test_experiment_id_tstep_1_no_tmax)"/><circle class="simulation-point" cx="552.36" cy="514.3" r="3.5" stroke="rgb(132, 0, 0)" fill="#ffffff" clip-path="url(#simulation-graph-test_experiment_id_tstep_1_no_tmax)"/><circle class="simulation-point" cx="562.88" cy="514.3" r="3.5" stroke="rgb(132, 0, 0)" fill="#ffffff" clip-path="url(#simulation-graph-test_experiment_id_tstep_1_no_tmax)"/><circle class="simulation-point" cx="573.4" cy="514.3" r="3.5" stroke="rgb(132, 0, 0)" fill="#ffffff" clip-path="url(#simulation-graph-test_experiment_id_tstep_1_no_tmax)"/><circle class="simulation-point" cx="583.92" cy="514.3" r="3.5" stroke="rgb(132, 0, 0)" fill="#ffffff" clip-path="url(#simulation-graph-test_experiment_id_tstep_1_no_tmax)"/><circle class="simulation-point" cx="594.44" cy="514.3" r="3.5" stroke="rgb(132, 0, 0)" fill="#ffffff" clip-path="url(#simulation-graph-test_experiment_id_tstep_1_no_tmax)"/><circle class="simulation-point" cx="604.96" cy="514.3" r="3.5" stroke="rgb(132, 0, 0)" fill="#ffffff" clip-path="url(#simulation-graph-test_experiment_id_tstep_1_no_tmax)"/><circle class="simulation-point" cx="615.48" cy="514.3" r="3.5" stroke="rgb(132, 0, 0)" fill="#ffffff" clip-path="url(#simulation-graph-test_experiment_id_tstep_1_no_tmax)"/><circle class="simulation-point" cx="626" cy="514.3" r="3.5" stroke="rgb(132, 0, 0)" fill="#ffffff" clip-path="url(#simulation-graph-test_experiment_id_tstep_1_no_tmax)"/><circle class="simulation-point" cx="636.52" cy="514.3" r="3.5" stroke="rgb(132, 0, 0)" fill="#ffffff" clip-path="url(#simulation-graph-test_experiment_id_tstep_1_no_tmax)"/><circle class="simulation-point" cx="647.04" cy="514.3" r="3.5" stroke="rgb(132, 0, 0)" fill="#ffffff" clip-path="url(#simulation-graph-test_experiment_id_tstep_1_no_tmax)"/><circle class="simulation-point" cx="657.56" cy="514.3" r="3.5" stroke="rgb(132, 0, 0)" fill="#ffffff" clip-path="url(#simulation-graph-test_experiment_id_tstep_1_no_tmax)"/><circle class="simulation-point" cx="668.08" cy="514.3" r="3.5" stroke="rgb(132, 0, 0)" fill="#ffffff" clip-path="url(#simulation-graph-test_experiment_id_tstep_1_no_tmax)"/><circle class="simulation-point" cx="678.6" cy="514.3" r="3.5" stroke="rgb(132, 0, 0)" fill="#ffffff" clip-path="url(#simulation-graph-test_experiment_id_tstep_1_no_tmax)"/><circle class="simulation-point" cx="689.12" cy="514.3" r="3.5" stroke="rgb(132, 0, 0)" fill="#ffffff" clip-path="url(#simulation-graph-test_experiment_id_tstep_1_no_tmax)"/><circle class="simulation-point" cx="699.64" cy="514.3" r="3.5" stroke="rgb(132, 0, 0)" fill="#ffffff" clip-path="url(#simulation-graph-test_experiment_id_tstep_1_no_tmax)"/><circle class="simulation-point" cx="710.16" cy="514.3" r="3.5" stroke="rgb(132, 0, 0)" fill="#ffffff" clip-path="url(#simulation-graph-test_experiment_id_tstep_1_no_tmax)"/><circle class="simulation-point" cx="720.68" cy="514.3" r="3.5" stroke="rgb(132, 0, 0)" fill="#ffffff" clip-path="url(#simulation-graph-test_experiment_id_tstep_1_no_tmax)"/><circle class="simulation-point" cx="731.2" cy="514.3" r="3.5" stroke="rgb(132, 0, 0)" fill="#ffffff" clip-path="url(#simulation-graph-test_experiment_id_tstep_1_no_tmax)"/><circle class="simulation-point" cx="741.72" cy="514.3" r="3.5" stroke="rgb(132, 0, 0)" fill="#ffffff" clip-path="url(#simulation-graph-test_experiment_id_tstep_1_no_tmax)"/><circle class="simulation-point" cx="752.24" cy="514.3" r="3.5" stroke="rgb(132, 0, 0)" fill="#ffffff" clip-path="url(#simulation-graph-test_experiment_id_tstep_1_no_tmax)"/><circle class="simulation-point" cx="762.76" cy="514.3" r="3.5" stroke="rgb(132, 0, 0)" fill="#ffffff" clip-path="url(#simulation-graph-test_experiment_id_tstep_1_no_tmax)"/><circle class="simulation-point" cx="773.28" cy="514.3" r="3.5" stroke="rgb(132, 0, 0)" fill="#ffffff" clip-path="url(#simulation-graph-test_experiment_id_tstep_1_no_tmax)"/><circle class="simulation-point" cx="783.8" cy="514.3" r="3.5" stroke="rgb(132, 0, 0)" fill="#ffffff" clip-path="url(#simulation-graph-test_experiment_id_tstep_1_no_tmax)"/><circle class="simulation-point" cx="794.32" cy="514.3" r="3.5" stroke="rgb(132, 0, 0)" fill="#ffffff" clip-path="url(#simulation-graph-test_experiment_id_tstep_1_no_tmax)"/><circle class="simulation-point" cx="804.84" cy="514.3" r="3.5" stroke="rgb(132, 0, 0)" fill="#ffffff" clip-path="url(#simulation-graph-test_experiment_id_tstep_1_no_tmax)"/><circle class="simulation-point" cx="815.36" cy="514.3" r="3.5" stroke="rgb(132, 0, 0)" fill="#ffffff" clip-path="url(#simulation-graph-test_experiment_id_tstep_1_no_tmax)"/><circle class="simulation-point" cx="825.88" cy="514.3" r="3.5" stroke="rgb(132, 0, 0)" fill="#ffffff" clip-path="url(#simulation-graph-test_experiment_id_tstep_1_no_tmax)"/><circle class="simulation-point" cx="836.4" cy="514.3" r="3.5" stroke="rgb(132, 0, 0)" fill="#ffffff" clip-path="url(#simulation-graph-test_experiment_id_tstep_1_no_tmax)"/><circle class="simulation-point" cx="846.92" cy="514.3" r="3.5" stroke="rgb(132, 0, 0)" fill="#ffffff" clip-path="url(#simulation-graph-test_experiment_id_tstep_1_no_tmax)"/><circle class="simulation-point" cx="857.44" cy="514.3" r="3.5" stroke="rgb(132, 0, 0)" fill="#ffffff" clip-path="url(#simulation-graph-test_experiment_id_tstep_1_no_tmax)"/><circle class="simulation-point" cx="867.96" cy="514.3" r="3.5" stroke="rgb(132, 0, 0)" fill="#ffffff" clip-path="url(#simulation-graph-test_experiment_id_tstep_1_no_tmax)"/><circle class="simulation-point" cx="878.48" cy="514.3" r="3.5" stroke="rgb(132, 0, 0)" fill="#ffffff" clip-path="url(#simulation-graph-test_experiment_id_tstep_1_no_tmax)"/><circle class="simulation-point" cx="889" cy="514.3" r="3.5" stroke="rgb(132, 0, 0)" fill="#ffffff" clip-path="url(#simulation-graph-test_experiment_id_tstep_1_no_tmax)"/><circle class="simulation-point" cx="899.52" cy="514.3" r="3.5" stroke="rgb(132, 0, 0)" fill="#ffffff" clip-path="url(#simulation-graph-test_experiment_id_tstep_1_no_tmax)"/><circle class="simulation-point" cx="910.04" cy="514.3" r="3.5" stroke="rgb(132, 0, 0)" fill="#ffffff" clip-path="url(#simulation-graph-test_experiment_id_tstep_1_no_tmax)"/><circle class="simulation-point" cx="920.56" cy="514.3" r="3.5" stroke="rgb(132, 0, 0)" fill="#ffffff" clip-path="url(#simulation-graph-test_experiment_id_tstep_1_no_tmax)"/><circle class="simulation-point" cx="931.08" cy="514.3" r="3.5" stroke="rgb(132, 0, 0)" fill="#ffffff" clip-path="url(#simulation-graph-test_experiment_id_tstep_1_no_tmax)"/><circle class="simulation-point" cx="941.6" cy="514.3" r="3.5" stroke="rgb(132, 0, 0)" fill="#ffffff" clip-path="url(#simulation-graph-test_experiment_id_tstep_1_no_tmax)"/><circle class="simulation-point" cx="952.12" cy="514.3" r="3.5" stroke="rgb(132, 0, 0)" fill="#ffffff" clip-path="url(#simulation-graph-test_experiment_id_tstep_1_no_tmax)"/><circle class="simulation-point" cx="962.64" cy="514.3" r="3.5" stroke="rgb(132, 0, 0)" fill="#ffffff" clip-path="url(#simulation-graph-test_experiment_id_tstep_1_no_tmax)"/><circle class="simulation-point" cx="973.16" cy="514.3" r="3.5" stroke="rgb(132, 0, 0)" fill="#ffffff" clip-path="url(#simulation-graph-test_experiment_id_tstep_1_no_tmax)"/><circle class="simulation-point" cx="983.68" cy="514.3" r="3.5" stroke="rgb(132, 0, 0)" fill="#ffffff" clip-path="url(#simulation-graph-test_experiment_id_tstep_1_no_tmax)"/><circle class="simulation-point" cx="994.2" cy="514.3" r="3.5" stroke="rgb(132, 0, 0)" fill="#ffffff" clip-path="url(#simulation-graph-test_experiment_id_tstep_1_no_tmax)"/><circle class="simulation-point" cx="1004.72" cy="514.3" r="3.5" stroke="rgb(132, 0, 0)" fill="#ffffff" clip-path="url(#simulation-graph-test_experiment_id_tstep_1_no_tmax)"/><circle class="simulation-point" cx="1015.24" cy="514.3" r="3.5" stroke="rgb(132, 0, 0)" fill="#ffffff" clip-path="url(#simulation-graph-test_experiment_id_tstep_1_no_tmax)"/><circle class="simulation-point" cx="1025.76" cy="514.3" r="3.5" stroke="rgb(132, 0, 0)" fill="#ffffff" clip-path="url(#simulation-graph-test_experiment_id_tstep_1_no_tmax)"/><circle class="simulation-point" cx="1036.28" cy="514.3" r="3.5" stroke="rgb(132, 0, 0)" fill="#ffffff" clip-path="url(#simulation-graph-test_experiment_id_tstep_1_no_tmax)"/><circle class="simulation-point" cx="1046.8" cy="514.3" r="3.5" stroke="rgb(132, 0, 0)" fill="#ffffff" clip-path="url(#simulation-graph-test_experiment_id_tstep_1_no_tmax)"/><circle class="simulation-point" cx="1057.32" cy="514.3" r="3.5" stroke="rgb(132, 0, 0)" fill="#ffffff" clip-path="url(#simulation-graph-test_experiment_id_tstep_1_no_tmax)"/><circle class="simulation-point" cx="1067.84" cy="514.3" r="3.5" stroke="rgb(132, 0, 0)" fill="#ffffff" clip-path="url(#simulation-graph-test_experiment_id_tstep_1_no_tmax)"/><circle class="simulation-point" cx="1078.36" cy="514.3" r="3.5" stroke="rgb(132, 0, 0)" fill="#ffffff" clip-path="url(#simulation-graph-test_experiment_id_tstep_1_no_tmax)"/><circle class="simulation-point" cx="1088.88" cy="514.3" r="3.5" stroke="rgb(132, 0, 0)" fill="#ffffff" clip-path="url(#simulation-graph-test_experiment_id_tstep_1_no_tmax)"/><circle class="simulation-point" cx="1099.4" cy="514.3" r="3.5" stroke="rgb(132, 0, 0)" fill="#ffffff" clip-path="url(#simulation-graph-test_experiment_id_tstep_1_no_tmax)"/><circle class="simulation-point" cx="1109.92" cy="514.3" r="3.5" stroke="rgb(132, 0, 0)" fill="#ffffff" clip-path="url(#simulation-graph-test_experiment_id_tstep_1_no_tmax)"/><circle class="simulation-point" cx="1120.44" cy="514.3" r="3.5" stroke="rgb(132, 0, 0)" fill="#ffffff" clip-path="url(#simulation-graph-test_experiment_id_tstep_1_no_tmax)"/><circle class="simulation-point" cx="1130.96" cy="514.3" r="3.5" stroke="rgb(132, 0, 0)" fill="#ffffff" clip-path="url(#simulation-graph-test_experiment_id_tstep_1_no_tmax)"/><circle class="simulation-point" cx="1141.48" cy="514.3" r="3.5" stroke="rgb(132, 0, 0)" fill="#ffffff" clip-path="url(#simulation-graph-test_experiment_id_tstep_1_no_tmax)"/><circle class="simulation-point" cx="1152" cy="514.3" r="3.5" stroke="rgb(132, 0, 0)" fill="#ffffff" clip-path="url(#simulation-graph-test_experiment_id_tstep_1_no_tmax)"/><path class="simulation-line" d="M 100 515.089892 L 110.52 335.892988 L 121.04 175.856939 L 131.56 308.942597 L 142.08 332.089125 L 152.6 177.3282 L 163.12 314.16077 L 173.64 336.693389 L 184.16 186.316943 L 194.68 319.8773 L 205.2 372.968094 L 215.72 223.334094 L 226.24 331.584926 L 236.76 331.093115 L 247.28 485.570299 L 257.8 344.062543 L 268.32 318.153325 L 278.84 345.225533 L 289.36 341.865788 L 299.88 397.85579 L 310.4 324.560301 L 320.92 346.265608 L 331.44 489.147879 L 341.96 354.432764 L 352.48 220.820169 L 363 341.769665 L 373.52 350.798122 L 384.04 489.551718 L 394.56 360.268686 L 405.08 231.922987 L 415.6 381.041688 L 426.12 253.408622 L 436.64 353.191457 L 447.16 363.037125 L 457.68 360.944145 L 468.2 361.145511 L 478.72 361.700043 L 489.24 491.517672 L 499.76 371.893414 L 510.28 253.074675 L 520.8 361.413585 L 531.32 369.272202 L 541.84 368.852704 L 552.36 369.550379 L 562.88 492.88426 L 573.4 379.368843 L 583.92 266.58912 L 594.44 369.492993 L 604.96 376.898363 L 615.48 376.504983 L 626 377.12049 L 636.52 377.876935 L 647.04 378.695953 L 657.56 494.487465 L 668.08 377.46453 L 678.6 384.621183 L 689.12 323.82973 L 699.64 382.875607 L 710.16 392.969412 L 720.68 290.333139 L 731.2 409.091501 L 741.72 306.998648 L 752.24 386.723322 L 762.76 394.430935 L 773.28 296.725306 L 783.8 389.01852 L 794.32 395.044973 L 804.84 339.754051 L 815.36 395.373752 L 825.88 404.332032 L 836.4 311.155143 L 846.92 395.827507 L 857.44 401.843589 L 867.96 367.106805 L 878.48 281.312835 L 889 397.445488 L 899.52 399.139294 L 910.04 407.518123 L 920.56 321.462192 L 931.08 404.349026 L 941.6 409.436782 L 952.12 325.831863 L 962.64 407.429404 L 973.16 412.252495 L 983.68 330.936647 L 994.2 410.489153 L 1004.72 415.139321 L 1015.24 336.024425 L 1025.76 432.977352 L 1036.28 353.746645 L 1046.8 416.508329 L 1057.32 387.783214 L 1067.84 425.29057 L 1078.36 349.792618 L 1088.88 419.310854 L 1099.4 346.142486 L 1109.92 420.849636 L 1120.44 424.560787 L 1130.96 353.107688 L 1141.48 423.700854 L 1152 354.02155" stroke="rgb(194, 194, 0)" clip-path="url(#simulation-graph-test_experiment_id_tstep_1_no_tmax)" data-simulation-transient-voltage-graph-id="simulation_graph_R1.pin1"/><circle class="simulation-point" cx="100" cy="515.089892" r="3.5" stroke="rgb(194, 194, 0)" fill="#ffffff" clip-path="url(#simulation-graph-test_experiment_id_tstep_1_no_tmax)"/><circle class="simulation-point" cx="110.52" cy="335.892988" r="3.5" stroke="rgb(194, 194, 0)" fill="#ffffff" clip-path="url(#simulation-graph-test_experiment_id_tstep_1_no_tmax)"/><circle class="simulation-point" cx="121.04" cy="175.856939" r="3.5" stroke="rgb(194, 194, 0)" fill="#ffffff" clip-path="url(#simulation-graph-test_experiment_id_tstep_1_no_tmax)"/><circle class="simulation-point" cx="131.56" cy="308.942597" r="3.5" stroke="rgb(194, 194, 0)" fill="#ffffff" clip-path="url(#simulation-graph-test_experiment_id_tstep_1_no_tmax)"/><circle class="simulation-point" cx="142.08" cy="332.089125" r="3.5" stroke="rgb(194, 194, 0)" fill="#ffffff" clip-path="url(#simulation-graph-test_experiment_id_tstep_1_no_tmax)"/><circle class="simulation-point" cx="152.6" cy="177.3282" r="3.5" stroke="rgb(194, 194, 0)" fill="#ffffff" clip-path="url(#simulation-graph-test_experiment_id_tstep_1_no_tmax)"/><circle class="simulation-point" cx="163.12" cy="314.16077" r="3.5" stroke="rgb(194, 194, 0)" fill="#ffffff" clip-path="url(#simulation-graph-test_experiment_id_tstep_1_no_tmax)"/><circle class="simulation-point" cx="173.64" cy="336.693389" r="3.5" stroke="rgb(194, 194, 0)" fill="#ffffff" clip-path="url(#simulation-graph-test_experiment_id_tstep_1_no_tmax)"/><circle class="simulation-point" cx="184.16" cy="186.316943" r="3.5" stroke="rgb(194, 194, 0)" fill="#ffffff" clip-path="url(#simulation-graph-test_experiment_id_tstep_1_no_tmax)"/><circle class="simulation-point" cx="194.68" cy="319.8773" r="3.5" stroke="rgb(194, 194, 0)" fill="#ffffff" clip-path="url(#simulation-graph-test_experiment_id_tstep_1_no_tmax)"/><circle class="simulation-point" cx="205.2" cy="372.968094" r="3.5" stroke="rgb(194, 194, 0)" fill="#ffffff" clip-path="url(#simulation-graph-test_experiment_id_tstep_1_no_tmax)"/><circle class="simulation-point" cx="215.72" cy="223.334094" r="3.5" stroke="rgb(194, 194, 0)" fill="#ffffff" clip-path="url(#simulation-graph-test_experiment_id_tstep_1_no_tmax)"/><circle class="simulation-point" cx="226.24" cy="331.584926" r="3.5" stroke="rgb(194, 194, 0)" fill="#ffffff" clip-path="url(#simulation-graph-test_experiment_id_tstep_1_no_tmax)"/><circle class="simulation-point" cx="236.76" cy="331.093115" r="3.5" stroke="rgb(194, 194, 0)" fill="#ffffff" clip-path="url(#simulation-graph-test_experiment_id_tstep_1_no_tmax)"/><circle class="simulation-point" cx="247.28" cy="485.570299" r="3.5" stroke="rgb(194, 194, 0)" fill="#ffffff" clip-path="url(#simulation-graph-test_experiment_id_tstep_1_no_tmax)"/><circle class="simulation-point" cx="257.8" cy="344.062543" r="3.5" stroke="rgb(194, 194, 0)" fill="#ffffff" clip-path="url(#simulation-graph-test_experiment_id_tstep_1_no_tmax)"/><circle class="simulation-point" cx="268.32" cy="318.153325" r="3.5" stroke="rgb(194, 194, 0)" fill="#ffffff" clip-path="url(#simulation-graph-test_experiment_id_tstep_1_no_tmax)"/><circle class="simulation-point" cx="278.84" cy="345.225533" r="3.5" stroke="rgb(194, 194, 0)" fill="#ffffff" clip-path="url(#simulation-graph-test_experiment_id_tstep_1_no_tmax)"/><circle class="simulation-point" cx="289.36" cy="341.865788" r="3.5" stroke="rgb(194, 194, 0)" fill="#ffffff" clip-path="url(#simulation-graph-test_experiment_id_tstep_1_no_tmax)"/><circle class="simulation-point" cx="299.88" cy="397.85579" r="3.5" stroke="rgb(194, 194, 0)" fill="#ffffff" clip-path="url(#simulation-graph-test_experiment_id_tstep_1_no_tmax)"/><circle class="simulation-point" cx="310.4" cy="324.560301" r="3.5" stroke="rgb(194, 194, 0)" fill="#ffffff" clip-path="url(#simulation-graph-test_experiment_id_tstep_1_no_tmax)"/><circle class="simulation-point" cx="320.92" cy="346.265608" r="3.5" stroke="rgb(194, 194, 0)" fill="#ffffff" clip-path="url(#simulation-graph-test_experiment_id_tstep_1_no_tmax)"/><circle class="simulation-point" cx="331.44" cy="489.147879" r="3.5" stroke="rgb(194, 194, 0)" fill="#ffffff" clip-path="url(#simulation-graph-test_experiment_id_tstep_1_no_tmax)"/><circle class="simulation-point" cx="341.96" cy="354.432764" r="3.5" stroke="rgb(194, 194, 0)" fill="#ffffff" clip-path="url(#simulation-graph-test_experiment_id_tstep_1_no_tmax)"/><circle class="simulation-point" cx="352.48" cy="220.820169" r="3.5" stroke="rgb(194, 194, 0)" fill="#ffffff" clip-path="url(#simulation-graph-test_experiment_id_tstep_1_no_tmax)"/><circle class="simulation-point" cx="363" cy="341.769665" r="3.5" stroke="rgb(194, 194, 0)" fill="#ffffff" clip-path="url(#simulation-graph-test_experiment_id_tstep_1_no_tmax)"/><circle class="simulation-point" cx="373.52" cy="350.798122" r="3.5" stroke="rgb(194, 194, 0)" fill="#ffffff" clip-path="url(#simulation-graph-test_experiment_id_tstep_1_no_tmax)"/><circle class="simulation-point" cx="384.04" cy="489.551718" r="3.5" stroke="rgb(194, 194, 0)" fill="#ffffff" clip-path="url(#simulation-graph-test_experiment_id_tstep_1_no_tmax)"/><circle class="simulation-point" cx="394.56" cy="360.268686" r="3.5" stroke="rgb(194, 194, 0)" fill="#ffffff" clip-path="url(#simulation-graph-test_experiment_id_tstep_1_no_tmax)"/><circle class="simulation-point" cx="405.08" cy="231.922987" r="3.5" stroke="rgb(194, 194, 0)" fill="#ffffff" clip-path="url(#simulation-graph-test_experiment_id_tstep_1_no_tmax)"/><circle class="simulation-point" cx="415.6" cy="381.041688" r="3.5" stroke="rgb(194, 194, 0)" fill="#ffffff" clip-path="url(#simulation-graph-test_experiment_id_tstep_1_no_tmax)"/><circle class="simulation-point" cx="426.12" cy="253.408622" r="3.5" stroke="rgb(194, 194, 0)" fill="#ffffff" clip-path="url(#simulation-graph-test_experiment_id_tstep_1_no_tmax)"/><circle class="simulation-point" cx="436.64" cy="353.191457" r="3.5" stroke="rgb(194, 194, 0)" fill="#ffffff" clip-path="url(#simulation-graph-test_experiment_id_tstep_1_no_tmax)"/><circle class="simulation-point" cx="447.16" cy="363.037125" r="3.5" stroke="rgb(194, 194, 0)" fill="#ffffff" clip-path="url(#simulation-graph-test_experiment_id_tstep_1_no_tmax)"/><circle class="simulation-point" cx="457.68" cy="360.944145" r="3.5" stroke="rgb(194, 194, 0)" fill="#ffffff" clip-path="url(#simulation-graph-test_experiment_id_tstep_1_no_tmax)"/><circle class="simulation-point" cx="468.2" cy="361.145511" r="3.5" stroke="rgb(194, 194, 0)" fill="#ffffff" clip-path="url(#simulation-graph-test_experiment_id_tstep_1_no_tmax)"/><circle class="simulation-point" cx="478.72" cy="361.700043" r="3.5" stroke="rgb(194, 194, 0)" fill="#ffffff" clip-path="url(#simulation-graph-test_experiment_id_tstep_1_no_tmax)"/><circle class="simulation-point" cx="489.24" cy="491.517672" r="3.5" stroke="rgb(194, 194, 0)" fill="#ffffff" clip-path="url(#simulation-graph-test_experiment_id_tstep_1_no_tmax)"/><circle class="simulation-point" cx="499.76" cy="371.893414" r="3.5" stroke="rgb(194, 194, 0)" fill="#ffffff" clip-path="url(#simulation-graph-test_experiment_id_tstep_1_no_tmax)"/><circle class="simulation-point" cx="510.28" cy="253.074675" r="3.5" stroke="rgb(194, 194, 0)" fill="#ffffff" clip-path="url(#simulation-graph-test_experiment_id_tstep_1_no_tmax)"/><circle class="simulation-point" cx="520.8" cy="361.413585" r="3.5" stroke="rgb(194, 194, 0)" fill="#ffffff" clip-path="url(#simulation-graph-test_experiment_id_tstep_1_no_tmax)"/><circle class="simulation-point" cx="531.32" cy="369.272202" r="3.5" stroke="rgb(194, 194, 0)" fill="#ffffff" clip-path="url(#simulation-graph-test_experiment_id_tstep_1_no_tmax)"/><circle class="simulation-point" cx="541.84" cy="368.852704" r="3.5" stroke="rgb(194, 194, 0)" fill="#ffffff" clip-path="url(#simulation-graph-test_experiment_id_tstep_1_no_tmax)"/><circle class="simulation-point" cx="552.36" cy="369.550379" r="3.5" stroke="rgb(194, 194, 0)" fill="#ffffff" clip-path="url(#simulation-graph-test_experiment_id_tstep_1_no_tmax)"/><circle class="simulation-point" cx="562.88" cy="492.88426" r="3.5" stroke="rgb(194, 194, 0)" fill="#ffffff" clip-path="url(#simulation-graph-test_experiment_id_tstep_1_no_tmax)"/><circle class="simulation-point" cx="573.4" cy="379.368843" r="3.5" stroke="rgb(194, 194, 0)" fill="#ffffff" clip-path="url(#simulation-graph-test_experiment_id_tstep_1_no_tmax)"/><circle class="simulation-point" cx="583.92" cy="266.58912" r="3.5" stroke="rgb(194, 194, 0)" fill="#ffffff" clip-path="url(#simulation-graph-test_experiment_id_tstep_1_no_tmax)"/><circle class="simulation-point" cx="594.44" cy="369.492993" r="3.5" stroke="rgb(194, 194, 0)" fill="#ffffff" clip-path="url(#simulation-graph-test_experiment_id_tstep_1_no_tmax)"/><circle class="simulation-point" cx="604.96" cy="376.898363" r="3.5" stroke="rgb(194, 194, 0)" fill="#ffffff" clip-path="url(#simulation-graph-test_experiment_id_tstep_1_no_tmax)"/><circle class="simulation-point" cx="615.48" cy="376.504983" r="3.5" stroke="rgb(194, 194, 0)" fill="#ffffff" clip-path="url(#simulation-graph-test_experiment_id_tstep_1_no_tmax)"/><circle class="simulation-point" cx="626" cy="377.12049" r="3.5" stroke="rgb(194, 194, 0)" fill="#ffffff" clip-path="url(#simulation-graph-test_experiment_id_tstep_1_no_tmax)"/><circle class="simulation-point" cx="636.52" cy="377.876935" r="3.5" stroke="rgb(194, 194, 0)" fill="#ffffff" clip-path="url(#simulation-graph-test_experiment_id_tstep_1_no_tmax)"/><circle class="simulation-point" cx="647.04" cy="378.695953" r="3.5" stroke="rgb(194, 194, 0)" fill="#ffffff" clip-path="url(#simulation-graph-test_experiment_id_tstep_1_no_tmax)"/><circle class="simulation-point" cx="657.56" cy="494.487465" r="3.5" stroke="rgb(194, 194, 0)" fill="#ffffff" clip-path="url(#simulation-graph-test_experiment_id_tstep_1_no_tmax)"/><circle class="simulation-point" cx="668.08" cy="377.46453" r="3.5" stroke="rgb(194, 194, 0)" fill="#ffffff" clip-path="url(#simulation-graph-test_experiment_id_tstep_1_no_tmax)"/><circle class="simulation-point" cx="678.6" cy="384.621183" r="3.5" stroke="rgb(194, 194, 0)" fill="#ffffff" clip-path="url(#simulation-graph-test_experiment_id_tstep_1_no_tmax)"/><circle class="simulation-point" cx="689.12" cy="323.82973" r="3.5" stroke="rgb(194, 194, 0)" fill="#ffffff" clip-path="url(#simulation-graph-test_experiment_id_tstep_1_no_tmax)"/><circle class="simulation-point" cx="699.64" cy="382.875607" r="3.5" stroke="rgb(194, 194, 0)" fill="#ffffff" clip-path="url(#simulation-graph-test_experiment_id_tstep_1_no_tmax)"/><circle class="simulation-point" cx="710.16" cy="392.969412" r="3.5" stroke="rgb(194, 194, 0)" fill="#ffffff" clip-path="url(#simulation-graph-test_experiment_id_tstep_1_no_tmax)"/><circle class="simulation-point" cx="720.68" cy="290.333139" r="3.5" stroke="rgb(194, 194, 0)" fill="#ffffff" clip-path="url(#simulation-graph-test_experiment_id_tstep_1_no_tmax)"/><circle class="simulation-point" cx="731.2" cy="409.091501" r="3.5" stroke="rgb(194, 194, 0)" fill="#ffffff" clip-path="url(#simulation-graph-test_experiment_id_tstep_1_no_tmax)"/><circle class="simulation-point" cx="741.72" cy="306.998648" r="3.5" stroke="rgb(194, 194, 0)" fill="#ffffff" clip-path="url(#simulation-graph-test_experiment_id_tstep_1_no_tmax)"/><circle class="simulation-point" cx="752.24" cy="386.723322" r="3.5" stroke="rgb(194, 194, 0)" fill="#ffffff" clip-path="url(#simulation-graph-test_experiment_id_tstep_1_no_tmax)"/><circle class="simulation-point" cx="762.76" cy="394.430935" r="3.5" stroke="rgb(194, 194, 0)" fill="#ffffff" clip-path="url(#simulation-graph-test_experiment_id_tstep_1_no_tmax)"/><circle class="simulation-point" cx="773.28" cy="296.725306" r="3.5" stroke="rgb(194, 194, 0)" fill="#ffffff" clip-path="url(#simulation-graph-test_experiment_id_tstep_1_no_tmax)"/><circle class="simulation-point" cx="783.8" cy="389.01852" r="3.5" stroke="rgb(194, 194, 0)" fill="#ffffff" clip-path="url(#simulation-graph-test_experiment_id_tstep_1_no_tmax)"/><circle class="simulation-point" cx="794.32" cy="395.044973" r="3.5" stroke="rgb(194, 194, 0)" fill="#ffffff" clip-path="url(#simulation-graph-test_experiment_id_tstep_1_no_tmax)"/><circle class="simulation-point" cx="804.84" cy="339.754051" r="3.5" stroke="rgb(194, 194, 0)" fill="#ffffff" clip-path="url(#simulation-graph-test_experiment_id_tstep_1_no_tmax)"/><circle class="simulation-point" cx="815.36" cy="395.373752" r="3.5" stroke="rgb(194, 194, 0)" fill="#ffffff" clip-path="url(#simulation-graph-test_experiment_id_tstep_1_no_tmax)"/><circle class="simulation-point" cx="825.88" cy="404.332032" r="3.5" stroke="rgb(194, 194, 0)" fill="#ffffff" clip-path="url(#simulation-graph-test_experiment_id_tstep_1_no_tmax)"/><circle class="simulation-point" cx="836.4" cy="311.155143" r="3.5" stroke="rgb(194, 194, 0)" fill="#ffffff" clip-path="url(#simulation-graph-test_experiment_id_tstep_1_no_tmax)"/><circle class="simulation-point" cx="846.92" cy="395.827507" r="3.5" stroke="rgb(194, 194, 0)" fill="#ffffff" clip-path="url(#simulation-graph-test_experiment_id_tstep_1_no_tmax)"/><circle class="simulation-point" cx="857.44" cy="401.843589" r="3.5" stroke="rgb(194, 194, 0)" fill="#ffffff" clip-path="url(#simulation-graph-test_experiment_id_tstep_1_no_tmax)"/><circle class="simulation-point" cx="867.96" cy="367.106805" r="3.5" stroke="rgb(194, 194, 0)" fill="#ffffff" clip-path="url(#simulation-graph-test_experiment_id_tstep_1_no_tmax)"/><circle class="simulation-point" cx="878.48" cy="281.312835" r="3.5" stroke="rgb(194, 194, 0)" fill="#ffffff" clip-path="url(#simulation-graph-test_experiment_id_tstep_1_no_tmax)"/><circle class="simulation-point" cx="889" cy="397.445488" r="3.5" stroke="rgb(194, 194, 0)" fill="#ffffff" clip-path="url(#simulation-graph-test_experiment_id_tstep_1_no_tmax)"/><circle class="simulation-point" cx="899.52" cy="399.139294" r="3.5" stroke="rgb(194, 194, 0)" fill="#ffffff" clip-path="url(#simulation-graph-test_experiment_id_tstep_1_no_tmax)"/><circle class="simulation-point" cx="910.04" cy="407.518123" r="3.5" stroke="rgb(194, 194, 0)" fill="#ffffff" clip-path="url(#simulation-graph-test_experiment_id_tstep_1_no_tmax)"/><circle class="simulation-point" cx="920.56" cy="321.462192" r="3.5" stroke="rgb(194, 194, 0)" fill="#ffffff" clip-path="url(#simulation-graph-test_experiment_id_tstep_1_no_tmax)"/><circle class="simulation-point" cx="931.08" cy="404.349026" r="3.5" stroke="rgb(194, 194, 0)" fill="#ffffff" clip-path="url(#simulation-graph-test_experiment_id_tstep_1_no_tmax)"/><circle class="simulation-point" cx="941.6" cy="409.436782" r="3.5" stroke="rgb(194, 194, 0)" fill="#ffffff" clip-path="url(#simulation-graph-test_experiment_id_tstep_1_no_tmax)"/><circle class="simulation-point" cx="952.12" cy="325.831863" r="3.5" stroke="rgb(194, 194, 0)" fill="#ffffff" clip-path="url(#simulation-graph-test_experiment_id_tstep_1_no_tmax)"/><circle class="simulation-point" cx="962.64" cy="407.429404" r="3.5" stroke="rgb(194, 194, 0)" fill="#ffffff" clip-path="url(#simulation-graph-test_experiment_id_tstep_1_no_tmax)"/><circle class="simulation-point" cx="973.16" cy="412.252495" r="3.5" stroke="rgb(194, 194, 0)" fill="#ffffff" clip-path="url(#simulation-graph-test_experiment_id_tstep_1_no_tmax)"/><circle class="simulation-point" cx="983.68" cy="330.936647" r="3.5" stroke="rgb(194, 194, 0)" fill="#ffffff" clip-path="url(#simulation-graph-test_experiment_id_tstep_1_no_tmax)"/><circle class="simulation-point" cx="994.2" cy="410.489153" r="3.5" stroke="rgb(194, 194, 0)" fill="#ffffff" clip-path="url(#simulation-graph-test_experiment_id_tstep_1_no_tmax)"/><circle class="simulation-point" cx="1004.72" cy="415.139321" r="3.5" stroke="rgb(194, 194, 0)" fill="#ffffff" clip-path="url(#simulation-graph-test_experiment_id_tstep_1_no_tmax)"/><circle class="simulation-point" cx="1015.24" cy="336.024425" r="3.5" stroke="rgb(194, 194, 0)" fill="#ffffff" clip-path="url(#simulation-graph-test_experiment_id_tstep_1_no_tmax)"/><circle class="simulation-point" cx="1025.76" cy="432.977352" r="3.5" stroke="rgb(194, 194, 0)" fill="#ffffff" clip-path="url(#simulation-graph-test_experiment_id_tstep_1_no_tmax)"/><circle class="simulation-point" cx="1036.28" cy="353.746645" r="3.5" stroke="rgb(194, 194, 0)" fill="#ffffff" clip-path="url(#simulation-graph-test_experiment_id_tstep_1_no_tmax)"/><circle class="simulation-point" cx="1046.8" cy="416.508329" r="3.5" stroke="rgb(194, 194, 0)" fill="#ffffff" clip-path="url(#simulation-graph-test_experiment_id_tstep_1_no_tmax)"/><circle class="simulation-point" cx="1057.32" cy="387.783214" r="3.5" stroke="rgb(194, 194, 0)" fill="#ffffff" clip-path="url(#simulation-graph-test_experiment_id_tstep_1_no_tmax)"/><circle class="simulation-point" cx="1067.84" cy="425.29057" r="3.5" stroke="rgb(194, 194, 0)" fill="#ffffff" clip-path="url(#simulation-graph-test_experiment_id_tstep_1_no_tmax)"/><circle class="simulation-point" cx="1078.36" cy="349.792618" r="3.5" stroke="rgb(194, 194, 0)" fill="#ffffff" clip-path="url(#simulation-graph-test_experiment_id_tstep_1_no_tmax)"/><circle class="simulation-point" cx="1088.88" cy="419.310854" r="3.5" stroke="rgb(194, 194, 0)" fill="#ffffff" clip-path="url(#simulation-graph-test_experiment_id_tstep_1_no_tmax)"/><circle class="simulation-point" cx="1099.4" cy="346.142486" r="3.5" stroke="rgb(194, 194, 0)" fill="#ffffff" clip-path="url(#simulation-graph-test_experiment_id_tstep_1_no_tmax)"/><circle class="simulation-point" cx="1109.92" cy="420.849636" r="3.5" stroke="rgb(194, 194, 0)" fill="#ffffff" clip-path="url(#simulation-graph-test_experiment_id_tstep_1_no_tmax)"/><circle class="simulation-point" cx="1120.44" cy="424.560787" r="3.5" stroke="rgb(194, 194, 0)" fill="#ffffff" clip-path="url(#simulation-graph-test_experiment_id_tstep_1_no_tmax)"/><circle class="simulation-point" cx="1130.96" cy="353.107688" r="3.5" stroke="rgb(194, 194, 0)" fill="#ffffff" clip-path="url(#simulation-graph-test_experiment_id_tstep_1_no_tmax)"/><circle class="simulation-point" cx="1141.48" cy="423.700854" r="3.5" stroke="rgb(194, 194, 0)" fill="#ffffff" clip-path="url(#simulation-graph-test_experiment_id_tstep_1_no_tmax)"/><circle class="simulation-point" cx="1152" cy="354.02155" r="3.5" stroke="rgb(194, 194, 0)" fill="#ffffff" clip-path="url(#simulation-graph-test_experiment_id_tstep_1_no_tmax)"/></g><g class="axes"><line class="axis axis-x" x1="100" y1="520" x2="1152" y2="520"/><line class="axis axis-y" x1="100" y1="64" x2="100" y2="520"/><line class="axis-tick axis-tick-x" x1="100" y1="520" x2="100" y2="526"/><text class="axis-label axis-label-x" x="100" y="542" text-anchor="middle">0</text><line class="axis-tick axis-tick-x" x1="310.4" y1="520" x2="310.4" y2="526"/><text class="axis-label axis-label-x" x="310.4" y="542" text-anchor="middle">20</text><line class="axis-tick axis-tick-x" x1="520.8" y1="520" x2="520.8" y2="526"/><text class="axis-label axis-label-x" x="520.8" y="542" text-anchor="middle">40</text><line class="axis-tick axis-tick-x" x1="731.2" y1="520" x2="731.2" y2="526"/><text class="axis-label axis-label-x" x="731.2" y="542" text-anchor="middle">60</text><line class="axis-tick axis-tick-x" x1="941.6" y1="520" x2="941.6" y2="526"/><text class="axis-label axis-label-x" x="941.6" y="542" text-anchor="middle">80</text><line class="axis-tick axis-tick-x" x1="1152" y1="520" x2="1152" y2="526"/><text class="axis-label axis-label-x" x="1152" y="542" text-anchor="middle">100</text><line class="axis-tick axis-tick-y" x1="94" y1="520" x2="100" y2="520"/><text class="axis-label axis-label-y" x="90" y="520" text-anchor="end" dominant-baseline="middle">0</text><line class="axis-tick axis-tick-y" x1="94" y1="406" x2="100" y2="406"/><text class="axis-label axis-label-y" x="90" y="406" text-anchor="end" dominant-baseline="middle">100</text><line class="axis-tick axis-tick-y" x1="94" y1="292" x2="100" y2="292"/><text class="axis-label axis-label-y" x="90" y="292" text-anchor="end" dominant-baseline="middle">200</text><line class="axis-tick axis-tick-y" x1="94" y1="178" x2="100" y2="178"/><text class="axis-label axis-label-y" x="90" y="178" text-anchor="end" dominant-baseline="middle">300</text><line class="axis-tick axis-tick-y" x1="94" y1="64" x2="100" y2="64"/><text class="axis-label axis-label-y" x="90" y="64" text-anchor="end" dominant-baseline="middle">400</text><text class="axis-title axis-title-x" x="626" y="568" text-anchor="middle">Time (ms)</text><text class="axis-title axis-title-y" x="36" y="292" transform="rotate(-90 36 292)" text-anchor="middle">Voltage (V)</text></g><g class="legend"><g class="legend-item" transform="translate(100 36)"><line class="legend-line" x1="0" y1="0" x2="24" y2="0" stroke="rgb(132, 0, 0)"/><text class="legend-label" x="32" y="0" dominant-baseline="middle">V1.pin1</text></g><g class="legend-item" transform="translate(100 56)"><line class="legend-line" x1="0" y1="0" x2="24" y2="0" stroke="rgb(194, 194, 0)"/><text class="legend-label" x="32" y="0" dominant-baseline="middle">R1.pin1</text></g></g><text class="chart-title" x="600" y="24" text-anchor="middle">Timestep 0.001, no tmax</text></svg>