<svg xmlns="http://www.w3.org/2000/svg" width="1200" height="600" viewBox="0 0 1200 600" data-simulation-experiment-id="test_experiment_id_tstep_1" data-simulation-experiment-name="Timestep 0.001"><style>
:root { color-scheme: light; }
svg { font-family: 'Inter', 'Helvetica Neue', Arial, sans-serif; }
.background { fill: rgb(245, 241, 237); }
.plot-background { fill: #ffffff; }
.grid-line { stroke: rgba(0, 0, 0, 0.08); stroke-width: 1; }
.axis { stroke: rgba(0, 0, 0, 0.6); stroke-width: 1.5; }
.axis-tick { stroke: rgba(0, 0, 0, 0.6); stroke-width: 1; }
.axis-label { fill: rgba(0, 0, 0, 0.75); font-size: 12px; }
.axis-title { fill: rgba(0, 0, 0, 0.9); font-size: 14px; font-weight: 600; }
.legend-label { fill: rgba(0, 0, 0, 0.75); font-size: 13px; }
.legend-line { stroke-width: 3; }
.simulation-line { fill: none; stroke-width: 2.5; }
.simulation-point { stroke-width: 1.5; fill: #ffffff; }
.chart-title { fill: rgba(0, 0, 0, 0.85); font-size: 18px; font-weight: 600; }
</style><rect class="background" x="0" y="0" width="1200" height="600"/><defs><clipPath id="simulation-graph-test_experiment_id_tstep_1"><rect x="100" y="64" width="1052" height="456"/></clipPath></defs><rect class="plot-background" x="100" y="64" width="1052" height="456"/><g class="grid"><line class="grid-line grid-line-x" x1="100" y1="64" x2="100" y2="520"/><line class="grid-line grid-line-x" x1="310.4" y1="64" x2="310.4" y2="520"/><line class="grid-line grid-line-x" x1="520.8" y1="64" x2="520.8" y2="520"/><line class="grid-line grid-line-x" x1="731.2" y1="64" x2="731.2" y2="520"/><line class="grid-line grid-line-x" x1="941.6" y1="64" x2="941.6" y2="520"/><line class="grid-line grid-line-x" x1="1152" y1="64" x2="1152" y2="520"/><line class="grid-line grid-line-y" x1="100" y1="520" x2="1152" y2="520"/><line class="grid-line grid-line-y" x1="100" y1="428.8" x2="1152" y2="428.8"/><line class="grid-line grid-line-y" x1="100" y1="337.6" x2="1152" y2="337.6"/><line class="grid-line grid-line-y" x1="100" y1="246.4" x2="1152" y2="246.4"/><line class="grid-line grid-line-y" x1="100" y1="155.2" x2="1152" y2="155.2"/><line class="grid-line grid-line-y" x1="100" y1="64" x2="1152" y2="64"/></g><g class="data-series"><path class="simulation-line" d="M 100 337.6 L 110.52 337.6 L 121.04 337.6 L 131.56 337.6 L 142.08 337.6 L 152.6 337.6 L 163.12 337.6 L 173.64 337.6 L 184.16 337.6 L 194.68 337.6 L 205.2 337.6 L 215.72 337.6 L 226.24 337.6 L 236.76 337.6 L 247.28 337.6 L 257.8 337.6 L 268.32 337.6 L 278.84 337.6 L 289.36 337.6 L 299.88 337.6 L 310.4 337.6 L 320.92 337.6 L 331.44 337.6 L 341.96 337.6 L 352.48 337.6 L 363 337.6 L 373.52 337.6 L 384.04 337.6 L 394.56 337.6 L 405.08 337.6 L 415.6 337.6 L 426.12 337.6 L 436.64 337.6 L 447.16 337.6 L 457.68 337.6 L 468.2 337.6 L 478.72 337.6 L 489.24 337.6 L 499.76 337.6 L 510.28 337.6 L 520.8 337.6 L 531.32 337.6 L 541.84 337.6 L 552.36 337.6 L 562.88 337.6 L 573.4 337.6 L 583.92 337.6 L 594.44 337.6 L 604.96 337.6 L 615.48 337.6 L 626 337.6 L 636.52 337.6 L 647.04 337.6 L 657.56 337.6 L 668.08 337.6 L 678.6 337.6 L 689.12 337.6 L 699.64 337.6 L 710.16 337.6 L 720.68 337.6 L 731.2 337.6 L 741.72 337.6 L 752.24 337.6 L 762.76 337.6 L 773.28 337.6 L 783.8 337.6 L 794.32 337.6 L 804.84 337.6 L 815.36 337.6 L 825.88 337.6 L 836.4 337.6 L 846.92 337.6 L 857.44 337.6 L 867.96 337.6 L 878.48 337.6 L 889 337.6 L 899.52 337.6 L 910.04 337.6 L 920.56 337.6 L 931.08 337.6 L 941.6 337.6 L 952.12 337.6 L 962.64 337.6 L 973.16 337.6 L 983.68 337.6 L 994.2 337.6 L 1004.72 337.6 L 1015.24 337.6 L 1025.76 337.6 L 1036.28 337.6 L 1046.8 337.6 L 1057.32 337.6 L 1067.84 337.6 L 1078.36 337.6 L 1088.88 337.6 L 1099.4 337.6 L 1109.92 337.6 L 1120.44 337.6 L 1130.96 337.6 L 1141.48 337.6 L 1152 337.6" stroke="rgb(132, 0, 0)" clip-path="url(#simulation-graph-test_experiment_id_tstep_1)" data-simulation-transient-voltage-graph-id="simulation_graph_V1.pin1"/><circle class="simulation-point" cx="100" cy="337.6" r="3.5" stroke="rgb(132, 0, 0)" fill="#ffffff" clip-path="url(#simulation-graph-test_experiment_id_tstep_1)"/><circle class="simulation-point" cx="110.52" cy="337.6" r="3.5" stroke="rgb(132, 0, 0)" fill="#ffffff" clip-path="url(#simulation-graph-test_experiment_id_tstep_1)"/><circle class="simulation-point" cx="121.04" cy="337.6" r="3.5" stroke="rgb(132, 0, 0)" fill="#ffffff" clip-path="url(#simulation-graph-test_experiment_id_tstep_1)"/><circle class="simulation-point" cx="131.56" cy="337.6" r="3.5" stroke="rgb(132, 0, 0)" fill="#ffffff" clip-path="url(#simulation-graph-test_experiment_id_tstep_1)"/><circle class="simulation-point" cx="142.08" cy="337.6" r="3.5" stroke="rgb(132, 0, 0)" fill="#ffffff" clip-path="url(#simulation-graph-test_experiment_id_tstep_1)"/><circle class="simulation-point" cx="152.6" cy="337.6" r="3.5" stroke="rgb(132, 0, 0)" fill="#ffffff" clip-path="url(#simulation-graph-test_experiment_id_tstep_1)"/><circle class="simulation-point" cx="163.12" cy="337.6" r="3.5" stroke="rgb(132, 0, 0)" fill="#ffffff" clip-path="url(#simulation-graph-test_experiment_id_tstep_1)"/><circle class="simulation-point" cx="173.64" cy="337.6" r="3.5" stroke="rgb(132, 0, 0)" fill="#ffffff" clip-path="url(#simulation-graph-test_experiment_id_tstep_1)"/><circle class="simulation-point" cx="184.16" cy="337.6" r="3.5" stroke="rgb(132, 0, 0)" fill="#ffffff" clip-path="url(#simulation-graph-test_experiment_id_tstep_1)"/><circle class="simulation-point" cx="194.68" cy="337.6" r="3.5" stroke="rgb(132, 0, 0)" fill="#ffffff" clip-path="url(#simulation-graph-test_experiment_id_tstep_1)"/><circle class="simulation-point" cx="205.2" cy="337.6" r="3.5" stroke="rgb(132, 0, 0)" fill="#ffffff" clip-path="url(#simulation-graph-test_experiment_id_tstep_1)"/><circle class="simulation-point" cx="215.72" cy="337.6" r="3.5" stroke="rgb(132, 0, 0)" fill="#ffffff" clip-path="url(#simulation-graph-test_experiment_id_tstep_1)"/><circle class="simulation-point" cx="226.24" cy="337.6" r="3.5" stroke="rgb(132, 0, 0)" fill="#ffffff" clip-path="url(#simulation-graph-test_experiment_id_tstep_1)"/><circle class="simulation-point" cx="236.76" cy="337.6" r="3.5" stroke="rgb(132, 0, 0)" fill="#ffffff" clip-path="url(#simulation-graph-test_experiment_id_tstep_1)"/><circle class="simulation-point" cx="247.28" cy="337.6" r="3.5" stroke="rgb(132, 0, 0)" fill="#ffffff" clip-path="url(#simulation-graph-test_experiment_id_tstep_1)"/><circle class="simulation-point" cx="257.8" cy="337.6" r="3.5" stroke="rgb(132, 0, 0)" fill="#ffffff" clip-path="url(#simulation-graph-test_experiment_id_tstep_1)"/><circle class="simulation-point" cx="268.32" cy="337.6" r="3.5" stroke="rgb(132, 0, 0)" fill="#ffffff" clip-path="url(#simulation-graph-test_experiment_id_tstep_1)"/><circle class="simulation-point" cx="278.84" cy="337.6" r="3.5" stroke="rgb(132, 0, 0)" fill="#ffffff" clip-path="url(#simulation-graph-test_experiment_id_tstep_1)"/><circle class="simulation-point" cx="289.36" cy="337.6" r="3.5" stroke="rgb(132, 0, 0)" fill="#ffffff" clip-path="url(#simulation-graph-test_experiment_id_tstep_1)"/><circle class="simulation-point" cx="299.88" cy="337.6" r="3.5" stroke="rgb(132, 0, 0)" fill="#ffffff" clip-path="url(#simulation-graph-test_experiment_id_tstep_1)"/><circle class="simulation-point" cx="310.4" cy="337.6" r="3.5" stroke="rgb(132, 0, 0)" fill="#ffffff" clip-path="url(#simulation-graph-test_experiment_id_tstep_1)"/><circle class="simulation-point" cx="320.92" cy="337.6" r="3.5" stroke="rgb(132, 0, 0)" fill="#ffffff" clip-path="url(#simulation-graph-test_experiment_id_tstep_1)"/><circle class="simulation-point" cx="331.44" cy="337.6" r="3.5" stroke="rgb(132, 0, 0)" fill="#ffffff" clip-path="url(#simulation-graph-test_experiment_id_tstep_1)"/><circle class="simulation-point" cx="341.96" cy="337.6" r="3.5" stroke="rgb(132, 0, 0)" fill="#ffffff" clip-path="url(#simulation-graph-test_experiment_id_tstep_1)"/><circle class="simulation-point" cx="352.48" cy="337.6" r="3.5" stroke="rgb(132, 0, 0)" fill="#ffffff" clip-path="url(#simulation-graph-test_experiment_id_tstep_1)"/><circle class="simulation-point" cx="363" cy="337.6" r="3.5" stroke="rgb(132, 0, 0)" fill="#ffffff" clip-path="url(#simulation-graph-test_experiment_id_tstep_1)"/><circle class="simulation-point" cx="373.52" cy="337.6" r="3.5" stroke="rgb(132, 0, 0)" fill="#ffffff" clip-path="url(#simulation-graph-test_experiment_id_tstep_1)"/><circle class="simulation-point" cx="384.04" cy="337.6" r="3.5" stroke="rgb(132, 0, 0)" fill="#ffffff" clip-path="url(#simulation-graph-test_experiment_id_tstep_1)"/><circle class="simulation-point" cx="394.56" cy="337.6" r="3.5" stroke="rgb(132, 0, 0)" fill="#ffffff" clip-path="url(#simulation-graph-test_experiment_id_tstep_1)"/><circle class="simulation-point" cx="405.08" cy="337.6" r="3.5" stroke="rgb(132, 0, 0)" fill="#ffffff" clip-path="url(#simulation-graph-test_experiment_id_tstep_1)"/><circle class="simulation-point" cx="415.6" cy="337.6" r="3.5" stroke="rgb(132, 0, 0)" fill="#ffffff" clip-path="url(#simulation-graph-test_experiment_id_tstep_1)"/><circle class="simulation-point" cx="426.12" cy="337.6" r="3.5" stroke="rgb(132, 0, 0)" fill="#ffffff" clip-path="url(#simulation-graph-test_experiment_id_tstep_1)"/><circle class="simulation-point" cx="436.64" cy="337.6" r="3.5" stroke="rgb(132, 0, 0)" fill="#ffffff" clip-path="url(#simulation-graph-test_experiment_id_tstep_1)"/><circle class="simulation-point" cx="447.16" cy="337.6" r="3.5" stroke="rgb(132, 0, 0)" fill="#ffffff" clip-path="url(#simulation-graph-test_experiment_id_tstep_1)"/><circle class="simulation-point" cx="457.68" cy="337.6" r="3.5" stroke="rgb(132, 0, 0)" fill="#ffffff" clip-path="url(#simulation-graph-test_experiment_id_tstep_1)"/><circle class="simulation-point" cx="468.2" cy="337.6" r="3.5" stroke="rgb(132, 0, 0)" fill="#ffffff" clip-path="url(#simulation-graph-test_experiment_id_tstep_1)"/><circle class="simulation-point" cx="478.72" cy="337.6" r="3.5" stroke="rgb(132, 0, 0)" fill="#ffffff" clip-path="url(#simulation-graph-test_experiment_id_tstep_1)"/><circle class="simulation-point" cx="489.24" cy="337.6" r="3.5" stroke="rgb(132, 0, 0)" fill="#ffffff" clip-path="url(#simulation-graph-test_experiment_id_tstep_1)"/><circle class="simulation-point" cx="499.76" cy="337.6" r="3.5" stroke="rgb(132, 0, 0)" fill="#ffffff" clip-path="url(#simulation-graph-test_experiment_id_tstep_1)"/><circle class="simulation-point" cx="510.28" cy="337.6" r="3.5" stroke="rgb(132, 0, 0)" fill="#ffffff" clip-path="url(#simulation-graph-test_experiment_id_tstep_1)"/><circle class="simulation-point" cx="520.8" cy="337.6" r="3.5" stroke="rgb(132, 0, 0)" fill="#ffffff" clip-path="url(#simulation-graph-test_experiment_id_tstep_1)"/><circle class="simulation-point" cx="531.32" cy="337.6" r="3.5" stroke="rgb(132, 0, 0)" fill="#ffffff" clip-path="url(#simulation-graph-test_experiment_id_tstep_1)"/><circle class="simulation-point" cx="541.84" cy="337.6" r="3.5" stroke="rgb(132, 0, 0)" fill="#ffffff" clip-path="url(#simulation-graph-test_experiment_id_tstep_1)"/><circle class="simulation-point" cx="552.36" cy="337.6" r="3.5" stroke="rgb(132, 0, 0)" fill="#ffffff" clip-path="url(#simulation-graph-test_experiment_id_tstep_1)"/><circle class="simulation-point" cx="562.88" cy="337.6" r="3.5" stroke="rgb(132, 0, 0)" fill="#ffffff" clip-path="url(#simulation-graph-test_experiment_id_tstep_1)"/><circle class="simulation-point" cx="573.4" cy="337.6" r="3.5" stroke="rgb(132, 0, 0)" fill="#ffffff" clip-path="url(#simulation-graph-test_experiment_id_tstep_1)"/><circle class="simulation-point" cx="583.92" cy="337.6" r="3.5" stroke="rgb(132, 0, 0)" fill="#ffffff" clip-path="url(#simulation-graph-test_experiment_id_tstep_1)"/><circle class="simulation-point" cx="594.44" cy="337.6" r="3.5" stroke="rgb(132, 0, 0)" fill="#ffffff" clip-path="url(#simulation-graph-test_experiment_id_tstep_1)"/><circle class="simulation-point" cx="604.96" cy="337.6" r="3.5" stroke="rgb(132, 0, 0)" fill="#ffffff" clip-path="url(#simulation-graph-test_experiment_id_tstep_1)"/><circle class="simulation-point" cx="615.48" cy="337.6" r="3.5" stroke="rgb(132, 0, 0)" fill="#ffffff" clip-path="url(#simulation-graph-test_experiment_id_tstep_1)"/><circle class="simulation-point" cx="626" cy="337.6" r="3.5" stroke="rgb(132, 0, 0)" fill="#ffffff" clip-path="url(#simulation-graph-test_experiment_id_tstep_1)"/><circle class="simulation-point" cx="636.52" cy="337.6" r="3.5" stroke="rgb(132, 0, 0)" fill="#ffffff" clip-path="url(#simulation-graph-test_experiment_id_tstep_1)"/><circle class="simulation-point" cx="647.04" cy="337.6" r="3.5" stroke="rgb(132, 0, 0)" fill="#ffffff" clip-path="url(#simulation-graph-test_experiment_id_tstep_1)"/><circle class="simulation-point" cx="657.56" cy="337.6" r="3.5" stroke="rgb(132, 0, 0)" fill="#ffffff" clip-path="url(#simulation-graph-test_experiment_id_tstep_1)"/><circle class="simulation-point" cx="668.08" cy="337.6" r="3.5" stroke="rgb(132, 0, 0)" fill="#ffffff" clip-path="url(#simulation-graph-test_experiment_id_tstep_1)"/><circle class="simulation-point" cx="678.6" cy="337.6" r="3.5" stroke="rgb(132, 0, 0)" fill="#ffffff" clip-path="url(#simulation-graph-test_experiment_id_tstep_1)"/><circle class="simulation-point" cx="689.12" cy="337.6" r="3.5" stroke="rgb(132, 0, 0)" fill="#ffffff" clip-path="url(#simulation-graph-test_experiment_id_tstep_1)"/><circle class="simulation-point" cx="699.64" cy="337.6" r="3.5" stroke="rgb(132, 0, 0)" fill="#ffffff" clip-path="url(#simulation-graph-test_experiment_id_tstep_1)"/><circle class="simulation-point" cx="710.16" cy="337.6" r="3.5" stroke="rgb(132, 0, 0)" fill="#ffffff" clip-path="url(#simulation-graph-test_experiment_id_tstep_1)"/><circle class="simulation-point" cx="720.68" cy="337.6" r="3.5" stroke="rgb(132, 0, 0)" fill="#ffffff" clip-path="url(#simulation-graph-test_experiment_id_tstep_1)"/><circle class="simulation-point" cx="731.2" cy="337.6" r="3.5" stroke="rgb(132, 0, 0)" fill="#ffffff" clip-path="url(#simulation-graph-test_experiment_id_tstep_1)"/><circle class="simulation-point" cx="741.72" cy="337.6" r="3.5" stroke="rgb(132, 0, 0)" fill="#ffffff" clip-path="url(#simulation-graph-test_experiment_id_tstep_1)"/><circle class="simulation-point" cx="752.24" cy="337.6" r="3.5" stroke="rgb(132, 0, 0)" fill="#ffffff" clip-path="url(#simulation-graph-test_experiment_id_tstep_1)"/><circle class="simulation-point" cx="762.76" cy="337.6" r="3.5" stroke="rgb(132, 0, 0)" fill="#ffffff" clip-path="url(#simulation-graph-test_experiment_id_tstep_1)"/><circle class="simulation-point" cx="773.28" cy="337.6" r="3.5" stroke="rgb(132, 0, 0)" fill="#ffffff" clip-path="url(#simulation-graph-test_experiment_id_tstep_1)"/><circle class="simulation-point" cx="783.8" cy="337.6" r="3.5" stroke="rgb(132, 0, 0)" fill="#ffffff" clip-path="url(#simulation-graph-test_experiment_id_tstep_1)"/><circle class="simulation-point" cx="794.32" cy="337.6" r="3.5" stroke="rgb(132, 0, 0)" fill="#ffffff" clip-path="url(#simulation-graph-test_experiment_id_tstep_1)"/><circle class="simulation-point" cx="804.84" cy="337.6" r="3.5" stroke="rgb(132, 0, 0)" fill="#ffffff" clip-path="url(#simulation-graph-test_experiment_id_tstep_1)"/><circle class="simulation-point" cx="815.36" cy="337.6" r="3.5" stroke="rgb(132, 0, 0)" fill="#ffffff" clip-path="url(#simulation-graph-test_experiment_id_tstep_1)"/><circle class="simulation-point" cx="825.88" cy="337.6" r="3.5" stroke="rgb(132, 0, 0)" fill="#ffffff" clip-path="url(#simulation-graph-test_experiment_id_tstep_1)"/><circle class="simulation-point" cx="836.4" cy="337.6" r="3.5" stroke="rgb(132, 0, 0)" fill="#ffffff" clip-path="url(#simulation-graph-test_experiment_id_tstep_1)"/><circle class="simulation-point" cx="846.92" cy="337.6" r="3.5" stroke="rgb(132, 0, 0)" fill="#ffffff" clip-path="url(#simulation-graph-test_experiment_id_tstep_1)"/><circle class="simulation-point" cx="857.44" cy="337.6" r="3.5" stroke="rgb(132, 0, 0)" fill="#ffffff" clip-path="url(#simulation-graph-test_experiment_id_tstep_1)"/><circle class="simulation-point" cx="867.96" cy="337.6" r="3.5" stroke="rgb(132, 0, 0)" fill="#ffffff" clip-path="url(#simulation-graph-test_experiment_id_tstep_1)"/><circle class="simulation-point" cx="878.48" cy="337.6" r="3.5" stroke="rgb(132, 0, 0)" fill="#ffffff" clip-path="url(#simulation-graph-test_experiment_id_tstep_1)"/><circle class="simulation-point" cx="889" cy="337.6" r="3.5" stroke="rgb(132, 0, 0)" fill="#ffffff" clip-path="url(#simulation-graph-test_experiment_id_tstep_1)"/><circle class="simulation-point" cx="899.52" cy="337.6" r="3.5" stroke="rgb(132, 0, 0)" fill="#ffffff" clip-path="url(#simulation-graph-test_experiment_id_tstep_1)"/><circle class="simulation-point" cx="910.04" cy="337.6" r="3.5" stroke="rgb(132, 0, 0)" fill="#ffffff" clip-path="url(#simulation-graph-test_experiment_id_tstep_1)"/><circle class="simulation-point" cx="920.56" cy="337.6" r="3.5" stroke="rgb(132, 0, 0)" fill="#ffffff" clip-path="url(#simulation-graph-test_experiment_id_tstep_1)"/><circle class="simulation-point" cx="931.08" cy="337.6" r="3.5" stroke="rgb(132, 0, 0)" fill="#ffffff" clip-path="url(#simulation-graph-test_experiment_id_tstep_1)"/><circle class="simulation-point" cx="941.6" cy="337.6" r="3.5" stroke="rgb(132, 0, 0)" fill="#ffffff" clip-path="url(#simulation-graph-test_experiment_id_tstep_1)"/><circle class="simulation-point" cx="952.12" cy="337.6" r="3.5" stroke="rgb(132, 0, 0)" fill="#ffffff" clip-path="url(#simulation-graph-test_experiment_id_tstep_1)"/><circle class="simulation-point" cx="962.64" cy="337.6" r="3.5" stroke="rgb(132, 0, 0)" fill="#ffffff" clip-path="url(#simulation-graph-test_experiment_id_tstep_1)"/><circle class="simulation-point" cx="973.16" cy="337.6" r="3.5" stroke="rgb(132, 0, 0)" fill="#ffffff" clip-path="url(#simulation-graph-test_experiment_id_tstep_1)"/><circle class="simulation-point" cx="983.68" cy="337.6" r="3.5" stroke="rgb(132, 0, 0)" fill="#ffffff" clip-path="url(#simulation-graph-test_experiment_id_tstep_1)"/><circle class="simulation-point" cx="994.2" cy="337.6" r="3.5" stroke="rgb(132, 0, 0)" fill="#ffffff" clip-path="url(#simulation-graph-test_experiment_id_tstep_1)"/><circle class="simulation-point" cx="1004.72" cy="337.6" r="3.5" stroke="rgb(132, 0, 0)" fill="#ffffff" clip-path="url(#simulation-graph-test_experiment_id_tstep_1)"/><circle class="simulation-point" cx="1015.24" cy="337.6" r="3.5" stroke="rgb(132, 0, 0)" fill="#ffffff" clip-path="url(#simulation-graph-test_experiment_id_tstep_1)"/><circle class="simulation-point" cx="1025.76" cy="337.6" r="3.5" stroke="rgb(132, 0, 0)" fill="#ffffff" clip-path="url(#simulation-graph-test_experiment_id_tstep_1)"/><circle class="simulation-point" cx="1036.28" cy="337.6" r="3.5" stroke="rgb(132, 0, 0)" fill="#ffffff" clip-path="url(#simulation-graph-test_experiment_id_tstep_1)"/><circle class="simulation-point" cx="1046.8" cy="337.6" r="3.5" stroke="rgb(132, 0, 0)" fill="#ffffff" clip-path="url(#simulation-graph-test_experiment_id_tstep_1)"/><circle class="simulation-point" cx="1057.32" cy="337.6" r="3.5" stroke="rgb(132, 0, 0)" fill="#ffffff" clip-path="url(#simulation-graph-test_experiment_id_tstep_1)"/><circle class="simulation-point" cx="1067.84" cy="337.6" r="3.5" stroke="rgb(132, 0, 0)" fill="#ffffff" clip-path="url(#simulation-graph-test_experiment_id_tstep_1)"/><circle class="simulation-point" cx="1078.36" cy="337.6" r="3.5" stroke="rgb(132, 0, 0)" fill="#ffffff" clip-path="url(#simulation-graph-test_experiment_id_tstep_1)"/><circle class="simulation-point" cx="1088.88" cy="337.6" r="3.5" stroke="rgb(132, 0, 0)" fill="#ffffff" clip-path="url(#simulation-graph-test_experiment_id_tstep_1)"/><circle class="simulation-point" cx="1099.4" cy="337.6" r="3.5" stroke="rgb(132, 0, 0)" fill="#ffffff" clip-path="url(#simulation-graph-test_experiment_id_tstep_1)"/><circle class="simulation-point" cx="1109.92" cy="337.6" r="3.5" stroke="rgb(132, 0, 0)" fill="#ffffff" clip-path="url(#simulation-graph-test_experiment_id_tstep_1)"/><circle class="simulation-point" cx="1120.44" cy="337.6" r="3.5" stroke="rgb(132, 0, 0)" fill="#ffffff" clip-path="url(#simulation-graph-test_experiment_id_tstep_1)"/><circle class="simulation-point" cx="1130.96" cy="337.6" r="3.5" stroke="rgb(132, 0, 0)" fill="#ffffff" clip-path="url(#simulation-graph-test_experiment_id_tstep_1)"/><circle class="simulation-point" cx="1141.48" cy="337.6" r="3.5" stroke="rgb(132, 0, 0)" fill="#ffffff" clip-path="url(#simulation-graph-test_experiment_id_tstep_1)"/><circle class="simulation-point" cx="1152" cy="337.6" r="3.5" stroke="rgb(132, 0, 0)" fill="#ffffff" clip-path="url(#simulation-graph-test_experiment_id_tstep_1)"/><path class="simulation-line" d="M 100 428.8 L 110.52 426.453293 L 121.04 421.613665 L 131.56 414.573798 L 142.08 405.615316 L 152.6 395.011113 L 163.12 383.023848 L 173.64 369.904354 L 184.16 355.890379 L 194.68 341.20556 L 205.2 330.195555 L 215.72 314.163001 L 226.24 298.063416 L 236.76 282.061393 L 247.28 271.493589 L 257.8 255.286913 L 268.32 239.608354 L 278.84 224.560951 L 289.36 210.231769 L 299.88 202.637546 L 310.4 188.920688 L 320.92 176.144801 L 331.44 170.528317 L 341.96 158.623277 L 352.48 147.783747 L 363 138.013997 L 373.52 129.307375 L 384.04 127.848252 L 394.56 120.027584 L 405.08 113.259761 L 415.6 113.630595 L 426.12 107.659081 L 436.64 102.684342 L 447.16 98.658506 L 457.68 95.530023 L 468.2 93.243476 L 478.72 91.740504 L 489.24 96.548858 L 499.76 95.255211 L 510.28 94.630083 L 520.8 94.615441 L 531.32 95.152828 L 541.84 96.183977 L 552.36 97.651362 L 562.88 104.529453 L 573.4 105.597579 L 583.92 107.005957 L 594.44 108.708269 L 604.96 110.660672 L 615.48 112.819963 L 626 115.145052 L 636.52 117.597163 L 647.04 120.139991 L 657.56 127.278663 L 668.08 128.889885 L 678.6 130.561524 L 689.12 132.271344 L 699.64 133.998869 L 710.16 135.725413 L 720.68 137.434094 L 731.2 143.535406 L 741.72 144.190444 L 752.24 144.847264 L 762.76 145.499237 L 773.28 146.140419 L 783.8 146.765541 L 794.32 147.369998 L 804.84 147.949833 L 815.36 148.501707 L 825.88 149.022878 L 836.4 149.511172 L 846.92 149.964943 L 857.44 150.383043 L 867.96 155.211685 L 878.48 154.600792 L 889 154.010868 L 899.52 153.445702 L 910.04 152.908471 L 920.56 152.401776 L 931.08 151.927667 L 941.6 151.487677 L 952.12 151.082856 L 962.64 150.713808 L 973.16 150.380726 L 983.68 150.083432 L 994.2 149.821414 L 1004.72 149.59386 L 1015.24 149.399699 L 1025.76 153.796081 L 1036.28 152.694787 L 1046.8 151.680285 L 1057.32 150.754215 L 1067.84 149.917192 L 1078.36 149.168896 L 1088.88 148.508167 L 1099.4 147.933092 L 1109.92 147.441103 L 1120.44 147.02906 L 1130.96 146.693339 L 1141.48 146.429913 L 1152 146.234431" stroke="rgb(194, 194, 0)" clip-path="url(#simulation-graph-test_experiment_id_tstep_1)" data-simulation-transient-voltage-graph-id="simulation_graph_R1.pin1"/><circle class="simulation-point" cx="100" cy="428.8" r="3.5" stroke="rgb(194, 194, 0)" fill="#ffffff" clip-path="url(#simulation-graph-test_experiment_id_tstep_1)"/><circle class="simulation-point" cx="110.52" cy="426.453293" r="3.5" stroke="rgb(194, 194, 0)" fill="#ffffff" clip-path="url(#simulation-graph-test_experiment_id_tstep_1)"/><circle class="simulation-point" cx="121.04" cy="421.613665" r="3.5" stroke="rgb(194, 194, 0)" fill="#ffffff" clip-path="url(#simulation-graph-test_experiment_id_tstep_1)"/><circle class="simulation-point" cx="131.56" cy="414.573798" r="3.5" stroke="rgb(194, 194, 0)" fill="#ffffff" clip-path="url(#simulation-graph-test_experiment_id_tstep_1)"/><circle class="simulation-point" cx="142.08" cy="405.615316" r="3.5" stroke="rgb(194, 194, 0)" fill="#ffffff" clip-path="url(#simulation-graph-test_experiment_id_tstep_1)"/><circle class="simulation-point" cx="152.6" cy="395.011113" r="3.5" stroke="rgb(194, 194, 0)" fill="#ffffff" clip-path="url(#simulation-graph-test_experiment_id_tstep_1)"/><circle class="simulation-point" cx="163.12" cy="383.023848" r="3.5" stroke="rgb(194, 194, 0)" fill="#ffffff" clip-path="url(#simulation-graph-test_experiment_id_tstep_1)"/><circle class="simulation-point" cx="173.64" cy="369.904354" r="3.5" stroke="rgb(194, 194, 0)" fill="#ffffff" clip-path="url(#simulation-graph-test_experiment_id_tstep_1)"/><circle class="simulation-point" cx="184.16" cy="355.890379" r="3.5" stroke="rgb(194, 194, 0)" fill="#ffffff" clip-path="url(#simulation-graph-test_experiment_id_tstep_1)"/><circle class="simulation-point" cx="194.68" cy="341.20556" r="3.5" stroke="rgb(194, 194, 0)" fill="#ffffff" clip-path="url(#simulation-graph-test_experiment_id_tstep_1)"/><circle class="simulation-point" cx="205.2" cy="330.195555" r="3.5" stroke="rgb(194, 194, 0)" fill="#ffffff" clip-path="url(#simulation-graph-test_experiment_id_tstep_1)"/><circle class="simulation-point" cx="215.72" cy="314.163001" r="3.5" stroke="rgb(194, 194, 0)" fill="#ffffff" clip-path="url(#simulation-graph-test_experiment_id_tstep_1)"/><circle class="simulation-point" cx="226.24" cy="298.063416" r="3.5" stroke="rgb(194, 194, 0)" fill="#ffffff" clip-path="url(#simulation-graph-test_experiment_id_tstep_1)"/><circle class="simulation-point" cx="236.76" cy="282.061393" r="3.5" stroke="rgb(194, 194, 0)" fill="#ffffff" clip-path="url(#simulation-graph-test_experiment_id_tstep_1)"/><circle class="simulation-point" cx="247.28" cy="271.493589" r="3.5" stroke="rgb(194, 194, 0)" fill="#ffffff" clip-path="url(#simulation-graph-test_experiment_id_tstep_1)"/><circle class="simulation-point" cx="257.8" cy="255.286913" r="3.5" stroke="rgb(194, 194, 0)" fill="#ffffff" clip-path="url(#simulation-graph-test_experiment_id_tstep_1)"/><circle class="simulation-point" cx="268.32" cy="239.608354" r="3.5" stroke="rgb(194, 194, 0)" fill="#ffffff" clip-path="url(#simulation-graph-test_experiment_id_tstep_1)"/><circle class="simulation-point" cx="278.84" cy="224.560951" r="3.5" stroke="rgb(194, 194, 0)" fill="#ffffff" clip-path="url(#simulation-graph-test_experiment_id_tstep_1)"/><circle class="simulation-point" cx="289.36" cy="210.231769" r="3.5" stroke="rgb(194, 194, 0)" fill="#ffffff" clip-path="url(#simulation-graph-test_experiment_id_tstep_1)"/><circle class="simulation-point" cx="299.88" cy="202.637546" r="3.5" stroke="rgb(194, 194, 0)" fill="#ffffff" clip-path="url(#simulation-graph-test_experiment_id_tstep_1)"/><circle class="simulation-point" cx="310.4" cy="188.920688" r="3.5" stroke="rgb(194, 194, 0)" fill="#ffffff" clip-path="url(#simulation-graph-test_experiment_id_tstep_1)"/><circle class="simulation-point" cx="320.92" cy="176.144801" r="3.5" stroke="rgb(194, 194, 0)" fill="#ffffff" clip-path="url(#simulation-graph-test_experiment_id_tstep_1)"/><circle class="simulation-point" cx="331.44" cy="170.528317" r="3.5" stroke="rgb(194, 194, 0)" fill="#ffffff" clip-path="url(#simulation-graph-test_experiment_id_tstep_1)"/><circle class="simulation-point" cx="341.96" cy="158.623277" r="3.5" stroke="rgb(194, 194, 0)" fill="#ffffff" clip-path="url(#simulation-graph-test_experiment_id_tstep_1)"/><circle class="simulation-point" cx="352.48" cy="147.783747" r="3.5" stroke="rgb(194, 194, 0)" fill="#ffffff" clip-path="url(#simulation-graph-test_experiment_id_tstep_1)"/><circle class="simulation-point" cx="363" cy="138.013997" r="3.5" stroke="rgb(194, 194, 0)" fill="#ffffff" clip-path="url(#simulation-graph-test_experiment_id_tstep_1)"/><circle class="simulation-point" cx="373.52" cy="129.307375" r="3.5" stroke="rgb(194, 194, 0)" fill="#ffffff" clip-path="url(#simulation-graph-test_experiment_id_tstep_1)"/><circle class="simulation-point" cx="384.04" cy="127.848252" r="3.5" stroke="rgb(194, 194, 0)" fill="#ffffff" clip-path="url(#simulation-graph-test_experiment_id_tstep_1)"/><circle class="simulation-point" cx="394.56" cy="120.027584" r="3.5" stroke="rgb(194, 194, 0)" fill="#ffffff" clip-path="url(#simulation-graph-test_experiment_id_tstep_1)"/><circle class="simulation-point" cx="405.08" cy="113.259761" r="3.5" stroke="rgb(194, 194, 0)" fill="#ffffff" clip-path="url(#simulation-graph-test_experiment_id_tstep_1)"/><circle class="simulation-point" cx="415.6" cy="113.630595" r="3.5" stroke="rgb(194, 194, 0)" fill="#ffffff" clip-path="url(#simulation-graph-test_experiment_id_tstep_1)"/><circle class="simulation-point" cx="426.12" cy="107.659081" r="3.5" stroke="rgb(194, 194, 0)" fill="#ffffff" clip-path="url(#simulation-graph-test_experiment_id_tstep_1)"/><circle class="simulation-point" cx="436.64" cy="102.684342" r="3.5" stroke="rgb(194, 194, 0)" fill="#ffffff" clip-path="url(#simulation-graph-test_experiment_id_tstep_1)"/><circle class="simulation-point" cx="447.16" cy="98.658506" r="3.5" stroke="rgb(194, 194, 0)" fill="#ffffff" clip-path="url(#simulation-graph-test_experiment_id_tstep_1)"/><circle class="simulation-point" cx="457.68" cy="95.530023" r="3.5" stroke="rgb(194, 194, 0)" fill="#ffffff" clip-path="url(#simulation-graph-test_experiment_id_tstep_1)"/><circle class="simulation-point" cx="468.2" cy="93.243476" r="3.5" stroke="rgb(194, 194, 0)" fill="#ffffff" clip-path="url(#simulation-graph-test_experiment_id_tstep_1)"/><circle class="simulation-point" cx="478.72" cy="91.740504" r="3.5" stroke="rgb(194, 194, 0)" fill="#ffffff" clip-path="url(#simulation-graph-test_experiment_id_tstep_1)"/><circle class="simulation-point" cx="489.24" cy="96.548858" r="3.5" stroke="rgb(194, 194, 0)" fill="#ffffff" clip-path="url(#simulation-graph-test_experiment_id_tstep_1)"/><circle class="simulation-point" cx="499.76" cy="95.255211" r="3.5" stroke="rgb(194, 194, 0)" fill="#ffffff" clip-path="url(#simulation-graph-test_experiment_id_tstep_1)"/><circle class="simulation-point" cx="510.28" cy="94.630083" r="3.5" stroke="rgb(194, 194, 0)" fill="#ffffff" clip-path="url(#simulation-graph-test_experiment_id_tstep_1)"/><circle class="simulation-point" cx="520.8" cy="94.615441" r="3.5" stroke="rgb(194, 194, 0)" fill="#ffffff" clip-path="url(#simulation-graph-test_experiment_id_tstep_1)"/><circle class="simulation-point" cx="531.32" cy="95.152828" r="3.5" stroke="rgb(194, 194, 0)" fill="#ffffff" clip-path="url(#simulation-graph-test_experiment_id_tstep_1)"/><circle class="simulation-point" cx="541.84" cy="96.183977" r="3.5" stroke="rgb(194, 194, 0)" fill="#ffffff" clip-path="url(#simulation-graph-test_experiment_id_tstep_1)"/><circle class="simulation-point" cx="552.36" cy="97.651362" r="3.5" stroke="rgb(194, 194, 0)" fill="#ffffff" clip-path="url(#simulation-graph-test_experiment_id_tstep_1)"/><circle class="simulation-point" cx="562.88" cy="104.529453" r="3.5" stroke="rgb(194, 194, 0)" fill="#ffffff" clip-path="url(#simulation-graph-test_experiment_id_tstep_1)"/><circle class="simulation-point" cx="573.4" cy="105.597579" r="3.5" stroke="rgb(194, 194, 0)" fill="#ffffff" clip-path="url(#simulation-graph-test_experiment_id_tstep_1)"/><circle class="simulation-point" cx="583.92" cy="107.005957" r="3.5" stroke="rgb(194, 194, 0)" fill="#ffffff" clip-path="url(#simulation-graph-test_experiment_id_tstep_1)"/><circle class="simulation-point" cx="594.44" cy="108.708269" r="3.5" stroke="rgb(194, 194, 0)" fill="#ffffff" clip-path="url(#simulation-graph-test_experiment_id_tstep_1)"/><circle class="simulation-point" cx="604.96" cy="110.660672" r="3.5" stroke="rgb(194, 194, 0)" fill="#ffffff" clip-path="url(#simulation-graph-test_experiment_id_tstep_1)"/><circle class="simulation-point" cx="615.48" cy="112.819963" r="3.5" stroke="rgb(194, 194, 0)" fill="#ffffff" clip-path="url(#simulation-graph-test_experiment_id_tstep_1)"/><circle class="simulation-point" cx="626" cy="115.145052" r="3.5" stroke="rgb(194, 194, 0)" fill="#ffffff" clip-path="url(#simulation-graph-test_experiment_id_tstep_1)"/><circle class="simulation-point" cx="636.52" cy="117.597163" r="3.5" stroke="rgb(194, 194, 0)" fill="#ffffff" clip-path="url(#simulation-graph-test_experiment_id_tstep_1)"/><circle class="simulation-point" cx="647.04" cy="120.139991" r="3.5" stroke="rgb(194, 194, 0)" fill="#ffffff" clip-path="url(#simulation-graph-test_experiment_id_tstep_1)"/><circle class="simulation-point" cx="657.56" cy="127.278663" r="3.5" stroke="rgb(194, 194, 0)" fill="#ffffff" clip-path="url(#simulation-graph-test_experiment_id_tstep_1)"/><circle class="simulation-point" cx="668.08" cy="128.889885" r="3.5" stroke="rgb(194, 194, 0)" fill="#ffffff" clip-path="url(#simulation-graph-test_experiment_id_tstep_1)"/><circle class="simulation-point" cx="678.6" cy="130.561524" r="3.5" stroke="rgb(194, 194, 0)" fill="#ffffff" clip-path="url(#simulation-graph-test_experiment_id_tstep_1)"/><circle class="simulation-point" cx="689.12" cy="132.271344" r="3.5" stroke="rgb(194, 194, 0)" fill="#ffffff" clip-path="url(#simulation-graph-test_experiment_id_tstep_1)"/><circle class="simulation-point" cx="699.64" cy="133.998869" r="3.5" stroke="rgb(194, 194, 0)" fill="#ffffff" clip-path="url(#simulation-graph-test_experiment_id_tstep_1)"/><circle class="simulation-point" cx="710.16" cy="135.725413" r="3.5" stroke="rgb(194, 194, 0)" fill="#ffffff" clip-path="url(#simulation-graph-test_experiment_id_tstep_1)"/><circle class="simulation-point" cx="720.68" cy="137.434094" r="3.5" stroke="rgb(194, 194, 0)" fill="#ffffff" clip-path="url(#simulation-graph-test_experiment_id_tstep_1)"/><circle class="simulation-point" cx="731.2" cy="143.535406" r="3.5" stroke="rgb(194, 194, 0)" fill="#ffffff" clip-path="url(#simulation-graph-test_experiment_id_tstep_1)"/><circle class="simulation-point" cx="741.72" cy="144.190444" r="3.5" stroke="rgb(194, 194, 0)" fill="#ffffff" clip-path="url(#simulation-graph-test_experiment_id_tstep_1)"/><circle class="simulation-point" cx="752.24" cy="144.847264" r="3.5" stroke="rgb(194, 194, 0)" fill="#ffffff" clip-path="url(#simulation-graph-test_experiment_id_tstep_1)"/><circle class="simulation-point" cx="762.76" cy="145.499237" r="3.5" stroke="rgb(194, 194, 0)" fill="#ffffff" clip-path="url(#simulation-graph-test_experiment_id_tstep_1)"/><circle class="simulation-point" cx="773.28" cy="146.140419" r="3.5" stroke="rgb(194, 194, 0)" fill="#ffffff" clip-path="url(#simulation-graph-test_experiment_id_tstep_1)"/><circle class="simulation-point" cx="783.8" cy="146.765541" r="3.5" stroke="rgb(194, 194, 0)" fill="#ffffff" clip-path="url(#simulation-graph-test_experiment_id_tstep_1)"/><circle class="simulation-point" cx="794.32" cy="147.369998" r="3.5" stroke="rgb(194, 194, 0)" fill="#ffffff" clip-path="url(#simulation-graph-test_experiment_id_tstep_1)"/><circle class="simulation-point" cx="804.84" cy="147.949833" r="3.5" stroke="rgb(194, 194, 0)" fill="#ffffff" clip-path="url(#simulation-graph-test_experiment_id_tstep_1)"/><circle class="simulation-point" cx="815.36" cy="148.501707" r="3.5" stroke="rgb(194, 194, 0)" fill="#ffffff" clip-path="url(#simulation-graph-test_experiment_id_tstep_1)"/><circle class="simulation-point" cx="825.88" cy="149.022878" r="3.5" stroke="rgb(194, 194, 0)" fill="#ffffff" clip-path="url(#simulation-graph-test_experiment_id_tstep_1)"/><circle class="simulation-point" cx="836.4" cy="149.511172" r="3.5" stroke="rgb(194, 194, 0)" fill="#ffffff" clip-path="url(#simulation-graph-test_experiment_id_tstep_1)"/><circle class="simulation-point" cx="846.92" cy="149.964943" r="3.5" stroke="rgb(194, 194, 0)" fill="#ffffff" clip-path="url(#simulation-graph-test_experiment_id_tstep_1)"/><circle class="simulation-point" cx="857.44" cy="150.383043" r="3.5" stroke="rgb(194, 194, 0)" fill="#ffffff" clip-path="url(#simulation-graph-test_experiment_id_tstep_1)"/><circle class="simulation-point" cx="867.96" cy="155.211685" r="3.5" stroke="rgb(194, 194, 0)" fill="#ffffff" clip-path="url(#simulation-graph-test_experiment_id_tstep_1)"/><circle class="simulation-point" cx="878.48" cy="154.600792" r="3.5" stroke="rgb(194, 194, 0)" fill="#ffffff" clip-path="url(#simulation-graph-test_experiment_id_tstep_1)"/><circle class="simulation-point" cx="889" cy="154.010868" r="3.5" stroke="rgb(194, 194, 0)" fill="#ffffff" clip-path="url(#simulation-graph-test_experiment_id_tstep_1)"/><circle class="simulation-point" cx="899.52" cy="153.445702" r="3.5" stroke="rgb(194, 194, 0)" fill="#ffffff" clip-path="url(#simulation-graph-test_experiment_id_tstep_1)"/><circle class="simulation-point" cx="910.04" cy="152.908471" r="3.5" stroke="rgb(194, 194, 0)" fill="#ffffff" clip-path="url(#simulation-graph-test_experiment_id_tstep_1)"/><circle class="simulation-point" cx="920.56" cy="152.401776" r="3.5" stroke="rgb(194, 194, 0)" fill="#ffffff" clip-path="url(#simulation-graph-test_experiment_id_tstep_1)"/><circle class="simulation-point" cx="931.08" cy="151.927667" r="3.5" stroke="rgb(194, 194, 0)" fill="#ffffff" clip-path="url(#simulation-graph-test_experiment_id_tstep_1)"/><circle class="simulation-point" cx="941.6" cy="151.487677" r="3.5" stroke="rgb(194, 194, 0)" fill="#ffffff" clip-path="url(#simulation-graph-test_experiment_id_tstep_1)"/><circle class="simulation-point" cx="952.12" cy="151.082856" r="3.5" stroke="rgb(194, 194, 0)" fill="#ffffff" clip-path="url(#simulation-graph-test_experiment_id_tstep_1)"/><circle class="simulation-point" cx="962.64" cy="150.713808" r="3.5" stroke="rgb(194, 194, 0)" fill="#ffffff" clip-path="url(#simulation-graph-test_experiment_id_tstep_1)"/><circle class="simulation-point" cx="973.16" cy="150.380726" r="3.5" stroke="rgb(194, 194, 0)" fill="#ffffff" clip-path="url(#simulation-graph-test_experiment_id_tstep_1)"/><circle class="simulation-point" cx="983.68" cy="150.083432" r="3.5" stroke="rgb(194, 194, 0)" fill="#ffffff" clip-path="url(#simulation-graph-test_experiment_id_tstep_1)"/><circle class="simulation-point" cx="994.2" cy="149.821414" r="3.5" stroke="rgb(194, 194, 0)" fill="#ffffff" clip-path="url(#simulation-graph-test_experiment_id_tstep_1)"/><circle class="simulation-point" cx="1004.72" cy="149.59386" r="3.5" stroke="rgb(194, 194, 0)" fill="#ffffff" clip-path="url(#simulation-graph-test_experiment_id_tstep_1)"/><circle class="simulation-point" cx="1015.24" cy="149.399699" r="3.5" stroke="rgb(194, 194, 0)" fill="#ffffff" clip-path="url(#simulation-graph-test_experiment_id_tstep_1)"/><circle class="simulation-point" cx="1025.76" cy="153.796081" r="3.5" stroke="rgb(194, 194, 0)" fill="#ffffff" clip-path="url(#simulation-graph-test_experiment_id_tstep_1)"/><circle class="simulation-point" cx="1036.28" cy="152.694787" r="3.5" stroke="rgb(194, 194, 0)" fill="#ffffff" clip-path="url(#simulation-graph-test_experiment_id_tstep_1)"/><circle class="simulation-point" cx="1046.8" cy="151.680285" r="3.5" stroke="rgb(194, 194, 0)" fill="#ffffff" clip-path="url(#simulation-graph-test_experiment_id_tstep_1)"/><circle class="simulation-point" cx="1057.32" cy="150.754215" r="3.5" stroke="rgb(194, 194, 0)" fill="#ffffff" clip-path="url(#simulation-graph-test_experiment_id_tstep_1)"/><circle class="simulation-point" cx="1067.84" cy="149.917192" r="3.5" stroke="rgb(194, 194, 0)" fill="#ffffff" clip-path="url(#simulation-graph-test_experiment_id_tstep_1)"/><circle class="simulation-point" cx="1078.36" cy="149.168896" r="3.5" stroke="rgb(194, 194, 0)" fill="#ffffff" clip-path="url(#simulation-graph-test_experiment_id_tstep_1)"/><circle class="simulation-point" cx="1088.88" cy="148.508167" r="3.5" stroke="rgb(194, 194, 0)" fill="#ffffff" clip-path="url(#simulation-graph-test_experiment_id_tstep_1)"/><circle class="simulation-point" cx="1099.4" cy="147.933092" r="3.5" stroke="rgb(194, 194, 0)" fill="#ffffff" clip-path="url(#simulation-graph-test_experiment_id_tstep_1)"/><circle class="simulation-point" cx="1109.92" cy="147.441103" r="3.5" stroke="rgb(194, 194, 0)" fill="#ffffff" clip-path="url(#simulation-graph-test_experiment_id_tstep_1)"/><circle class="simulation-point" cx="1120.44" cy="147.02906" r="3.5" stroke="rgb(194, 194, 0)" fill="#ffffff" clip-path="url(#simulation-graph-test_experiment_id_tstep_1)"/><circle class="simulation-point" cx="1130.96" cy="146.693339" r="3.5" stroke="rgb(194, 194, 0)" fill="#ffffff" clip-path="url(#simulation-graph-test_experiment_id_tstep_1)"/><circle class="simulation-point" cx="1141.48" cy="146.429913" r="3.5" stroke="rgb(194, 194, 0)" fill="#ffffff" clip-path="url(#simulation-graph-test_experiment_id_tstep_1)"/><circle class="simulation-point" cx="1152" cy="146.234431" r="3.5" stroke="rgb(194, 194, 0)" fill="#ffffff" clip-path="url(#simulation-graph-test_experiment_id_tstep_1)"/></g><g class="axes"><line class="axis axis-x" x1="100" y1="520" x2="1152" y2="520"/><line class="axis axis-y" x1="100" y1="64" x2="100" y2="520"/><line class="axis-tick axis-tick-x" x1="100" y1="520" x2="100" y2="526"/><text class="axis-label axis-label-x" x="100" y="542" text-anchor="middle">0</text><line class="axis-tick axis-tick-x" x1="310.4" y1="520" x2="310.4" y2="526"/><text class="axis-label axis-label-x" x="310.4" y="542" text-anchor="middle">20</text><line class="axis-tick axis-tick-x" x1="520.8" y1="520" x2="520.8" y2="526"/><text class="axis-label axis-label-x" x="520.8" y="542" text-anchor="middle">40</text><line class="axis-tick axis-tick-x" x1="731.2" y1="520" x2="731.2" y2="526"/><text class="axis-label axis-label-x" x="731.2" y="542" text-anchor="middle">60</text><line class="axis-tick axis-tick-x" x1="941.6" y1="520" x2="941.6" y2="526"/><text class="axis-label axis-label-x" x="941.6" y="542" text-anchor="middle">80</text><line class="axis-tick axis-tick-x" x1="1152" y1="520" x2="1152" y2="526"/><text class="axis-label axis-label-x" x="1152" y="542" text-anchor="middle">100</text><line class="axis-tick axis-tick-y" x1="94" y1="520" x2="100" y2="520"/><text class="axis-label axis-label-y" x="90" y="520" text-anchor="end" dominant-baseline="middle">-5</text><line class="axis-tick axis-tick-y" x1="94" y1="428.8" x2="100" y2="428.8"/><text class="axis-label axis-label-y" x="90" y="428.8" text-anchor="end" dominant-baseline="middle">0</text><line class="axis-tick axis-tick-y" x1="94" y1="337.6" x2="100" y2="337.6"/><text class="axis-label axis-label-y" x="90" y="337.6" text-anchor="end" dominant-baseline="middle">5</text><line class="axis-tick axis-tick-y" x1="94" y1="246.4" x2="100" y2="246.4"/><text class="axis-label axis-label-y" x="90" y="246.4" text-anchor="end" dominant-baseline="middle">10</text><line class="axis-tick axis-tick-y" x1="94" y1="155.2" x2="100" y2="155.2"/><text class="axis-label axis-label-y" x="90" y="155.2" text-anchor="end" dominant-baseline="middle">15</text><line class="axis-tick axis-tick-y" x1="94" y1="64" x2="100" y2="64"/><text class="axis-label axis-label-y" x="90" y="64" text-anchor="end" dominant-baseline="middle">20</text><text class="axis-title axis-title-x" x="626" y="568" text-anchor="middle">Time (ms)</text><text class="axis-title axis-title-y" x="36" y="292" transform="rotate(-90 36 292)" text-anchor="middle">Voltage (V)</text></g><g class="legend"><g class="legend-item" transform="translate(100 36)"><line class="legend-line" x1="0" y1="0" x2="24" y2="0" stroke="rgb(132, 0, 0)"/><text class="legend-label" x="32" y="0" dominant-baseline="middle">V1.pin1</text></g><g class="legend-item" transform="translate(100 56)"><line class="legend-line" x1="0" y1="0" x2="24" y2="0" stroke="rgb(194, 194, 0)"/><text class="legend-label" x="32" y="0" dominant-baseline="middle">R1.pin1</text></g></g><text class="chart-title" x="600" y="24" text-anchor="middle">Timestep 0.001</text></svg>